EncodeNormal-Beta70-100 Thin.ufo
<glyph name="exclam" format="1">
  <advance width="229"/>
  <unicode hex="0021"/>
  <outline>
    <contour>
      <point x="118" y="5" type="curve" smooth="yes"/>
      <point x="137" y="5"/>
      <point x="150" y="17"/>
      <point x="150" y="37" type="curve" smooth="yes"/>
      <point x="150" y="56"/>
      <point x="137" y="69"/>
      <point x="118" y="69" type="curve" smooth="yes"/>
      <point x="98" y="69"/>
      <point x="86" y="57"/>
      <point x="86" y="37" type="curve" smooth="yes"/>
      <point x="86" y="17"/>
      <point x="98" y="5"/>
    </contour>
    <contour>
      <point x="100" y="151" type="line"/>
      <point x="128" y="151" type="line"/>
      <point x="128" y="165" type="line"/>
      <point x="134" y="730" type="line"/>
      <point x="134" y="740" type="line"/>
      <point x="94" y="740" type="line"/>
      <point x="94" y="730" type="line"/>
      <point x="100" y="165" type="line"/>
    </contour>
  </outline>
</glyph>
<glyph name="numbersign" format="1">
  <advance width="532"/>
  <unicode hex="0023"/>
  <outline>
    <contour>
      <point x="120" y="0" type="line"/>
      <point x="159" y="0" type="line"/>
      <point x="219" y="740" type="line"/>
      <point x="181" y="740" type="line"/>
    </contour>
    <contour>
      <point x="54" y="244" type="line"/>
      <point x="476" y="244" type="line"/>
      <point x="476" y="281" type="line"/>
      <point x="54" y="281" type="line"/>
    </contour>
    <contour>
      <point x="54" y="459" type="line"/>
      <point x="477" y="459" type="line"/>
      <point x="477" y="496" type="line"/>
      <point x="54" y="496" type="line"/>
    </contour>
    <contour>
      <point x="300" y="0" type="line"/>
      <point x="338" y="0" type="line"/>
      <point x="398" y="740" type="line"/>
      <point x="361" y="740" type="line"/>
    </contour>
  </outline>
</glyph>
<glyph name="dollar" format="1">
  <advance width="547"/>
  <unicode hex="0024"/>
  <outline>
    <contour>
      <point x="269" y="-150" type="line"/>
      <point x="311" y="-150" type="line"/>
      <point x="311" y="12" type="line"/>
      <point x="269" y="10" type="line"/>
    </contour>
    <contour>
      <point x="261" y="729" type="line"/>
      <point x="303" y="730" type="line"/>
      <point x="303" y="890" type="line"/>
      <point x="261" y="890" type="line"/>
    </contour>
    <component base="S" xOffset="1"/>
  </outline>
</glyph>
<glyph name="ampersand" format="1">
  <advance width="697"/>
  <unicode hex="0026"/>
  <outline>
    <contour>
      <point x="643" y="103" type="line"/>
      <point x="650" y="103" type="line"/>
      <point x="670" y="128" type="line"/>
      <point x="670" y="134" type="line"/>
      <point x="410" y="280" type="line" smooth="yes"/>
      <point x="241" y="375"/>
      <point x="181" y="447"/>
      <point x="181" y="557" type="curve" smooth="yes"/>
      <point x="181" y="662"/>
      <point x="239" y="716"/>
      <point x="352" y="716" type="curve" smooth="yes"/>
      <point x="396" y="716"/>
      <point x="441" y="706"/>
      <point x="503" y="681" type="curve"/>
      <point x="508" y="681" type="line"/>
      <point x="522" y="709" type="line"/>
      <point x="522" y="715" type="line"/>
      <point x="453" y="742"/>
      <point x="401" y="754"/>
      <point x="351" y="754" type="curve" smooth="yes"/>
      <point x="213" y="754"/>
      <point x="141" y="686"/>
      <point x="141" y="558" type="curve" smooth="yes"/>
      <point x="141" y="426"/>
      <point x="198" y="354"/>
      <point x="385" y="248" type="curve" smooth="yes"/>
    </contour>
    <contour>
      <point x="311" y="-12" type="curve" smooth="yes"/>
      <point x="510" y="-12"/>
      <point x="608" y="104"/>
      <point x="608" y="342" type="curve" smooth="yes"/>
      <point x="608" y="409" type="line"/>
      <point x="569" y="409" type="line"/>
      <point x="569" y="342" type="line" smooth="yes"/>
      <point x="569" y="128"/>
      <point x="485" y="26"/>
      <point x="311" y="26" type="curve" smooth="yes"/>
      <point x="178" y="26"/>
      <point x="97" y="95"/>
      <point x="97" y="206" type="curve" smooth="yes"/>
      <point x="97" y="286"/>
      <point x="138" y="342"/>
      <point x="224" y="377" type="curve"/>
      <point x="206" y="424" type="line"/>
      <point x="204" y="410" type="line"/>
      <point x="106" y="372"/>
      <point x="57" y="304"/>
      <point x="57" y="206" type="curve" smooth="yes"/>
      <point x="57" y="70"/>
      <point x="152" y="-12"/>
    </contour>
  </outline>
</glyph>
<glyph name="quotesingle" format="1">
  <advance width="182"/>
  <unicode hex="0027"/>
  <outline>
    <contour>
      <point x="76" y="808" type="line"/>
      <point x="76" y="480" type="line"/>
      <point x="94" y="480" type="line"/>
      <point x="118" y="804" type="line"/>
      <point x="118" y="808" type="line"/>
    </contour>
  </outline>
</glyph>
<glyph name="parenleft" format="1">
  <advance width="273"/>
  <unicode hex="0028"/>
  <outline>
    <contour>
      <point x="208" y="-160" type="curve"/>
      <point x="247" y="-160" type="line"/>
      <point x="247" y="-156" type="line"/>
      <point x="145" y="-13"/>
      <point x="91" y="164"/>
      <point x="91" y="354" type="curve" smooth="yes"/>
      <point x="91" y="543"/>
      <point x="145" y="721"/>
      <point x="247" y="864" type="curve"/>
      <point x="247" y="868" type="line"/>
      <point x="208" y="868" type="line"/>
      <point x="107" y="722"/>
      <point x="52" y="541"/>
      <point x="52" y="354" type="curve" smooth="yes"/>
      <point x="52" y="167"/>
      <point x="107" y="-14"/>
    </contour>
  </outline>
</glyph>
<glyph name="parenright" format="1">
  <advance width="273"/>
  <unicode hex="0029"/>
  <outline>
    <contour>
      <point x="65" y="-160" type="line"/>
      <point x="166" y="-14"/>
      <point x="221" y="167"/>
      <point x="221" y="354" type="curve" smooth="yes"/>
      <point x="221" y="541"/>
      <point x="166" y="722"/>
      <point x="65" y="868" type="curve"/>
      <point x="26" y="868" type="line"/>
      <point x="26" y="864" type="line"/>
      <point x="128" y="721"/>
      <point x="182" y="543"/>
      <point x="182" y="354" type="curve" smooth="yes"/>
      <point x="182" y="164"/>
      <point x="128" y="-13"/>
      <point x="26" y="-156" type="curve"/>
      <point x="26" y="-160" type="line"/>
    </contour>
  </outline>
</glyph>
<glyph name="asterisk" format="1">
  <advance width="492"/>
  <unicode hex="002A"/>
  <outline>
    <contour>
      <point x="241" y="628" type="line"/>
      <point x="251" y="628" type="line"/>
      <point x="254" y="631" type="line"/>
      <point x="265" y="745" type="line"/>
      <point x="265" y="829" type="line"/>
      <point x="228" y="829" type="line"/>
      <point x="228" y="745" type="line"/>
      <point x="239" y="631" type="line"/>
    </contour>
    <contour>
      <point x="245" y="625" type="line"/>
      <point x="249" y="638" type="line"/>
      <point x="145" y="683" type="line"/>
      <point x="64" y="708" type="line"/>
      <point x="53" y="674" type="line"/>
      <point x="133" y="649" type="line"/>
    </contour>
    <contour>
      <point x="145" y="461" type="line"/>
      <point x="194" y="528" type="line"/>
      <point x="251" y="628" type="line"/>
      <point x="240" y="636" type="line"/>
      <point x="164" y="550" type="line"/>
      <point x="116" y="481" type="line"/>
    </contour>
    <contour>
      <point x="348" y="461" type="line"/>
      <point x="377" y="481" type="line"/>
      <point x="328" y="550" type="line"/>
      <point x="252" y="636" type="line"/>
      <point x="241" y="628" type="line"/>
      <point x="299" y="528" type="line"/>
    </contour>
    <contour>
      <point x="439" y="674" type="line"/>
      <point x="428" y="708" type="line"/>
      <point x="348" y="683" type="line"/>
      <point x="243" y="638" type="line"/>
      <point x="247" y="625" type="line"/>
      <point x="360" y="649" type="line"/>
    </contour>
  </outline>
</glyph>
<glyph name="plus" format="1">
  <advance width="475"/>
  <unicode hex="002B"/>
  <outline>
    <contour>
      <point x="54" y="351" type="line"/>
      <point x="421" y="351" type="line"/>
      <point x="421" y="389" type="line"/>
      <point x="54" y="389" type="line"/>
    </contour>
    <contour>
      <point x="219" y="177" type="line"/>
      <point x="256" y="177" type="line"/>
      <point x="256" y="563" type="line"/>
      <point x="219" y="563" type="line"/>
    </contour>
  </outline>
</glyph>
<glyph name="comma" format="1">
  <advance width="205"/>
  <unicode hex="002C"/>
  <outline>
    <contour>
      <point x="71" y="-155" type="line"/>
      <point x="128" y="65" type="line"/>
      <point x="84" y="65" type="line"/>
      <point x="37" y="-145" type="line"/>
    </contour>
  </outline>
</glyph>
<glyph name="period" format="1">
  <advance width="212"/>
  <unicode hex="002E"/>
  <outline>
    <contour>
      <point x="106" y="-1" type="curve" smooth="yes"/>
      <point x="127" y="-1"/>
      <point x="141" y="11"/>
      <point x="141" y="32" type="curve" smooth="yes"/>
      <point x="141" y="53"/>
      <point x="127" y="67"/>
      <point x="106" y="67" type="curve" smooth="yes"/>
      <point x="85" y="67"/>
      <point x="72" y="54"/>
      <point x="72" y="32" type="curve" smooth="yes"/>
      <point x="72" y="11"/>
      <point x="85" y="-1"/>
    </contour>
  </outline>
</glyph>
<glyph name="slash" format="1">
  <advance width="356"/>
  <unicode hex="002F"/>
  <outline>
    <contour>
      <point x="35" y="-120" type="line"/>
      <point x="75" y="-120" type="line"/>
      <point x="320" y="740" type="line"/>
      <point x="281" y="740" type="line"/>
    </contour>
  </outline>
</glyph>
<glyph name="zero" format="1">
  <advance width="630"/>
  <unicode hex="0030"/>
  <outline>
    <contour>
      <point x="315" y="-11" type="curve" smooth="yes"/>
      <point x="482" y="-11"/>
      <point x="569" y="119"/>
      <point x="569" y="369" type="curve" smooth="yes"/>
      <point x="569" y="619"/>
      <point x="482" y="750"/>
      <point x="315" y="750" type="curve" smooth="yes"/>
      <point x="148" y="750"/>
      <point x="61" y="619"/>
      <point x="61" y="369" type="curve" smooth="yes"/>
      <point x="61" y="119"/>
      <point x="148" y="-11"/>
    </contour>
    <contour>
      <point x="315" y="27" type="curve" smooth="yes"/>
      <point x="174" y="27"/>
      <point x="102" y="144"/>
      <point x="102" y="369" type="curve" smooth="yes"/>
      <point x="102" y="593"/>
      <point x="175" y="711"/>
      <point x="315" y="711" type="curve" smooth="yes"/>
      <point x="455" y="711"/>
      <point x="529" y="593"/>
      <point x="529" y="369" type="curve" smooth="yes"/>
      <point x="529" y="145"/>
      <point x="455" y="27"/>
    </contour>
  </outline>
</glyph>
<glyph name="one" format="1">
  <advance width="367"/>
  <unicode hex="0031"/>
  <outline>
    <contour>
      <point x="224" y="0" type="line"/>
      <point x="265" y="0" type="line"/>
      <point x="265" y="740" type="line"/>
      <point x="235" y="740" type="line"/>
      <point x="28" y="610" type="line"/>
      <point x="28" y="606" type="line"/>
      <point x="37" y="581" type="line"/>
      <point x="43" y="581" type="line"/>
      <point x="221" y="684" type="line"/>
      <point x="224" y="684" type="line"/>
    </contour>
  </outline>
</glyph>
<glyph name="two" format="1">
  <advance width="514"/>
  <unicode hex="0032"/>
  <outline>
    <contour>
      <point x="52" y="2" type="line"/>
      <point x="456" y="2" type="line"/>
      <point x="456" y="41" type="line"/>
      <point x="93" y="41" type="line"/>
      <point x="93" y="96" type="line" smooth="yes"/>
      <point x="93" y="196"/>
      <point x="140" y="257"/>
      <point x="276" y="338" type="curve" smooth="yes"/>
      <point x="408" y="417"/>
      <point x="452" y="473"/>
      <point x="452" y="564" type="curve" smooth="yes"/>
      <point x="452" y="685"/>
      <point x="385" y="748"/>
      <point x="253" y="748" type="curve" smooth="yes"/>
      <point x="198" y="748"/>
      <point x="140" y="740"/>
      <point x="73" y="722" type="curve"/>
      <point x="81" y="683" type="line"/>
      <point x="148" y="701"/>
      <point x="203" y="709"/>
      <point x="252" y="709" type="curve" smooth="yes"/>
      <point x="358" y="709"/>
      <point x="412" y="660"/>
      <point x="412" y="563" type="curve" smooth="yes"/>
      <point x="412" y="490"/>
      <point x="370" y="439"/>
      <point x="254" y="370" type="curve" smooth="yes"/>
      <point x="107" y="284"/>
      <point x="52" y="209"/>
      <point x="52" y="94" type="curve" smooth="yes"/>
    </contour>
  </outline>
</glyph>
<glyph name="three" format="1">
  <advance width="491"/>
  <unicode hex="0033"/>
  <outline>
    <contour>
      <point x="189" y="-9" type="curve" smooth="yes"/>
      <point x="345" y="-9"/>
      <point x="432" y="65"/>
      <point x="432" y="198" type="curve" smooth="yes"/>
      <point x="432" y="296"/>
      <point x="384" y="360"/>
      <point x="297" y="378" type="curve"/>
      <point x="297" y="382" type="line"/>
      <point x="370" y="404"/>
      <point x="412" y="465"/>
      <point x="412" y="552" type="curve" smooth="yes"/>
      <point x="412" y="677"/>
      <point x="332" y="750"/>
      <point x="195" y="750" type="curve" smooth="yes"/>
      <point x="147" y="750"/>
      <point x="101" y="745"/>
      <point x="59" y="735" type="curve"/>
      <point x="61" y="699" type="line"/>
      <point x="66" y="699" type="line"/>
      <point x="120" y="707"/>
      <point x="164" y="712"/>
      <point x="194" y="712" type="curve" smooth="yes"/>
      <point x="309" y="712"/>
      <point x="370" y="657"/>
      <point x="370" y="553" type="curve" smooth="yes"/>
      <point x="370" y="453"/>
      <point x="309" y="396"/>
      <point x="200" y="396" type="curve" smooth="yes"/>
      <point x="136" y="396" type="line"/>
      <point x="136" y="359" type="line"/>
      <point x="201" y="359" type="line" smooth="yes"/>
      <point x="325" y="359"/>
      <point x="390" y="304"/>
      <point x="390" y="201" type="curve" smooth="yes"/>
      <point x="390" y="91"/>
      <point x="316" y="28"/>
      <point x="188" y="28" type="curve" smooth="yes"/>
      <point x="151" y="28"/>
      <point x="96" y="34"/>
      <point x="65" y="41" type="curve"/>
      <point x="60" y="41" type="line"/>
      <point x="60" y="4" type="line"/>
      <point x="104" y="-5"/>
      <point x="149" y="-9"/>
    </contour>
  </outline>
</glyph>
<glyph name="four" format="1">
  <advance width="567"/>
  <unicode hex="0034"/>
  <outline>
    <contour>
      <point x="45" y="191" type="line"/>
      <point x="535" y="191" type="line"/>
      <point x="535" y="228" type="line"/>
      <point x="78" y="228" type="line"/>
      <point x="78" y="233" type="line"/>
      <point x="310" y="735" type="line"/>
      <point x="310" y="740" type="line"/>
      <point x="281" y="750" type="line"/>
      <point x="276" y="750" type="line"/>
      <point x="27" y="216" type="line"/>
      <point x="27" y="212" type="line"/>
    </contour>
    <contour>
      <point x="384" y="0" type="line"/>
      <point x="424" y="0" type="line"/>
      <point x="424" y="506" type="line"/>
      <point x="398" y="506" type="line"/>
      <point x="384" y="232" type="line"/>
    </contour>
  </outline>
</glyph>
<glyph name="five" format="1">
  <advance width="500"/>
  <unicode hex="0035"/>
  <outline>
    <contour>
      <point x="194" y="-11" type="curve" smooth="yes"/>
      <point x="358" y="-11"/>
      <point x="448" y="58"/>
      <point x="448" y="213" type="curve" smooth="yes"/>
      <point x="448" y="370"/>
      <point x="347" y="423"/>
      <point x="106" y="423" type="curve"/>
      <point x="116" y="396" type="line"/>
      <point x="138" y="717" type="line"/>
      <point x="118" y="702" type="line"/>
      <point x="420" y="702" type="line"/>
      <point x="420" y="740" type="line"/>
      <point x="102" y="740" type="line"/>
      <point x="76" y="391" type="line"/>
      <point x="80" y="386" type="line"/>
      <point x="155" y="385" type="line" smooth="yes"/>
      <point x="327" y="382"/>
      <point x="407" y="335"/>
      <point x="407" y="213" type="curve" smooth="yes"/>
      <point x="407" y="82"/>
      <point x="335" y="28"/>
      <point x="192" y="28" type="curve" smooth="yes"/>
      <point x="152" y="28"/>
      <point x="108" y="32"/>
      <point x="63" y="42" type="curve"/>
      <point x="56" y="42" type="line"/>
      <point x="56" y="4" type="line"/>
      <point x="102" y="-6"/>
      <point x="151" y="-11"/>
    </contour>
  </outline>
</glyph>
<glyph name="six" format="1">
  <advance width="584"/>
  <unicode hex="0036"/>
  <outline>
    <contour>
      <point x="308" y="-12" type="curve" smooth="yes"/>
      <point x="446" y="-12"/>
      <point x="538" y="86"/>
      <point x="538" y="233" type="curve" smooth="yes"/>
      <point x="538" y="365"/>
      <point x="450" y="446"/>
      <point x="309" y="446" type="curve" smooth="yes"/>
      <point x="231" y="446"/>
      <point x="137" y="404"/>
      <point x="74" y="339" type="curve"/>
      <point x="99" y="320" type="line"/>
      <point x="158" y="374"/>
      <point x="240" y="409"/>
      <point x="307" y="409" type="curve" smooth="yes"/>
      <point x="425" y="409"/>
      <point x="496" y="343"/>
      <point x="496" y="232" type="curve" smooth="yes"/>
      <point x="496" y="108"/>
      <point x="422" y="26"/>
      <point x="308" y="26" type="curve" smooth="yes"/>
      <point x="169" y="26"/>
      <point x="101" y="123"/>
      <point x="101" y="324" type="curve" smooth="yes"/>
      <point x="101" y="568"/>
      <point x="202" y="714"/>
      <point x="371" y="714" type="curve" smooth="yes"/>
      <point x="411" y="714"/>
      <point x="444" y="709"/>
      <point x="489" y="696" type="curve"/>
      <point x="490" y="736" type="line"/>
      <point x="446" y="747"/>
      <point x="409" y="752"/>
      <point x="371" y="752" type="curve" smooth="yes"/>
      <point x="174" y="752"/>
      <point x="60" y="594"/>
      <point x="60" y="324" type="curve" smooth="yes"/>
      <point x="60" y="101"/>
      <point x="144" y="-12"/>
    </contour>
  </outline>
</glyph>
<glyph name="seven" format="1">
  <advance width="457"/>
  <unicode hex="0037"/>
  <outline>
    <contour>
      <point x="152" y="-10" type="line"/>
      <point x="120" y="0" type="line"/>
      <point x="120" y="11" type="line"/>
      <point x="403" y="726" type="line"/>
      <point x="407" y="701" type="line"/>
      <point x="33" y="701" type="line"/>
      <point x="28" y="736" type="line"/>
      <point x="29" y="740" type="line"/>
      <point x="420" y="740" type="line"/>
      <point x="432" y="719" type="line"/>
      <point x="432" y="690" type="line"/>
      <point x="163" y="-2" type="line"/>
    </contour>
  </outline>
</glyph>
<glyph name="eight" format="1">
  <advance width="582"/>
  <unicode hex="0038"/>
  <outline>
    <contour>
      <point x="290" y="-4" type="curve" smooth="yes"/>
      <point x="431" y="-4"/>
      <point x="525" y="64"/>
      <point x="525" y="186" type="curve" smooth="yes"/>
      <point x="525" y="314"/>
      <point x="425" y="357"/>
      <point x="311" y="391" type="curve" smooth="yes"/>
      <point x="208" y="422"/>
      <point x="121" y="457"/>
      <point x="121" y="565" type="curve" smooth="yes"/>
      <point x="121" y="664"/>
      <point x="192" y="712"/>
      <point x="290" y="712" type="curve" smooth="yes"/>
      <point x="389" y="712"/>
      <point x="459" y="665"/>
      <point x="459" y="564" type="curve" smooth="yes"/>
      <point x="459" y="435"/>
      <point x="346" y="391"/>
      <point x="322" y="383" type="curve"/>
      <point x="340" y="355" type="line"/>
      <point x="366" y="365"/>
      <point x="498" y="413"/>
      <point x="498" y="564" type="curve" smooth="yes"/>
      <point x="498" y="691"/>
      <point x="413" y="750"/>
      <point x="291" y="750" type="curve" smooth="yes"/>
      <point x="168" y="750"/>
      <point x="81" y="689"/>
      <point x="81" y="565" type="curve" smooth="yes"/>
      <point x="81" y="431"/>
      <point x="182" y="391"/>
      <point x="298" y="356" type="curve" smooth="yes"/>
      <point x="401" y="326"/>
      <point x="485" y="293"/>
      <point x="485" y="186" type="curve" smooth="yes"/>
      <point x="485" y="88"/>
      <point x="406" y="34"/>
      <point x="290" y="34" type="curve" smooth="yes"/>
      <point x="175" y="34"/>
      <point x="98" y="85"/>
      <point x="98" y="190" type="curve" smooth="yes"/>
      <point x="98" y="330"/>
      <point x="220" y="366"/>
      <point x="246" y="377" type="curve"/>
      <point x="231" y="406" type="line"/>
      <point x="203" y="395"/>
      <point x="59" y="353"/>
      <point x="59" y="190" type="curve" smooth="yes"/>
      <point x="59" y="59"/>
      <point x="150" y="-4"/>
    </contour>
  </outline>
</glyph>
<glyph name="less" format="1">
  <advance width="495"/>
  <unicode hex="003C"/>
  <outline>
    <contour>
      <point x="51" y="361" type="line"/>
      <point x="87" y="361" type="line"/>
      <point x="420" y="507" type="line"/>
      <point x="420" y="549" type="line"/>
      <point x="51" y="384" type="line"/>
    </contour>
    <contour>
      <point x="418" y="185" type="line"/>
      <point x="418" y="226" type="line"/>
      <point x="87" y="373" type="line"/>
      <point x="51" y="373" type="line"/>
      <point x="51" y="350" type="line"/>
    </contour>
  </outline>
</glyph>
<glyph name="equal" format="1">
  <advance width="518"/>
  <unicode hex="003D"/>
  <outline>
    <contour>
      <point x="76" y="234" type="line"/>
      <point x="442" y="234" type="line"/>
      <point x="442" y="271" type="line"/>
      <point x="76" y="271" type="line"/>
    </contour>
    <contour>
      <point x="76" y="445" type="line"/>
      <point x="442" y="445" type="line"/>
      <point x="442" y="483" type="line"/>
      <point x="76" y="483" type="line"/>
    </contour>
  </outline>
</glyph>
<glyph name="greater" format="1">
  <advance width="496"/>
  <unicode hex="003E"/>
  <outline>
    <contour>
      <point x="408" y="361" type="line"/>
      <point x="445" y="361" type="line"/>
      <point x="445" y="384" type="line"/>
      <point x="75" y="549" type="line"/>
      <point x="75" y="507" type="line"/>
    </contour>
    <contour>
      <point x="78" y="185" type="line"/>
      <point x="445" y="350" type="line"/>
      <point x="445" y="373" type="line"/>
      <point x="408" y="373" type="line"/>
      <point x="78" y="226" type="line"/>
    </contour>
  </outline>
</glyph>
<glyph name="question" format="1">
  <advance width="432"/>
  <unicode hex="003F"/>
  <outline>
    <contour>
      <point x="150" y="156" type="line"/>
      <point x="188" y="156" type="line"/>
      <point x="188" y="176" type="line"/>
      <point x="187" y="340" type="line"/>
      <point x="273" y="365"/>
      <point x="392" y="409"/>
      <point x="392" y="556" type="curve" smooth="yes"/>
      <point x="392" y="707"/>
      <point x="288" y="752"/>
      <point x="193" y="752" type="curve" smooth="yes"/>
      <point x="136" y="752"/>
      <point x="78" y="739"/>
      <point x="33" y="722" type="curve"/>
      <point x="46" y="688" type="line"/>
      <point x="94" y="703"/>
      <point x="141" y="714"/>
      <point x="191" y="714" type="curve" smooth="yes"/>
      <point x="267" y="714"/>
      <point x="352" y="676"/>
      <point x="352" y="555" type="curve" smooth="yes"/>
      <point x="352" y="426"/>
      <point x="229" y="391"/>
      <point x="149" y="370" type="curve"/>
      <point x="150" y="176" type="line"/>
    </contour>
    <contour>
      <point x="170" y="2" type="curve" smooth="yes"/>
      <point x="190" y="2"/>
      <point x="202" y="13"/>
      <point x="202" y="33" type="curve" smooth="yes"/>
      <point x="202" y="52"/>
      <point x="190" y="65"/>
      <point x="170" y="65" type="curve" smooth="yes"/>
      <point x="150" y="65"/>
      <point x="139" y="53"/>
      <point x="139" y="33" type="curve" smooth="yes"/>
      <point x="139" y="13"/>
      <point x="150" y="2"/>
    </contour>
  </outline>
</glyph>
<glyph name="at" format="1">
  <advance width="883"/>
  <unicode hex="0040"/>
  <outline>
    <contour>
      <point x="428" y="-136" type="curve" smooth="yes"/>
      <point x="492" y="-136"/>
      <point x="564" y="-123"/>
      <point x="638" y="-102" type="curve"/>
      <point x="624" y="-67" type="line"/>
      <point x="555" y="-87"/>
      <point x="487" y="-99"/>
      <point x="428" y="-99" type="curve" smooth="yes"/>
      <point x="228" y="-99"/>
      <point x="93" y="24"/>
      <point x="93" y="261" type="curve" smooth="yes"/>
      <point x="93" y="499"/>
      <point x="234" y="639"/>
      <point x="456" y="639" type="curve" smooth="yes"/>
      <point x="671" y="639"/>
      <point x="780" y="517"/>
      <point x="780" y="306" type="curve" smooth="yes"/>
      <point x="780" y="169"/>
      <point x="734" y="89"/>
      <point x="649" y="89" type="curve" smooth="yes"/>
      <point x="595" y="89"/>
      <point x="573" y="115"/>
      <point x="573" y="169" type="curve" smooth="yes"/>
      <point x="573" y="192"/>
      <point x="578" y="220"/>
      <point x="583" y="251" type="curve" smooth="yes"/>
      <point x="622" y="464" type="line"/>
      <point x="568" y="483"/>
      <point x="521" y="493"/>
      <point x="481" y="493" type="curve" smooth="yes"/>
      <point x="332" y="493"/>
      <point x="232" y="384"/>
      <point x="232" y="230" type="curve" smooth="yes"/>
      <point x="232" y="128"/>
      <point x="279" y="59"/>
      <point x="368" y="59" type="curve" smooth="yes"/>
      <point x="424" y="59"/>
      <point x="495" y="91"/>
      <point x="533" y="145" type="curve"/>
      <point x="539" y="145" type="line"/>
      <point x="546" y="80"/>
      <point x="583" y="53"/>
      <point x="649" y="53" type="curve" smooth="yes"/>
      <point x="759" y="53"/>
      <point x="819" y="146"/>
      <point x="819" y="306" type="curve" smooth="yes"/>
      <point x="819" y="537"/>
      <point x="693" y="675"/>
      <point x="456" y="675" type="curve" smooth="yes"/>
      <point x="211" y="675"/>
      <point x="56" y="522"/>
      <point x="56" y="261" type="curve" smooth="yes"/>
      <point x="56" y="1"/>
      <point x="207" y="-136"/>
    </contour>
    <contour>
      <point x="369" y="94" type="curve" smooth="yes"/>
      <point x="303" y="94"/>
      <point x="269" y="150"/>
      <point x="269" y="230" type="curve" smooth="yes"/>
      <point x="269" y="363"/>
      <point x="355" y="458"/>
      <point x="481" y="458" type="curve" smooth="yes"/>
      <point x="508" y="458"/>
      <point x="541" y="452"/>
      <point x="578" y="440" type="curve"/>
      <point x="546" y="258" type="line" smooth="yes"/>
      <point x="528" y="155"/>
      <point x="446" y="94"/>
    </contour>
  </outline>
</glyph>
<glyph name="A" format="1">
  <advance width="644"/>
  <unicode hex="0041"/>
  <outline>
    <contour>
      <point x="631" y="5" type="move" name="ogonek"/>
    </contour>
    <contour>
      <point x="323" y="763" type="move" name="topUC"/>
    </contour>
    <contour>
      <point x="11" y="0" type="line"/>
      <point x="52" y="0" type="line"/>
      <point x="146" y="246" type="line"/>
      <point x="499" y="246" type="line"/>
      <point x="592" y="0" type="line"/>
      <point x="633" y="0" type="line"/>
      <point x="633" y="5" type="line"/>
      <point x="354" y="740" type="line"/>
      <point x="291" y="740" type="line"/>
      <point x="11" y="5" type="line"/>
    </contour>
    <contour>
      <point x="160" y="284" type="line"/>
      <point x="275" y="587" type="line"/>
      <point x="320" y="707" type="line"/>
      <point x="324" y="707" type="line"/>
      <point x="369" y="587" type="line"/>
      <point x="484" y="284" type="line"/>
    </contour>
  </outline>
</glyph>
<glyph name="B" format="1">
  <advance width="635"/>
  <unicode hex="0042"/>
  <outline>
    <contour>
      <point x="307" y="-10" type="curve" smooth="yes"/>
      <point x="487" y="-10"/>
      <point x="580" y="58"/>
      <point x="580" y="191" type="curve" smooth="yes"/>
      <point x="580" y="292"/>
      <point x="526" y="356"/>
      <point x="427" y="374" type="curve"/>
      <point x="427" y="378" type="line"/>
      <point x="504" y="392"/>
      <point x="556" y="461"/>
      <point x="556" y="553" type="curve" smooth="yes"/>
      <point x="556" y="692"/>
      <point x="483" y="749"/>
      <point x="301" y="749" type="curve" smooth="yes"/>
      <point x="246" y="749"/>
      <point x="191" y="745"/>
      <point x="99" y="735" type="curve"/>
      <point x="99" y="5" type="line"/>
      <point x="171" y="-5"/>
      <point x="246" y="-10"/>
    </contour>
    <contour>
      <point x="307" y="27" type="curve" smooth="yes"/>
      <point x="239" y="27"/>
      <point x="174" y="31"/>
      <point x="138" y="38" type="curve"/>
      <point x="138" y="356" type="line"/>
      <point x="324" y="356" type="line" smooth="yes"/>
      <point x="470" y="356"/>
      <point x="539" y="302"/>
      <point x="539" y="191" type="curve" smooth="yes"/>
      <point x="539" y="80"/>
      <point x="465" y="27"/>
    </contour>
    <contour>
      <point x="138" y="394" type="line"/>
      <point x="138" y="701" type="line"/>
      <point x="185" y="708"/>
      <point x="234" y="711"/>
      <point x="302" y="711" type="curve" smooth="yes"/>
      <point x="456" y="711"/>
      <point x="515" y="666"/>
      <point x="515" y="553" type="curve" smooth="yes"/>
      <point x="515" y="439"/>
      <point x="461" y="394"/>
      <point x="323" y="394" type="curve" smooth="yes"/>
    </contour>
  </outline>
</glyph>
<glyph name="C" format="1">
  <advance width="579"/>
  <unicode hex="0043"/>
  <outline>
    <contour>
      <point x="347" y="763" type="move" name="topUC"/>
    </contour>
    <contour>
      <point x="354" y="-3" type="move" name="bottom"/>
    </contour>
    <contour>
      <point x="372" y="-8" type="curve" smooth="yes"/>
      <point x="419" y="-8"/>
      <point x="493" y="2"/>
      <point x="537" y="14" type="curve"/>
      <point x="537" y="52" type="line"/>
      <point x="495" y="41"/>
      <point x="412" y="31"/>
      <point x="370" y="31" type="curve" smooth="yes"/>
      <point x="193" y="31"/>
      <point x="99" y="147"/>
      <point x="99" y="369" type="curve" smooth="yes"/>
      <point x="99" y="594"/>
      <point x="195" y="710"/>
      <point x="380" y="710" type="curve" smooth="yes"/>
      <point x="422" y="710"/>
      <point x="482" y="703"/>
      <point x="537" y="691" type="curve"/>
      <point x="537" y="730" type="line"/>
      <point x="487" y="741"/>
      <point x="421" y="749"/>
      <point x="378" y="749" type="curve" smooth="yes"/>
      <point x="165" y="749"/>
      <point x="59" y="623"/>
      <point x="59" y="368" type="curve" smooth="yes"/>
      <point x="59" y="120"/>
      <point x="164" y="-7"/>
    </contour>
  </outline>
</glyph>
<glyph name="D" format="1">
  <advance width="702"/>
  <unicode hex="0044"/>
  <outline>
    <contour>
      <point x="316" y="763" type="move" name="topUC"/>
    </contour>
    <contour>
      <point x="329" y="-3" type="move" name="bottom"/>
    </contour>
    <contour>
      <point x="269" y="-11" type="curve" smooth="yes"/>
      <point x="527" y="-11"/>
      <point x="644" y="109"/>
      <point x="644" y="370" type="curve" smooth="yes"/>
      <point x="644" y="629"/>
      <point x="530" y="749"/>
      <point x="281" y="749" type="curve" smooth="yes"/>
      <point x="236" y="749"/>
      <point x="146" y="743"/>
      <point x="99" y="737" type="curve"/>
      <point x="99" y="4" type="line"/>
      <point x="127" y="-6"/>
      <point x="194" y="-11"/>
    </contour>
    <contour>
      <point x="273" y="28" type="curve" smooth="yes"/>
      <point x="225" y="28"/>
      <point x="193" y="30"/>
      <point x="139" y="37" type="curve"/>
      <point x="139" y="701" type="line"/>
      <point x="179" y="706"/>
      <point x="242" y="709"/>
      <point x="281" y="709" type="curve" smooth="yes"/>
      <point x="502" y="709"/>
      <point x="603" y="604"/>
      <point x="603" y="370" type="curve" smooth="yes"/>
      <point x="603" y="138"/>
      <point x="497" y="28"/>
    </contour>
  </outline>
</glyph>
<glyph name="E" format="1">
  <advance width="592"/>
  <unicode hex="0045"/>
  <outline>
    <contour>
      <point x="535" y="1" type="move" name="ogonek"/>
    </contour>
    <contour>
      <point x="316" y="763" type="move" name="topUC"/>
    </contour>
    <contour>
      <point x="334" y="-3" type="move" name="bottom"/>
    </contour>
    <contour>
      <point x="99" y="0" type="line"/>
      <point x="537" y="0" type="line"/>
      <point x="537" y="38" type="line"/>
      <point x="139" y="38" type="line"/>
      <point x="139" y="702" type="line"/>
      <point x="529" y="702" type="line"/>
      <point x="529" y="740" type="line"/>
      <point x="99" y="740" type="line"/>
    </contour>
    <contour>
      <point x="121" y="358" type="line"/>
      <point x="507" y="358" type="line"/>
      <point x="507" y="396" type="line"/>
      <point x="121" y="396" type="line"/>
    </contour>
  </outline>
</glyph>
<glyph name="F" format="1">
  <advance width="561"/>
  <unicode hex="0046"/>
  <outline>
    <contour>
      <point x="99" y="0" type="line"/>
      <point x="139" y="0" type="line"/>
      <point x="139" y="702" type="line"/>
      <point x="524" y="702" type="line"/>
      <point x="524" y="740" type="line"/>
      <point x="99" y="740" type="line"/>
    </contour>
    <contour>
      <point x="121" y="357" type="line"/>
      <point x="492" y="357" type="line"/>
      <point x="492" y="396" type="line"/>
      <point x="121" y="396" type="line"/>
    </contour>
  </outline>
</glyph>
<glyph name="G" format="1">
  <advance width="638"/>
  <unicode hex="0047"/>
  <outline>
    <contour>
      <point x="354" y="763" type="move" name="topUC"/>
    </contour>
    <contour>
      <point x="354" y="-3" type="move" name="bottom"/>
    </contour>
    <contour>
      <point x="382" y="-8" type="curve" smooth="yes"/>
      <point x="435" y="-8"/>
      <point x="509" y="3"/>
      <point x="567" y="20" type="curve"/>
      <point x="545" y="53" type="line"/>
      <point x="501" y="42"/>
      <point x="422" y="31"/>
      <point x="381" y="31" type="curve" smooth="yes"/>
      <point x="197" y="31"/>
      <point x="99" y="147"/>
      <point x="99" y="369" type="curve" smooth="yes"/>
      <point x="99" y="594"/>
      <point x="200" y="710"/>
      <point x="391" y="710" type="curve" smooth="yes"/>
      <point x="445" y="710"/>
      <point x="486" y="704"/>
      <point x="563" y="685" type="curve"/>
      <point x="563" y="724" type="line"/>
      <point x="499" y="741"/>
      <point x="441" y="749"/>
      <point x="390" y="749" type="curve" smooth="yes"/>
      <point x="169" y="749"/>
      <point x="59" y="622"/>
      <point x="59" y="368" type="curve" smooth="yes"/>
      <point x="59" y="120"/>
      <point x="168" y="-7"/>
    </contour>
    <contour>
      <point x="528" y="19" type="line"/>
      <point x="567" y="20" type="line"/>
      <point x="567" y="376" type="line"/>
      <point x="528" y="376" type="line"/>
    </contour>
  </outline>
</glyph>
<glyph name="H" format="1">
  <advance width="738"/>
  <unicode hex="0048"/>
  <outline>
    <contour>
      <point x="361" y="763" type="move" name="topUC"/>
    </contour>
    <contour>
      <point x="380" y="-3" type="move" name="bottom"/>
    </contour>
    <contour>
      <point x="99" y="0" type="line"/>
      <point x="139" y="0" type="line"/>
      <point x="139" y="360" type="line"/>
      <point x="599" y="360" type="line"/>
      <point x="599" y="0" type="line"/>
      <point x="640" y="0" type="line"/>
      <point x="640" y="740" type="line"/>
      <point x="599" y="740" type="line"/>
      <point x="599" y="398" type="line"/>
      <point x="139" y="398" type="line"/>
      <point x="139" y="740" type="line"/>
      <point x="99" y="740" type="line"/>
    </contour>
  </outline>
</glyph>
<glyph name="I" format="1">
  <advance width="237"/>
  <unicode hex="0049"/>
  <outline>
    <contour>
      <point x="136" y="1" type="move" name="ogonek"/>
    </contour>
    <contour>
      <point x="120" y="763" type="move" name="topUC"/>
    </contour>
    <contour>
      <point x="120" y="-3" type="move" name="bottom"/>
    </contour>
    <contour>
      <point x="99" y="0" type="line"/>
      <point x="139" y="0" type="line"/>
      <point x="139" y="740" type="line"/>
      <point x="99" y="740" type="line"/>
    </contour>
  </outline>
</glyph>
<glyph name="J" format="1">
  <advance width="237"/>
  <unicode hex="004A"/>
  <outline>
    <contour>
      <point x="122" y="763" type="move" name="topUC"/>
    </contour>
    <contour>
      <point x="52" y="-178" type="line"/>
      <point x="119" y="-35"/>
      <point x="141" y="50"/>
      <point x="141" y="180" type="curve" smooth="yes"/>
      <point x="141" y="740" type="line"/>
      <point x="101" y="740" type="line"/>
      <point x="101" y="181" type="line" smooth="yes"/>
      <point x="101" y="46"/>
      <point x="82" y="-33"/>
      <point x="20" y="-160" type="curve"/>
    </contour>
  </outline>
</glyph>
<glyph name="K" format="1">
  <advance width="632"/>
  <unicode hex="004B"/>
  <outline>
    <contour>
      <point x="329" y="-3" type="move" name="bottom"/>
    </contour>
    <contour>
      <point x="99" y="0" type="line"/>
      <point x="139" y="0" type="line"/>
      <point x="139" y="359" type="line"/>
      <point x="305" y="359" type="line"/>
      <point x="571" y="0" type="line"/>
      <point x="621" y="0" type="line"/>
      <point x="359" y="352" type="line"/>
      <point x="332" y="376" type="line"/>
      <point x="332" y="382" type="line"/>
      <point x="356" y="406" type="line"/>
      <point x="603" y="740" type="line"/>
      <point x="553" y="740" type="line"/>
      <point x="300" y="397" type="line"/>
      <point x="139" y="397" type="line"/>
      <point x="139" y="740" type="line"/>
      <point x="99" y="740" type="line"/>
    </contour>
  </outline>
</glyph>
<glyph name="L" format="1">
  <advance width="503"/>
  <unicode hex="004C"/>
  <outline>
    <contour>
      <point x="125" y="763" type="move" name="topUC"/>
    </contour>
    <contour>
      <point x="410" y="370" type="move" name="periodcentered"/>
    </contour>
    <contour>
      <point x="421" y="738" type="move" name="caronalt"/>
    </contour>
    <contour>
      <point x="295" y="-3" type="move" name="bottom"/>
    </contour>
    <contour>
      <point x="99" y="0" type="line"/>
      <point x="488" y="0" type="line"/>
      <point x="488" y="38" type="line"/>
      <point x="139" y="38" type="line"/>
      <point x="139" y="740" type="line"/>
      <point x="99" y="740" type="line"/>
    </contour>
  </outline>
</glyph>
<glyph name="M" format="1">
  <advance width="891"/>
  <unicode hex="004D"/>
  <outline>
    <contour>
      <point x="99" y="0" type="line"/>
      <point x="138" y="0" type="line"/>
      <point x="138" y="674" type="line"/>
      <point x="143" y="675" type="line"/>
      <point x="234" y="462" type="line"/>
      <point x="422" y="30" type="line"/>
      <point x="469" y="30" type="line"/>
      <point x="657" y="462" type="line"/>
      <point x="748" y="675" type="line"/>
      <point x="753" y="674" type="line"/>
      <point x="753" y="0" type="line"/>
      <point x="793" y="0" type="line"/>
      <point x="793" y="740" type="line"/>
      <point x="738" y="740" type="line"/>
      <point x="516" y="233" type="line"/>
      <point x="448" y="71" type="line"/>
      <point x="442" y="71" type="line"/>
      <point x="375" y="233" type="line"/>
      <point x="154" y="740" type="line"/>
      <point x="99" y="740" type="line"/>
    </contour>
  </outline>
</glyph>
<glyph name="N" format="1">
  <advance width="761"/>
  <unicode hex="004E"/>
  <outline>
    <contour>
      <point x="382" y="763" type="move" name="topUC"/>
    </contour>
    <contour>
      <point x="389" y="-3" type="move" name="bottom"/>
    </contour>
    <contour>
      <point x="99" y="0" type="line"/>
      <point x="138" y="0" type="line"/>
      <point x="138" y="673" type="line"/>
      <point x="143" y="673" type="line"/>
      <point x="198" y="588" type="line"/>
      <point x="622" y="0" type="line"/>
      <point x="662" y="0" type="line"/>
      <point x="662" y="740" type="line"/>
      <point x="623" y="740" type="line"/>
      <point x="623" y="66" type="line"/>
      <point x="618" y="66" type="line"/>
      <point x="558" y="156" type="line"/>
      <point x="138" y="740" type="line"/>
      <point x="99" y="740" type="line"/>
    </contour>
  </outline>
</glyph>
<glyph name="O" format="1">
  <advance width="720"/>
  <unicode hex="004F"/>
  <outline>
    <contour>
      <point x="439" y="21" type="move" name="ogonek"/>
    </contour>
    <contour>
      <point x="360" y="763" type="move" name="topUC"/>
    </contour>
    <contour>
      <point x="358" y="-3" type="move" name="bottom"/>
    </contour>
    <contour>
      <point x="360" y="-10" type="curve" smooth="yes"/>
      <point x="551" y="-10"/>
      <point x="661" y="121"/>
      <point x="661" y="369" type="curve" smooth="yes"/>
      <point x="661" y="618"/>
      <point x="551" y="750"/>
      <point x="360" y="750" type="curve" smooth="yes"/>
      <point x="169" y="750"/>
      <point x="59" y="618"/>
      <point x="59" y="369" type="curve" smooth="yes"/>
      <point x="59" y="120"/>
      <point x="169" y="-10"/>
    </contour>
    <contour>
      <point x="360" y="29" type="curve" smooth="yes"/>
      <point x="192" y="29"/>
      <point x="99" y="148"/>
      <point x="99" y="369" type="curve" smooth="yes"/>
      <point x="99" y="592"/>
      <point x="191" y="711"/>
      <point x="360" y="711" type="curve" smooth="yes"/>
      <point x="528" y="711"/>
      <point x="621" y="591"/>
      <point x="621" y="369" type="curve" smooth="yes"/>
      <point x="621" y="150"/>
      <point x="527" y="29"/>
    </contour>
  </outline>
</glyph>
<glyph name="P" format="1">
  <advance width="614"/>
  <unicode hex="0050"/>
  <outline>
    <contour>
      <point x="266" y="250" type="curve" smooth="yes"/>
      <point x="480" y="250"/>
      <point x="572" y="326"/>
      <point x="572" y="501" type="curve" smooth="yes"/>
      <point x="572" y="674"/>
      <point x="477" y="750"/>
      <point x="262" y="750" type="curve" smooth="yes"/>
      <point x="211" y="750"/>
      <point x="156" y="745"/>
      <point x="99" y="735" type="curve"/>
      <point x="99" y="265" type="line"/>
      <point x="171" y="255"/>
      <point x="222" y="250"/>
    </contour>
    <contour>
      <point x="270" y="289" type="curve" smooth="yes"/>
      <point x="224" y="289"/>
      <point x="162" y="294"/>
      <point x="139" y="299" type="curve"/>
      <point x="139" y="702" type="line"/>
      <point x="173" y="708"/>
      <point x="223" y="712"/>
      <point x="265" y="712" type="curve" smooth="yes"/>
      <point x="452" y="712"/>
      <point x="532" y="648"/>
      <point x="532" y="501" type="curve" smooth="yes"/>
      <point x="532" y="349"/>
      <point x="457" y="289"/>
    </contour>
    <contour>
      <point x="99" y="0" type="line"/>
      <point x="139" y="0" type="line"/>
      <point x="139" y="689" type="line"/>
      <point x="99" y="689" type="line"/>
    </contour>
  </outline>
</glyph>
<glyph name="Q" format="1">
  <advance width="716"/>
  <unicode hex="0051"/>
  <outline>
    <contour>
      <point x="643" y="-97" type="curve"/>
      <point x="649" y="-55" type="line"/>
      <point x="540" y="-47"/>
      <point x="450" y="-34"/>
      <point x="353" y="-8" type="curve"/>
      <point x="353" y="-4" type="line"/>
      <point x="550" y="-4"/>
      <point x="659" y="128"/>
      <point x="659" y="369" type="curve" smooth="yes"/>
      <point x="659" y="614"/>
      <point x="551" y="750"/>
      <point x="357" y="750" type="curve" smooth="yes"/>
      <point x="163" y="750"/>
      <point x="56" y="614"/>
      <point x="56" y="369" type="curve" smooth="yes"/>
      <point x="56" y="63"/>
      <point x="203" y="-41"/>
    </contour>
    <contour>
      <point x="357" y="29" type="curve" smooth="yes"/>
      <point x="189" y="29"/>
      <point x="96" y="149"/>
      <point x="96" y="369" type="curve" smooth="yes"/>
      <point x="96" y="592"/>
      <point x="189" y="711"/>
      <point x="357" y="711" type="curve" smooth="yes"/>
      <point x="525" y="711"/>
      <point x="618" y="591"/>
      <point x="618" y="369" type="curve" smooth="yes"/>
      <point x="618" y="150"/>
      <point x="525" y="29"/>
    </contour>
  </outline>
</glyph>
<glyph name="R" format="1">
  <advance width="634"/>
  <unicode hex="0052"/>
  <outline>
    <contour>
      <point x="320" y="763" type="move" name="topUC"/>
    </contour>
    <contour>
      <point x="325" y="-3" type="move" name="bottom"/>
    </contour>
    <contour>
      <point x="99" y="0" type="line"/>
      <point x="139" y="0" type="line"/>
      <point x="139" y="297" type="line"/>
      <point x="187" y="291"/>
      <point x="229" y="287"/>
      <point x="266" y="287" type="curve" smooth="yes"/>
      <point x="480" y="287"/>
      <point x="572" y="357"/>
      <point x="572" y="519" type="curve" smooth="yes"/>
      <point x="572" y="680"/>
      <point x="478" y="750"/>
      <point x="262" y="750" type="curve" smooth="yes"/>
      <point x="210" y="750"/>
      <point x="155" y="745"/>
      <point x="99" y="735" type="curve"/>
    </contour>
    <contour>
      <point x="270" y="326" type="curve" smooth="yes"/>
      <point x="219" y="326"/>
      <point x="162" y="331"/>
      <point x="139" y="336" type="curve"/>
      <point x="139" y="702" type="line"/>
      <point x="175" y="708"/>
      <point x="224" y="712"/>
      <point x="265" y="712" type="curve" smooth="yes"/>
      <point x="451" y="712"/>
      <point x="532" y="653"/>
      <point x="532" y="519" type="curve" smooth="yes"/>
      <point x="532" y="382"/>
      <point x="457" y="326"/>
    </contour>
    <contour>
      <point x="545" y="0" type="line"/>
      <point x="591" y="0" type="line"/>
      <point x="392" y="318" type="line"/>
      <point x="355" y="306" type="line"/>
    </contour>
  </outline>
</glyph>
<glyph name="S" format="1">
  <advance width="547"/>
  <unicode hex="0053"/>
  <outline>
    <contour>
      <point x="282" y="763" type="move" name="topUC"/>
    </contour>
    <contour>
      <point x="286" y="-1" type="move" name="bottom"/>
    </contour>
    <contour>
      <point x="259" y="-11" type="curve" smooth="yes"/>
      <point x="414" y="-11"/>
      <point x="504" y="59"/>
      <point x="504" y="181" type="curve" smooth="yes"/>
      <point x="504" y="317"/>
      <point x="405" y="356"/>
      <point x="286" y="394" type="curve" smooth="yes"/>
      <point x="148" y="436"/>
      <point x="101" y="478"/>
      <point x="101" y="562" type="curve" smooth="yes"/>
      <point x="101" y="656"/>
      <point x="178" y="718"/>
      <point x="294" y="718" type="curve" smooth="yes"/>
      <point x="343" y="718"/>
      <point x="405" y="710"/>
      <point x="467" y="694" type="curve"/>
      <point x="469" y="734" type="line"/>
      <point x="406" y="748"/>
      <point x="344" y="757"/>
      <point x="293" y="757" type="curve" smooth="yes"/>
      <point x="154" y="757"/>
      <point x="61" y="679"/>
      <point x="61" y="562" type="curve" smooth="yes"/>
      <point x="61" y="457"/>
      <point x="115" y="404"/>
      <point x="270" y="357" type="curve" smooth="yes"/>
      <point x="376" y="322"/>
      <point x="463" y="290"/>
      <point x="463" y="180" type="curve" smooth="yes"/>
      <point x="463" y="83"/>
      <point x="388" y="28"/>
      <point x="259" y="28" type="curve" smooth="yes"/>
      <point x="202" y="28"/>
      <point x="115" y="40"/>
      <point x="48" y="58" type="curve"/>
      <point x="46" y="20" type="line"/>
      <point x="116" y="1"/>
      <point x="199" y="-11"/>
    </contour>
  </outline>
</glyph>
<glyph name="T" format="1">
  <advance width="575"/>
  <unicode hex="0054"/>
  <outline>
    <contour>
      <point x="289" y="763" type="move" name="topUC"/>
    </contour>
    <contour>
      <point x="289" y="-3" type="move" name="bottom"/>
    </contour>
    <contour>
      <point x="267" y="0" type="line"/>
      <point x="308" y="0" type="line"/>
      <point x="308" y="702" type="line"/>
      <point x="560" y="702" type="line"/>
      <point x="560" y="740" type="line"/>
      <point x="15" y="740" type="line"/>
      <point x="15" y="702" type="line"/>
      <point x="267" y="702" type="line"/>
    </contour>
  </outline>
</glyph>
<glyph name="U" format="1">
  <advance width="729"/>
  <unicode hex="0055"/>
  <outline>
    <contour>
      <point x="432" y="10" type="move" name="ogonek"/>
    </contour>
    <contour>
      <point x="362" y="763" type="move" name="topUC"/>
    </contour>
    <contour>
      <point x="361" y="-3" type="move" name="bottom"/>
    </contour>
    <contour>
      <point x="365" y="-10" type="curve" smooth="yes"/>
      <point x="551" y="-10"/>
      <point x="638" y="78"/>
      <point x="638" y="296" type="curve" smooth="yes"/>
      <point x="638" y="739" type="line"/>
      <point x="598" y="739" type="line"/>
      <point x="598" y="301" type="line" smooth="yes"/>
      <point x="598" y="101"/>
      <point x="519" y="29"/>
      <point x="365" y="29" type="curve" smooth="yes"/>
      <point x="210" y="29"/>
      <point x="131" y="101"/>
      <point x="131" y="301" type="curve" smooth="yes"/>
      <point x="131" y="739" type="line"/>
      <point x="91" y="739" type="line"/>
      <point x="91" y="296" type="line" smooth="yes"/>
      <point x="91" y="78"/>
      <point x="178" y="-10"/>
    </contour>
  </outline>
</glyph>
<glyph name="V" format="1">
  <advance width="646"/>
  <unicode hex="0056"/>
  <outline>
    <contour>
      <point x="295" y="0" type="line"/>
      <point x="351" y="0" type="line"/>
      <point x="633" y="740" type="line"/>
      <point x="590" y="740" type="line"/>
      <point x="376" y="180" type="line"/>
      <point x="324" y="44" type="line"/>
      <point x="321" y="44" type="line"/>
      <point x="269" y="180" type="line"/>
      <point x="56" y="740" type="line"/>
      <point x="13" y="740" type="line"/>
    </contour>
  </outline>
</glyph>
<glyph name="W" format="1">
  <advance width="972"/>
  <unicode hex="0057"/>
  <outline>
    <contour>
      <point x="487" y="763" type="move" name="topUC"/>
    </contour>
    <contour>
      <point x="235" y="0" type="line"/>
      <point x="290" y="0" type="line"/>
      <point x="453" y="560" type="line"/>
      <point x="485" y="674" type="line"/>
      <point x="489" y="674" type="line"/>
      <point x="520" y="562" type="line"/>
      <point x="680" y="0" type="line"/>
      <point x="735" y="0" type="line"/>
      <point x="950" y="740" type="line"/>
      <point x="908" y="740" type="line"/>
      <point x="751" y="196" type="line"/>
      <point x="709" y="49" type="line"/>
      <point x="705" y="49" type="line"/>
      <point x="664" y="196" type="line"/>
      <point x="509" y="740" type="line"/>
      <point x="465" y="740" type="line"/>
      <point x="307" y="196" type="line"/>
      <point x="265" y="49" type="line"/>
      <point x="261" y="49" type="line"/>
      <point x="220" y="196" type="line"/>
      <point x="66" y="740" type="line"/>
      <point x="24" y="740" type="line"/>
    </contour>
  </outline>
</glyph>
<glyph name="X" format="1">
  <advance width="635"/>
  <unicode hex="0058"/>
  <outline>
    <contour>
      <point x="12" y="0" type="line"/>
      <point x="62" y="0" type="line"/>
      <point x="307" y="333" type="line"/>
      <point x="314" y="347" type="line"/>
      <point x="318" y="347" type="line"/>
      <point x="326" y="333" type="line"/>
      <point x="573" y="0" type="line"/>
      <point x="623" y="0" type="line"/>
      <point x="344" y="376" type="line"/>
      <point x="610" y="740" type="line"/>
      <point x="561" y="740" type="line"/>
      <point x="328" y="422" type="line"/>
      <point x="320" y="408" type="line"/>
      <point x="316" y="408" type="line"/>
      <point x="308" y="422" type="line"/>
      <point x="75" y="740" type="line"/>
      <point x="26" y="740" type="line"/>
      <point x="291" y="379" type="line"/>
    </contour>
  </outline>
</glyph>
<glyph name="Y" format="1">
  <advance width="587"/>
  <unicode hex="0059"/>
  <outline>
    <contour>
      <point x="294" y="763" type="move" name="topUC"/>
    </contour>
    <contour>
      <point x="273" y="0" type="line"/>
      <point x="314" y="0" type="line"/>
      <point x="314" y="255" type="line"/>
      <point x="578" y="740" type="line"/>
      <point x="533" y="740" type="line"/>
      <point x="325" y="358" type="line"/>
      <point x="295" y="297" type="line"/>
      <point x="291" y="297" type="line"/>
      <point x="261" y="358" type="line"/>
      <point x="53" y="740" type="line"/>
      <point x="9" y="740" type="line"/>
      <point x="273" y="253" type="line"/>
    </contour>
  </outline>
</glyph>
<glyph name="Z" format="1">
  <advance width="548"/>
  <unicode hex="005A"/>
  <outline>
    <contour>
      <point x="282" y="763" type="move" name="topUC"/>
    </contour>
    <contour>
      <point x="273" y="-3" type="move" name="bottom"/>
    </contour>
    <contour>
      <point x="34" y="0" type="line"/>
      <point x="512" y="0" type="line"/>
      <point x="512" y="38" type="line"/>
      <point x="87" y="38" type="line"/>
      <point x="87" y="42" type="line"/>
      <point x="504" y="709" type="line"/>
      <point x="504" y="740" type="line"/>
      <point x="46" y="740" type="line"/>
      <point x="46" y="702" type="line"/>
      <point x="453" y="702" type="line"/>
      <point x="453" y="697" type="line"/>
      <point x="34" y="32" type="line"/>
    </contour>
  </outline>
</glyph>
<glyph name="bracketleft" format="1">
  <advance width="297"/>
  <unicode hex="005B"/>
  <outline>
    <contour>
      <point x="93" y="-160" type="line"/>
      <point x="262" y="-160" type="line"/>
      <point x="262" y="-123" type="line"/>
      <point x="132" y="-123" type="line"/>
      <point x="132" y="831" type="line"/>
      <point x="262" y="831" type="line"/>
      <point x="262" y="868" type="line"/>
      <point x="93" y="868" type="line"/>
    </contour>
  </outline>
</glyph>
<glyph name="backslash" format="1">
  <advance width="353"/>
  <unicode hex="005C"/>
  <outline>
    <contour>
      <point x="280" y="-120" type="line"/>
      <point x="318" y="-120" type="line"/>
      <point x="72" y="740" type="line"/>
      <point x="35" y="740" type="line"/>
    </contour>
  </outline>
</glyph>
<glyph name="bracketright" format="1">
  <advance width="296"/>
  <unicode hex="005D"/>
  <outline>
    <contour>
      <point x="203" y="-160" type="line"/>
      <point x="203" y="868" type="line"/>
      <point x="35" y="868" type="line"/>
      <point x="35" y="831" type="line"/>
      <point x="165" y="831" type="line"/>
      <point x="165" y="-123" type="line"/>
      <point x="35" y="-123" type="line"/>
      <point x="35" y="-160" type="line"/>
    </contour>
  </outline>
</glyph>
<glyph name="asciicircum" format="1">
  <advance width="445"/>
  <unicode hex="005E"/>
  <outline>
    <contour>
      <point x="53" y="481" type="line"/>
      <point x="87" y="481" type="line"/>
      <point x="220" y="743" type="line"/>
      <point x="224" y="743" type="line"/>
      <point x="357" y="481" type="line"/>
      <point x="392" y="481" type="line"/>
      <point x="236" y="789" type="line"/>
      <point x="209" y="789" type="line"/>
    </contour>
  </outline>
</glyph>
<glyph name="underscore" format="1">
  <advance width="557"/>
  <unicode hex="005F"/>
  <outline>
    <contour>
      <point x="58" y="-101" type="line"/>
      <point x="500" y="-101" type="line"/>
      <point x="500" y="-60" type="line"/>
      <point x="58" y="-60" type="line"/>
    </contour>
  </outline>
</glyph>
<glyph name="grave" format="1">
  <advance width="232"/>
  <unicode hex="0060"/>
  <outline>
    <contour>
      <point x="155" y="602" type="move" name="_top"/>
    </contour>
    <contour>
      <point x="136" y="617" type="line"/>
      <point x="47" y="806" type="line"/>
      <point x="95" y="806" type="line"/>
      <point x="169" y="627" type="line"/>
    </contour>
  </outline>
</glyph>
<glyph name="a" format="1">
  <advance width="500"/>
  <unicode hex="0061"/>
  <outline>
    <contour>
      <point x="252" y="602" type="move" name="top"/>
    </contour>
    <contour>
      <point x="419" y="1" type="move" name="ogonek"/>
    </contour>
    <contour>
      <point x="182" y="-5" type="curve" smooth="yes"/>
      <point x="240" y="-5"/>
      <point x="305" y="23"/>
      <point x="378" y="69" type="curve"/>
      <point x="382" y="69" type="line"/>
      <point x="388" y="0" type="line"/>
      <point x="421" y="0" type="line"/>
      <point x="421" y="372" type="line" smooth="yes"/>
      <point x="421" y="491"/>
      <point x="365" y="545"/>
      <point x="242" y="545" type="curve" smooth="yes"/>
      <point x="193" y="545"/>
      <point x="144" y="540"/>
      <point x="78" y="527" type="curve"/>
      <point x="83" y="490" type="line"/>
      <point x="146" y="502"/>
      <point x="192" y="508"/>
      <point x="239" y="508" type="curve" smooth="yes"/>
      <point x="344" y="508"/>
      <point x="381" y="470"/>
      <point x="381" y="365" type="curve" smooth="yes"/>
      <point x="381" y="107" type="line"/>
      <point x="313" y="64"/>
      <point x="245" y="33"/>
      <point x="188" y="33" type="curve" smooth="yes"/>
      <point x="119" y="33"/>
      <point x="86" y="65"/>
      <point x="86" y="130" type="curve" smooth="yes"/>
      <point x="86" y="213"/>
      <point x="130" y="248"/>
      <point x="258" y="260" type="curve" smooth="yes"/>
      <point x="412" y="274" type="line"/>
      <point x="404" y="307" type="line"/>
      <point x="250" y="293" type="line" smooth="yes"/>
      <point x="107" y="280"/>
      <point x="45" y="230"/>
      <point x="45" y="128" type="curve" smooth="yes"/>
      <point x="45" y="41"/>
      <point x="92" y="-5"/>
    </contour>
  </outline>
</glyph>
<glyph name="b" format="1">
  <advance width="572"/>
  <unicode hex="0062"/>
  <outline>
    <contour>
      <point x="268" y="-10" type="curve" smooth="yes"/>
      <point x="425" y="-9"/>
      <point x="518" y="90"/>
      <point x="518" y="273" type="curve" smooth="yes"/>
      <point x="518" y="463"/>
      <point x="439" y="550"/>
      <point x="297" y="550" type="curve" smooth="yes"/>
      <point x="224" y="550"/>
      <point x="165" y="524"/>
      <point x="123" y="478" type="curve"/>
      <point x="123" y="808" type="line"/>
      <point x="83" y="808" type="line"/>
      <point x="83" y="7" type="line"/>
      <point x="139" y="-3"/>
      <point x="209" y="-10"/>
    </contour>
    <contour>
      <point x="269" y="28" type="curve" smooth="yes"/>
      <point x="216" y="28"/>
      <point x="162" y="33"/>
      <point x="123" y="38" type="curve"/>
      <point x="123" y="393" type="line" smooth="yes"/>
      <point x="123" y="462"/>
      <point x="211" y="512"/>
      <point x="294" y="512" type="curve" smooth="yes"/>
      <point x="416" y="512"/>
      <point x="476" y="440"/>
      <point x="476" y="272" type="curve" smooth="yes"/>
      <point x="476" y="103"/>
      <point x="400" y="28"/>
    </contour>
  </outline>
</glyph>
<glyph name="c" format="1">
  <advance width="450"/>
  <unicode hex="0063"/>
  <outline>
    <contour>
      <point x="263" y="602" type="move" name="top"/>
    </contour>
    <contour>
      <point x="265" y="-3" type="move" name="bottom"/>
    </contour>
    <contour>
      <point x="299" y="-9" type="curve" smooth="yes"/>
      <point x="335" y="-9"/>
      <point x="379" y="-4"/>
      <point x="405" y="4" type="curve"/>
      <point x="404" y="41" type="line"/>
      <point x="364" y="33"/>
      <point x="336" y="29"/>
      <point x="301" y="29" type="curve" smooth="yes"/>
      <point x="159" y="29"/>
      <point x="96" y="104"/>
      <point x="96" y="269" type="curve" smooth="yes"/>
      <point x="96" y="431"/>
      <point x="165" y="511"/>
      <point x="303" y="511" type="curve" smooth="yes"/>
      <point x="337" y="511"/>
      <point x="373" y="506"/>
      <point x="405" y="497" type="curve"/>
      <point x="405" y="537" type="line"/>
      <point x="370" y="545"/>
      <point x="328" y="549"/>
      <point x="299" y="549" type="curve" smooth="yes"/>
      <point x="136" y="549"/>
      <point x="54" y="454"/>
      <point x="54" y="269" type="curve" smooth="yes"/>
      <point x="54" y="83"/>
      <point x="136" y="-9"/>
    </contour>
  </outline>
</glyph>
<glyph name="d" format="1">
  <advance width="572"/>
  <unicode hex="0064"/>
  <outline>
    <contour>
      <point x="591" y="804" type="move" name="caronalt"/>
    </contour>
    <contour>
      <point x="275" y="-3" type="move" name="bottom"/>
    </contour>
    <contour>
      <point x="275" y="-10" type="curve" smooth="yes"/>
      <point x="349" y="-10"/>
      <point x="406" y="17"/>
      <point x="445" y="66" type="curve"/>
      <point x="449" y="66" type="line"/>
      <point x="454" y="0" type="line"/>
      <point x="488" y="0" type="line"/>
      <point x="488" y="808" type="line"/>
      <point x="448" y="808" type="line"/>
      <point x="448" y="539" type="line"/>
      <point x="407" y="542"/>
      <point x="357" y="550"/>
      <point x="301" y="550" type="curve" smooth="yes"/>
      <point x="153" y="550"/>
      <point x="54" y="460"/>
      <point x="54" y="270" type="curve" smooth="yes"/>
      <point x="54" y="77"/>
      <point x="132" y="-10"/>
    </contour>
    <contour>
      <point x="277" y="28" type="curve" smooth="yes"/>
      <point x="156" y="28"/>
      <point x="96" y="102"/>
      <point x="96" y="270" type="curve" smooth="yes"/>
      <point x="96" y="436"/>
      <point x="172" y="512"/>
      <point x="301" y="512" type="curve" smooth="yes"/>
      <point x="356" y="512"/>
      <point x="407" y="506"/>
      <point x="448" y="500" type="curve"/>
      <point x="448" y="155" type="line" smooth="yes"/>
      <point x="448" y="81"/>
      <point x="362" y="28"/>
    </contour>
  </outline>
</glyph>
<glyph name="e" format="1">
  <advance width="517"/>
  <unicode hex="0065"/>
  <outline>
    <contour>
      <point x="269" y="602" type="move" name="top"/>
    </contour>
    <contour>
      <point x="445" y="23" type="move" name="ogonek"/>
    </contour>
    <contour>
      <point x="284" y="-3" type="move" name="bottom"/>
    </contour>
    <contour>
      <point x="288" y="-9" type="curve" smooth="yes"/>
      <point x="337" y="-9"/>
      <point x="400" y="3"/>
      <point x="448" y="23" type="curve"/>
      <point x="443" y="59" type="line"/>
      <point x="385" y="38"/>
      <point x="340" y="29"/>
      <point x="293" y="29" type="curve" smooth="yes"/>
      <point x="161" y="29"/>
      <point x="95" y="109"/>
      <point x="95" y="264" type="curve" smooth="yes"/>
      <point x="95" y="426"/>
      <point x="159" y="511"/>
      <point x="280" y="511" type="curve" smooth="yes"/>
      <point x="384" y="511"/>
      <point x="426" y="441"/>
      <point x="426" y="263" type="curve"/>
      <point x="448" y="286" type="line"/>
      <point x="71" y="286" type="line"/>
      <point x="71" y="251" type="line"/>
      <point x="462" y="251" type="line"/>
      <point x="464" y="264"/>
      <point x="465" y="283"/>
      <point x="465" y="313" type="curve" smooth="yes"/>
      <point x="465" y="465"/>
      <point x="399" y="549"/>
      <point x="280" y="549" type="curve" smooth="yes"/>
      <point x="134" y="549"/>
      <point x="54" y="447"/>
      <point x="54" y="259" type="curve" smooth="yes"/>
      <point x="54" y="85"/>
      <point x="137" y="-9"/>
    </contour>
  </outline>
</glyph>
<glyph name="g" format="1">
  <advance width="572"/>
  <unicode hex="0067"/>
  <outline>
    <contour>
      <point x="297" y="602" type="move" name="top"/>
    </contour>
    <contour>
      <point x="250" y="-219" type="curve" smooth="yes"/>
      <point x="383" y="-219"/>
      <point x="488" y="-166"/>
      <point x="488" y="46" type="curve" smooth="yes"/>
      <point x="488" y="530" type="line"/>
      <point x="439" y="543"/>
      <point x="363" y="550"/>
      <point x="301" y="550" type="curve" smooth="yes"/>
      <point x="153" y="550"/>
      <point x="54" y="460"/>
      <point x="54" y="270" type="curve" smooth="yes"/>
      <point x="54" y="78"/>
      <point x="132" y="-9"/>
      <point x="275" y="-9" type="curve" smooth="yes"/>
      <point x="349" y="-9"/>
      <point x="406" y="19"/>
      <point x="445" y="67" type="curve"/>
      <point x="449" y="67" type="line"/>
      <point x="449" y="41" type="line" smooth="yes"/>
      <point x="448" y="-128"/>
      <point x="371" y="-181"/>
      <point x="253" y="-181" type="curve" smooth="yes"/>
      <point x="201" y="-181"/>
      <point x="147" y="-171"/>
      <point x="96" y="-157" type="curve"/>
      <point x="92" y="-196" type="line"/>
      <point x="140" y="-210"/>
      <point x="196" y="-219"/>
    </contour>
    <contour>
      <point x="277" y="29" type="curve" smooth="yes"/>
      <point x="156" y="29"/>
      <point x="96" y="102"/>
      <point x="96" y="270" type="curve" smooth="yes"/>
      <point x="96" y="436"/>
      <point x="172" y="512"/>
      <point x="301" y="512" type="curve" smooth="yes"/>
      <point x="355" y="512"/>
      <point x="407" y="506"/>
      <point x="448" y="500" type="curve"/>
      <point x="448" y="156" type="line" smooth="yes"/>
      <point x="448" y="82"/>
      <point x="362" y="29"/>
    </contour>
  </outline>
</glyph>
<glyph name="h" format="1">
  <advance width="573"/>
  <unicode hex="0068"/>
  <outline>
    <contour>
      <point x="107" y="806" type="move" name="top"/>
    </contour>
    <contour>
      <point x="289" y="-3" type="move" name="bottom"/>
    </contour>
    <contour>
      <point x="84" y="0" type="line"/>
      <point x="124" y="0" type="line"/>
      <point x="124" y="438" type="line"/>
      <point x="211" y="483"/>
      <point x="290" y="511"/>
      <point x="350" y="511" type="curve" smooth="yes"/>
      <point x="419" y="511"/>
      <point x="453" y="477"/>
      <point x="453" y="390" type="curve" smooth="yes"/>
      <point x="453" y="0" type="line"/>
      <point x="493" y="0" type="line"/>
      <point x="493" y="404" type="line" smooth="yes"/>
      <point x="493" y="506"/>
      <point x="447" y="550"/>
      <point x="357" y="550" type="curve" smooth="yes"/>
      <point x="296" y="550"/>
      <point x="236" y="529"/>
      <point x="127" y="477" type="curve"/>
      <point x="124" y="476" type="line"/>
      <point x="124" y="808" type="line"/>
      <point x="84" y="808" type="line"/>
    </contour>
  </outline>
</glyph>
<glyph name="i" format="1">
  <advance width="211"/>
  <unicode hex="0069"/>
  <outline>
    <contour>
      <point x="123" y="1" type="move" name="ogonek"/>
    </contour>
    <contour>
      <point x="105" y="-3" type="move" name="bottom"/>
    </contour>
    <contour>
      <point x="105" y="672" type="curve" smooth="yes"/>
      <point x="126" y="672"/>
      <point x="138" y="684"/>
      <point x="138" y="704" type="curve" smooth="yes"/>
      <point x="138" y="724"/>
      <point x="126" y="736"/>
      <point x="105" y="736" type="curve" smooth="yes"/>
      <point x="85" y="736"/>
      <point x="74" y="724"/>
      <point x="74" y="704" type="curve" smooth="yes"/>
      <point x="74" y="683"/>
      <point x="85" y="672"/>
    </contour>
    <contour>
      <point x="85" y="0" type="line"/>
      <point x="125" y="0" type="line"/>
      <point x="125" y="540" type="line"/>
      <point x="85" y="540" type="line"/>
    </contour>
  </outline>
</glyph>
<glyph name="j" format="1">
  <advance width="208"/>
  <unicode hex="006A"/>
  <outline>
    <contour>
      <point x="101" y="672" type="curve" smooth="yes"/>
      <point x="121" y="672"/>
      <point x="134" y="684"/>
      <point x="134" y="704" type="curve" smooth="yes"/>
      <point x="134" y="724"/>
      <point x="121" y="736"/>
      <point x="101" y="736" type="curve" smooth="yes"/>
      <point x="80" y="736"/>
      <point x="69" y="724"/>
      <point x="69" y="704" type="curve" smooth="yes"/>
      <point x="69" y="683"/>
      <point x="80" y="672"/>
    </contour>
    <contour>
      <point x="35" y="-220" type="line"/>
      <point x="92" y="-128"/>
      <point x="124" y="-19"/>
      <point x="125" y="92" type="curve" smooth="yes"/>
      <point x="125" y="540" type="line"/>
      <point x="85" y="540" type="line"/>
      <point x="85" y="535"/>
      <point x="85" y="114"/>
      <point x="85" y="112" type="curve" smooth="yes"/>
      <point x="85" y="-15"/>
      <point x="60" y="-109"/>
      <point x="6" y="-201" type="curve"/>
    </contour>
  </outline>
</glyph>
<glyph name="k" format="1">
  <advance width="514"/>
  <unicode hex="006B"/>
  <outline>
    <contour>
      <point x="286" y="-3" type="move" name="bottom"/>
    </contour>
    <contour>
      <point x="84" y="0" type="line"/>
      <point x="124" y="0" type="line"/>
      <point x="124" y="259" type="line"/>
      <point x="235" y="259" type="line"/>
      <point x="461" y="0" type="line"/>
      <point x="509" y="0" type="line"/>
      <point x="280" y="264" type="line"/>
      <point x="265" y="274" type="line"/>
      <point x="265" y="278" type="line"/>
      <point x="279" y="287" type="line"/>
      <point x="493" y="540" type="line"/>
      <point x="444" y="540" type="line"/>
      <point x="237" y="295" type="line"/>
      <point x="124" y="295" type="line"/>
      <point x="124" y="808" type="line"/>
      <point x="84" y="808" type="line"/>
    </contour>
  </outline>
</glyph>
<glyph name="l" format="1">
  <advance width="215"/>
  <unicode hex="006C"/>
  <outline>
    <contour>
      <point x="108" y="812" type="move" name="top"/>
    </contour>
    <contour>
      <point x="220" y="370" type="move" name="periodcentered"/>
    </contour>
    <contour>
      <point x="229" y="804" type="move" name="caronalt"/>
    </contour>
    <contour>
      <point x="108" y="-3" type="move" name="bottom"/>
    </contour>
    <contour>
      <point x="87" y="0" type="line"/>
      <point x="127" y="0" type="line"/>
      <point x="127" y="808" type="line"/>
      <point x="87" y="808" type="line"/>
    </contour>
  </outline>
</glyph>
<glyph name="m" format="1">
  <advance width="863"/>
  <unicode hex="006D"/>
  <outline>
    <contour>
      <point x="84" y="0" type="line"/>
      <point x="124" y="0" type="line"/>
      <point x="124" y="439" type="line"/>
      <point x="196" y="483"/>
      <point x="260" y="511"/>
      <point x="312" y="511" type="curve" smooth="yes"/>
      <point x="381" y="511"/>
      <point x="415" y="477"/>
      <point x="415" y="390" type="curve" smooth="yes"/>
      <point x="415" y="0" type="line"/>
      <point x="455" y="0" type="line"/>
      <point x="455" y="440" type="line"/>
      <point x="530" y="485"/>
      <point x="590" y="511"/>
      <point x="640" y="511" type="curve" smooth="yes"/>
      <point x="710" y="511"/>
      <point x="743" y="477"/>
      <point x="743" y="390" type="curve" smooth="yes"/>
      <point x="743" y="0" type="line"/>
      <point x="783" y="0" type="line"/>
      <point x="783" y="404" type="line" smooth="yes"/>
      <point x="783" y="506"/>
      <point x="737" y="550"/>
      <point x="647" y="550" type="curve" smooth="yes"/>
      <point x="595" y="550"/>
      <point x="543" y="531"/>
      <point x="448" y="474" type="curve"/>
      <point x="444" y="474" type="line"/>
      <point x="426" y="526"/>
      <point x="384" y="550"/>
      <point x="319" y="550" type="curve" smooth="yes"/>
      <point x="265" y="550"/>
      <point x="214" y="529"/>
      <point x="125" y="477" type="curve"/>
      <point x="121" y="477" type="line"/>
      <point x="116" y="540" type="line"/>
      <point x="84" y="540" type="line"/>
    </contour>
  </outline>
</glyph>
<glyph name="n" format="1">
  <advance width="573"/>
  <unicode hex="006E"/>
  <outline>
    <contour>
      <point x="10" y="674" type="move" name="apostrophe"/>
    </contour>
    <contour>
      <point x="292" y="602" type="move" name="top"/>
    </contour>
    <contour>
      <point x="286" y="-3" type="move" name="bottom"/>
    </contour>
    <contour>
      <point x="84" y="0" type="line"/>
      <point x="124" y="0" type="line"/>
      <point x="124" y="438" type="line"/>
      <point x="211" y="483"/>
      <point x="290" y="511"/>
      <point x="350" y="511" type="curve" smooth="yes"/>
      <point x="419" y="511"/>
      <point x="453" y="477"/>
      <point x="453" y="390" type="curve" smooth="yes"/>
      <point x="453" y="0" type="line"/>
      <point x="493" y="0" type="line"/>
      <point x="493" y="404" type="line" smooth="yes"/>
      <point x="493" y="506"/>
      <point x="447" y="550"/>
      <point x="357" y="550" type="curve" smooth="yes"/>
      <point x="296" y="550"/>
      <point x="235" y="529"/>
      <point x="126" y="477" type="curve"/>
      <point x="121" y="477" type="line"/>
      <point x="117" y="540" type="line"/>
      <point x="84" y="540" type="line"/>
    </contour>
  </outline>
</glyph>
<glyph name="o" format="1">
  <advance width="562"/>
  <unicode hex="006F"/>
  <outline>
    <contour>
      <point x="278" y="602" type="move" name="top"/>
    </contour>
    <contour>
      <point x="339" y="12" type="move" name="ogonek"/>
    </contour>
    <contour>
      <point x="281" y="-3" type="move" name="bottom"/>
    </contour>
    <contour>
      <point x="281" y="-10" type="curve" smooth="yes"/>
      <point x="427" y="-10"/>
      <point x="508" y="90"/>
      <point x="508" y="270" type="curve" smooth="yes"/>
      <point x="508" y="450"/>
      <point x="427" y="550"/>
      <point x="281" y="550" type="curve" smooth="yes"/>
      <point x="135" y="550"/>
      <point x="54" y="450"/>
      <point x="54" y="270" type="curve" smooth="yes"/>
      <point x="54" y="90"/>
      <point x="135" y="-10"/>
    </contour>
    <contour>
      <point x="281" y="29" type="curve" smooth="yes"/>
      <point x="157" y="29"/>
      <point x="96" y="109"/>
      <point x="96" y="270" type="curve" smooth="yes"/>
      <point x="96" y="432"/>
      <point x="157" y="512"/>
      <point x="281" y="512" type="curve" smooth="yes"/>
      <point x="405" y="512"/>
      <point x="466" y="432"/>
      <point x="466" y="270" type="curve" smooth="yes"/>
      <point x="466" y="108"/>
      <point x="406" y="29"/>
    </contour>
  </outline>
</glyph>
<glyph name="p" format="1">
  <advance width="573"/>
  <unicode hex="0070"/>
  <outline>
    <contour>
      <point x="84" y="-220" type="line"/>
      <point x="124" y="-220" type="line"/>
      <point x="124" y="1" type="line"/>
      <point x="162" y="-2"/>
      <point x="214" y="-10"/>
      <point x="268" y="-10" type="curve" smooth="yes"/>
      <point x="425" y="-10"/>
      <point x="518" y="90"/>
      <point x="518" y="273" type="curve" smooth="yes"/>
      <point x="518" y="463"/>
      <point x="440" y="550"/>
      <point x="298" y="550" type="curve" smooth="yes"/>
      <point x="224" y="550"/>
      <point x="166" y="524"/>
      <point x="127" y="478" type="curve"/>
      <point x="123" y="478" type="line"/>
      <point x="118" y="540" type="line"/>
      <point x="84" y="540" type="line"/>
    </contour>
    <contour>
      <point x="269" y="28" type="curve" smooth="yes"/>
      <point x="216" y="28"/>
      <point x="163" y="34"/>
      <point x="124" y="39" type="curve"/>
      <point x="124" y="389" type="line" smooth="yes"/>
      <point x="124" y="461"/>
      <point x="210" y="512"/>
      <point x="295" y="512" type="curve" smooth="yes"/>
      <point x="416" y="512"/>
      <point x="476" y="440"/>
      <point x="476" y="272" type="curve" smooth="yes"/>
      <point x="476" y="104"/>
      <point x="400" y="28"/>
    </contour>
  </outline>
</glyph>
<glyph name="q" format="1">
  <advance width="572"/>
  <unicode hex="0071"/>
  <outline>
    <contour>
      <point x="449" y="-220" type="line"/>
      <point x="488" y="-220" type="line"/>
      <point x="488" y="531" type="line"/>
      <point x="442" y="542"/>
      <point x="364" y="550"/>
      <point x="301" y="550" type="curve" smooth="yes"/>
      <point x="143" y="550"/>
      <point x="54" y="449"/>
      <point x="54" y="270" type="curve" smooth="yes"/>
      <point x="54" y="83"/>
      <point x="127" y="-10"/>
      <point x="275" y="-10" type="curve" smooth="yes"/>
      <point x="348" y="-10"/>
      <point x="408" y="17"/>
      <point x="449" y="66" type="curve"/>
    </contour>
    <contour>
      <point x="277" y="28" type="curve" smooth="yes"/>
      <point x="153" y="28"/>
      <point x="96" y="106"/>
      <point x="96" y="270" type="curve" smooth="yes"/>
      <point x="96" y="430"/>
      <point x="166" y="512"/>
      <point x="301" y="512" type="curve" smooth="yes"/>
      <point x="343" y="512"/>
      <point x="388" y="509"/>
      <point x="448" y="500" type="curve"/>
      <point x="448" y="155" type="line" smooth="yes"/>
      <point x="448" y="86"/>
      <point x="369" y="28"/>
    </contour>
  </outline>
</glyph>
<glyph name="r" format="1">
  <advance width="355"/>
  <unicode hex="0072"/>
  <outline>
    <contour>
      <point x="207" y="602" type="move" name="top"/>
    </contour>
    <contour>
      <point x="104" y="-3" type="move" name="bottom"/>
    </contour>
    <contour>
      <point x="84" y="0" type="line"/>
      <point x="124" y="0" type="line"/>
      <point x="124" y="430" type="line"/>
      <point x="195" y="466"/>
      <point x="266" y="500"/>
      <point x="329" y="508" type="curve"/>
      <point x="342" y="508" type="line"/>
      <point x="342" y="549" type="line"/>
      <point x="329" y="549" type="line"/>
      <point x="271" y="540"/>
      <point x="211" y="510"/>
      <point x="125" y="469" type="curve"/>
      <point x="121" y="469" type="line"/>
      <point x="117" y="540" type="line"/>
      <point x="84" y="540" type="line"/>
    </contour>
  </outline>
</glyph>
<glyph name="s" format="1">
  <advance width="434"/>
  <unicode hex="0073"/>
  <outline>
    <contour>
      <point x="215" y="602" type="move" name="top"/>
    </contour>
    <contour>
      <point x="220" y="-3" type="move" name="bottom"/>
    </contour>
    <contour>
      <point x="212" y="-11" type="curve" smooth="yes"/>
      <point x="320" y="-11"/>
      <point x="388" y="48"/>
      <point x="388" y="141" type="curve" smooth="yes"/>
      <point x="388" y="247"/>
      <point x="317" y="275"/>
      <point x="233" y="295" type="curve" smooth="yes"/>
      <point x="163" y="312"/>
      <point x="97" y="328"/>
      <point x="97" y="410" type="curve" smooth="yes"/>
      <point x="97" y="477"/>
      <point x="147" y="515"/>
      <point x="236" y="515" type="curve" smooth="yes"/>
      <point x="271" y="515"/>
      <point x="303" y="510"/>
      <point x="366" y="496" type="curve"/>
      <point x="369" y="534" type="line"/>
      <point x="297" y="549"/>
      <point x="272" y="553"/>
      <point x="235" y="553" type="curve" smooth="yes"/>
      <point x="124" y="553"/>
      <point x="56" y="499"/>
      <point x="56" y="410" type="curve" smooth="yes"/>
      <point x="56" y="294"/>
      <point x="144" y="276"/>
      <point x="223" y="258" type="curve" smooth="yes"/>
      <point x="293" y="243"/>
      <point x="348" y="218"/>
      <point x="348" y="140" type="curve" smooth="yes"/>
      <point x="348" y="69"/>
      <point x="298" y="27"/>
      <point x="210" y="27" type="curve" smooth="yes"/>
      <point x="162" y="27"/>
      <point x="107" y="35"/>
      <point x="49" y="50" type="curve"/>
      <point x="49" y="12" type="line"/>
      <point x="135" y="-5"/>
      <point x="170" y="-11"/>
    </contour>
  </outline>
</glyph>
<glyph name="t" format="1">
  <advance width="370"/>
  <unicode hex="0074"/>
  <outline>
    <contour>
      <point x="354" y="665" type="move" name="caronalt"/>
    </contour>
    <contour>
      <point x="247" y="-3" type="move" name="bottom"/>
    </contour>
    <contour>
      <point x="273" y="-7" type="curve" smooth="yes"/>
      <point x="297" y="-7"/>
      <point x="325" y="-3"/>
      <point x="356" y="4" type="curve"/>
      <point x="356" y="42" type="line"/>
      <point x="328" y="35"/>
      <point x="301" y="31"/>
      <point x="280" y="31" type="curve" smooth="yes"/>
      <point x="212" y="31"/>
      <point x="178" y="68"/>
      <point x="178" y="141" type="curve" smooth="yes"/>
      <point x="178" y="501" type="line"/>
      <point x="350" y="501" type="line"/>
      <point x="350" y="540" type="line"/>
      <point x="178" y="540" type="line"/>
      <point x="178" y="668" type="line"/>
      <point x="144" y="662" type="line"/>
      <point x="138" y="540" type="line"/>
      <point x="15" y="540" type="line"/>
      <point x="15" y="501" type="line"/>
      <point x="138" y="501" type="line"/>
      <point x="138" y="135" type="line" smooth="yes"/>
      <point x="138" y="42"/>
      <point x="184" y="-7"/>
    </contour>
  </outline>
</glyph>
<glyph name="u" format="1">
  <advance width="573"/>
  <unicode hex="0075"/>
  <outline>
    <contour>
      <point x="280" y="602" type="move" name="top"/>
    </contour>
    <contour>
      <point x="481" y="1" type="move" name="ogonek"/>
    </contour>
    <contour>
      <point x="276" y="-3" type="move" name="bottom"/>
    </contour>
    <contour>
      <point x="207" y="-10" type="curve" smooth="yes"/>
      <point x="283" y="-10"/>
      <point x="330" y="14"/>
      <point x="447" y="68" type="curve"/>
      <point x="451" y="68" type="line"/>
      <point x="456" y="0" type="line"/>
      <point x="489" y="0" type="line"/>
      <point x="489" y="540" type="line"/>
      <point x="449" y="540" type="line"/>
      <point x="449" y="105" type="line"/>
      <point x="356" y="61"/>
      <point x="289" y="29"/>
      <point x="214" y="29" type="curve" smooth="yes"/>
      <point x="149" y="29"/>
      <point x="120" y="66"/>
      <point x="120" y="149" type="curve" smooth="yes"/>
      <point x="120" y="540" type="line"/>
      <point x="80" y="540" type="line"/>
      <point x="80" y="136" type="line" smooth="yes"/>
      <point x="80" y="38"/>
      <point x="121" y="-10"/>
    </contour>
  </outline>
</glyph>
<glyph name="v" format="1">
  <advance width="516"/>
  <unicode hex="0076"/>
  <outline>
    <contour>
      <point x="228" y="0" type="line"/>
      <point x="288" y="0" type="line"/>
      <point x="492" y="531" type="line"/>
      <point x="492" y="540" type="line"/>
      <point x="453" y="540" type="line"/>
      <point x="281" y="91" type="line"/>
      <point x="260" y="32" type="line"/>
      <point x="256" y="32" type="line"/>
      <point x="236" y="91" type="line"/>
      <point x="64" y="540" type="line"/>
      <point x="24" y="540" type="line"/>
      <point x="24" y="531" type="line"/>
    </contour>
  </outline>
</glyph>
<glyph name="w" format="1">
  <advance width="761"/>
  <unicode hex="0077"/>
  <outline>
    <contour>
      <point x="379" y="602" type="move" name="top"/>
    </contour>
    <contour>
      <point x="182" y="0" type="line"/>
      <point x="231" y="0" type="line"/>
      <point x="357" y="414" type="line"/>
      <point x="377" y="490" type="line"/>
      <point x="381" y="490" type="line"/>
      <point x="402" y="414" type="line"/>
      <point x="534" y="0" type="line"/>
      <point x="583" y="0" type="line"/>
      <point x="728" y="533" type="line"/>
      <point x="728" y="540" type="line"/>
      <point x="690" y="540" type="line"/>
      <point x="580" y="132" type="line"/>
      <point x="559" y="47" type="line"/>
      <point x="555" y="47" type="line"/>
      <point x="530" y="132" type="line"/>
      <point x="401" y="540" type="line"/>
      <point x="357" y="540" type="line"/>
      <point x="233" y="132" type="line"/>
      <point x="209" y="47" type="line"/>
      <point x="205" y="47" type="line"/>
      <point x="183" y="132" type="line"/>
      <point x="68" y="540" type="line"/>
      <point x="29" y="540" type="line"/>
      <point x="29" y="533" type="line"/>
    </contour>
  </outline>
</glyph>
<glyph name="x" format="1">
  <advance width="514"/>
  <unicode hex="0078"/>
  <outline>
    <contour>
      <point x="17" y="0" type="line"/>
      <point x="59" y="0" type="line"/>
      <point x="214" y="198" type="line"/>
      <point x="254" y="250" type="line"/>
      <point x="258" y="250" type="line"/>
      <point x="299" y="198" type="line"/>
      <point x="455" y="0" type="line"/>
      <point x="497" y="0" type="line"/>
      <point x="497" y="10" type="line"/>
      <point x="284" y="277" type="line"/>
      <point x="485" y="533" type="line"/>
      <point x="485" y="540" type="line"/>
      <point x="440" y="540" type="line"/>
      <point x="296" y="354" type="line"/>
      <point x="260" y="307" type="line"/>
      <point x="257" y="307" type="line"/>
      <point x="221" y="354" type="line"/>
      <point x="74" y="540" type="line"/>
      <point x="29" y="540" type="line"/>
      <point x="29" y="533" type="line"/>
      <point x="230" y="280" type="line"/>
      <point x="17" y="10" type="line"/>
    </contour>
  </outline>
</glyph>
<glyph name="y" format="1">
  <advance width="528"/>
  <unicode hex="0079"/>
  <outline>
    <contour>
      <point x="265" y="602" type="move" name="top"/>
    </contour>
    <contour>
      <point x="190" y="-220" type="line"/>
      <point x="509" y="534" type="line"/>
      <point x="509" y="540" type="line"/>
      <point x="470" y="540" type="line"/>
      <point x="287" y="110" type="line"/>
      <point x="265" y="51" type="line"/>
      <point x="261" y="51" type="line"/>
      <point x="240" y="110" type="line"/>
      <point x="64" y="540" type="line"/>
      <point x="23" y="540" type="line"/>
      <point x="23" y="534" type="line"/>
      <point x="242" y="3" type="line"/>
      <point x="155" y="-203" type="line"/>
      <point x="155" y="-210" type="line"/>
    </contour>
  </outline>
</glyph>
<glyph name="z" format="1">
  <advance width="453"/>
  <unicode hex="007A"/>
  <outline>
    <contour>
      <point x="224" y="602" type="move" name="top"/>
    </contour>
    <contour>
      <point x="227" y="-3" type="move" name="bottom"/>
    </contour>
    <contour>
      <point x="39" y="1" type="line"/>
      <point x="415" y="1" type="line"/>
      <point x="415" y="38" type="line"/>
      <point x="95" y="38" type="line"/>
      <point x="95" y="42" type="line"/>
      <point x="405" y="515" type="line"/>
      <point x="405" y="540" type="line"/>
      <point x="48" y="540" type="line"/>
      <point x="48" y="503" type="line"/>
      <point x="346" y="503" type="line"/>
      <point x="346" y="498" type="line"/>
      <point x="39" y="30" type="line"/>
    </contour>
  </outline>
</glyph>
<glyph name="braceleft" format="1">
  <advance width="363"/>
  <unicode hex="007B"/>
  <outline>
    <contour>
      <point x="37" y="336" type="line"/>
      <point x="85" y="336"/>
      <point x="117" y="298"/>
      <point x="117" y="225" type="curve" smooth="yes"/>
      <point x="117" y="-36" type="line" smooth="yes"/>
      <point x="117" y="-125"/>
      <point x="145" y="-157"/>
      <point x="225" y="-157" type="curve" smooth="yes"/>
      <point x="251" y="-157"/>
      <point x="315" y="-154"/>
      <point x="327" y="-152" type="curve"/>
      <point x="327" y="-120" type="line"/>
      <point x="204" y="-120" type="line" smooth="yes"/>
      <point x="169" y="-120"/>
      <point x="156" y="-107"/>
      <point x="156" y="-74" type="curve" smooth="yes"/>
      <point x="156" y="233" type="line" smooth="yes"/>
      <point x="156" y="294"/>
      <point x="130" y="346"/>
      <point x="84" y="355" type="curve"/>
      <point x="130" y="366"/>
      <point x="156" y="419"/>
      <point x="156" y="480" type="curve" smooth="yes"/>
      <point x="156" y="785" type="line" smooth="yes"/>
      <point x="156" y="818"/>
      <point x="169" y="831"/>
      <point x="204" y="831" type="curve" smooth="yes"/>
      <point x="327" y="831" type="line"/>
      <point x="327" y="863" type="line"/>
      <point x="315" y="865"/>
      <point x="249" y="868"/>
      <point x="224" y="868" type="curve" smooth="yes"/>
      <point x="143" y="868"/>
      <point x="117" y="836"/>
      <point x="117" y="747" type="curve" smooth="yes"/>
      <point x="117" y="488" type="line" smooth="yes"/>
      <point x="117" y="415"/>
      <point x="85" y="376"/>
      <point x="37" y="376" type="curve"/>
    </contour>
  </outline>
</glyph>
<glyph name="braceright" format="1">
  <advance width="362"/>
  <unicode hex="007D"/>
  <outline>
    <contour>
      <point x="326" y="376" type="line"/>
      <point x="278" y="376"/>
      <point x="245" y="415"/>
      <point x="245" y="488" type="curve" smooth="yes"/>
      <point x="245" y="747" type="line" smooth="yes"/>
      <point x="245" y="836"/>
      <point x="219" y="868"/>
      <point x="139" y="868" type="curve" smooth="yes"/>
      <point x="114" y="868"/>
      <point x="47" y="865"/>
      <point x="36" y="863" type="curve"/>
      <point x="36" y="831" type="line"/>
      <point x="158" y="831" type="line" smooth="yes"/>
      <point x="194" y="831"/>
      <point x="207" y="818"/>
      <point x="207" y="785" type="curve" smooth="yes"/>
      <point x="207" y="480" type="line" smooth="yes"/>
      <point x="207" y="419"/>
      <point x="233" y="366"/>
      <point x="278" y="355" type="curve"/>
      <point x="233" y="346"/>
      <point x="207" y="294"/>
      <point x="207" y="233" type="curve" smooth="yes"/>
      <point x="207" y="-74" type="line" smooth="yes"/>
      <point x="207" y="-107"/>
      <point x="194" y="-120"/>
      <point x="158" y="-120" type="curve" smooth="yes"/>
      <point x="36" y="-120" type="line"/>
      <point x="36" y="-152" type="line"/>
      <point x="47" y="-154"/>
      <point x="112" y="-157"/>
      <point x="138" y="-157" type="curve" smooth="yes"/>
      <point x="218" y="-157"/>
      <point x="245" y="-125"/>
      <point x="245" y="-36" type="curve" smooth="yes"/>
      <point x="245" y="225" type="line" smooth="yes"/>
      <point x="245" y="298"/>
      <point x="278" y="336"/>
      <point x="326" y="336" type="curve"/>
    </contour>
  </outline>
</glyph>
<glyph name="asciitilde" format="1">
  <advance width="617"/>
  <unicode hex="007E"/>
  <outline>
    <contour>
      <point x="100" y="268" type="line"/>
      <point x="153" y="318"/>
      <point x="187" y="336"/>
      <point x="227" y="336" type="curve" smooth="yes"/>
      <point x="278" y="336"/>
      <point x="316" y="261"/>
      <point x="400" y="261" type="curve" smooth="yes"/>
      <point x="455" y="261"/>
      <point x="515" y="298"/>
      <point x="542" y="345" type="curve" smooth="yes"/>
      <point x="510" y="362" type="line"/>
      <point x="493" y="327"/>
      <point x="443" y="299"/>
      <point x="400" y="299" type="curve" smooth="yes"/>
      <point x="335" y="299"/>
      <point x="302" y="374"/>
      <point x="227" y="374" type="curve" smooth="yes"/>
      <point x="173" y="374"/>
      <point x="137" y="354"/>
      <point x="75" y="294" type="curve"/>
    </contour>
  </outline>
</glyph>
<glyph name="cent" format="1">
  <advance width="472"/>
  <unicode hex="00A2"/>
  <outline>
    <contour>
      <point x="263" y="-120" type="line"/>
      <point x="300" y="-120" type="line"/>
      <point x="300" y="11" type="line"/>
      <point x="263" y="11" type="line"/>
    </contour>
    <contour>
      <point x="263" y="528" type="line"/>
      <point x="300" y="528" type="line"/>
      <point x="300" y="660" type="line"/>
      <point x="263" y="660" type="line"/>
    </contour>
    <component base="c" xOffset="2"/>
  </outline>
</glyph>
<glyph name="sterling" format="1">
  <advance width="601"/>
  <unicode hex="00A3"/>
  <outline>
    <contour>
      <point x="54" y="0" type="line"/>
      <point x="535" y="0" type="line"/>
      <point x="535" y="39" type="line"/>
      <point x="247" y="39" type="line"/>
      <point x="247" y="527" type="line"/>
      <point x="247" y="655"/>
      <point x="286" y="705"/>
      <point x="393" y="705" type="curve" smooth="yes"/>
      <point x="431" y="705"/>
      <point x="481" y="696"/>
      <point x="538" y="679" type="curve"/>
      <point x="548" y="715" type="line"/>
      <point x="486" y="735"/>
      <point x="434" y="744"/>
      <point x="391" y="744" type="curve" smooth="yes"/>
      <point x="257" y="744"/>
      <point x="206" y="675"/>
      <point x="206" y="527" type="curve" smooth="yes"/>
      <point x="206" y="39" type="line"/>
      <point x="54" y="39" type="line"/>
    </contour>
    <contour>
      <point x="54" y="347" type="line"/>
      <point x="461" y="347" type="line"/>
      <point x="461" y="385" type="line"/>
      <point x="54" y="385" type="line"/>
    </contour>
  </outline>
</glyph>
<glyph name="currency" format="1">
  <advance width="607"/>
  <unicode hex="00A4"/>
  <outline>
    <contour>
      <point x="143" y="370" type="curve" smooth="yes"/>
      <point x="143" y="260"/>
      <point x="207" y="187"/>
      <point x="303" y="187" type="curve" smooth="yes"/>
      <point x="399" y="187"/>
      <point x="463" y="260"/>
      <point x="463" y="370" type="curve" smooth="yes"/>
      <point x="463" y="479"/>
      <point x="399" y="552"/>
      <point x="303" y="552" type="curve" smooth="yes"/>
      <point x="207" y="552"/>
      <point x="143" y="479"/>
    </contour>
    <contour>
      <point x="180" y="370" type="curve" smooth="yes"/>
      <point x="180" y="461"/>
      <point x="229" y="514"/>
      <point x="303" y="514" type="curve" smooth="yes"/>
      <point x="381" y="514"/>
      <point x="426" y="458"/>
      <point x="426" y="370" type="curve" smooth="yes"/>
      <point x="426" y="278"/>
      <point x="377" y="225"/>
      <point x="303" y="225" type="curve" smooth="yes"/>
      <point x="229" y="225"/>
      <point x="180" y="279"/>
    </contour>
    <contour>
      <point x="64" y="577" type="line"/>
      <point x="119" y="523" type="line"/>
      <point x="186" y="473" type="line"/>
      <point x="200" y="487" type="line"/>
      <point x="151" y="554" type="line"/>
      <point x="96" y="609" type="line"/>
    </contour>
    <contour>
      <point x="96" y="131" type="line"/>
      <point x="151" y="186" type="line"/>
      <point x="197" y="248" type="line"/>
      <point x="181" y="263" type="line"/>
      <point x="119" y="217" type="line"/>
      <point x="64" y="163" type="line"/>
    </contour>
    <contour>
      <point x="542" y="163" type="line"/>
      <point x="487" y="217" type="line"/>
      <point x="424" y="264" type="line"/>
      <point x="410" y="248" type="line"/>
      <point x="456" y="186" type="line"/>
      <point x="510" y="131" type="line"/>
    </contour>
    <contour>
      <point x="510" y="609" type="line"/>
      <point x="456" y="554" type="line"/>
      <point x="414" y="497" type="line"/>
      <point x="424" y="476" type="line"/>
      <point x="487" y="523" type="line"/>
      <point x="542" y="577" type="line"/>
    </contour>
  </outline>
</glyph>
<glyph name="yen" format="1">
  <advance width="632"/>
  <unicode hex="00A5"/>
  <outline>
    <contour>
      <point x="94" y="116" type="line"/>
      <point x="517" y="116" type="line"/>
      <point x="517" y="151" type="line"/>
      <point x="94" y="151" type="line"/>
    </contour>
    <contour>
      <point x="94" y="247" type="line"/>
      <point x="517" y="247" type="line"/>
      <point x="517" y="282" type="line"/>
      <point x="94" y="282" type="line"/>
    </contour>
    <component base="Y" xOffset="27"/>
  </outline>
</glyph>
<glyph name="brokenbar" format="1">
  <advance width="225"/>
  <unicode hex="00A6"/>
  <outline>
    <contour>
      <point x="93" y="-220" type="line"/>
      <point x="132" y="-220" type="line"/>
      <point x="132" y="202" type="line"/>
      <point x="93" y="202" type="line"/>
    </contour>
    <contour>
      <point x="93" y="386" type="line"/>
      <point x="132" y="386" type="line"/>
      <point x="132" y="808" type="line"/>
      <point x="93" y="808" type="line"/>
    </contour>
  </outline>
</glyph>
<glyph name="section" format="1">
  <advance width="464"/>
  <unicode hex="00A7"/>
  <outline>
    <contour>
      <point x="226" y="-11" type="curve" smooth="yes"/>
      <point x="334" y="-11"/>
      <point x="402" y="48"/>
      <point x="402" y="141" type="curve" smooth="yes"/>
      <point x="402" y="189"/>
      <point x="388" y="221"/>
      <point x="364" y="243" type="curve"/>
      <point x="388" y="269"/>
      <point x="402" y="304"/>
      <point x="402" y="345" type="curve" smooth="yes"/>
      <point x="402" y="452"/>
      <point x="331" y="479"/>
      <point x="247" y="500" type="curve" smooth="yes"/>
      <point x="177" y="517"/>
      <point x="111" y="533"/>
      <point x="111" y="615" type="curve" smooth="yes"/>
      <point x="111" y="682"/>
      <point x="161" y="720"/>
      <point x="250" y="720" type="curve" smooth="yes"/>
      <point x="286" y="720"/>
      <point x="317" y="715"/>
      <point x="380" y="701" type="curve"/>
      <point x="383" y="739" type="line"/>
      <point x="312" y="754"/>
      <point x="286" y="758"/>
      <point x="249" y="758" type="curve" smooth="yes"/>
      <point x="139" y="758"/>
      <point x="71" y="704"/>
      <point x="71" y="614" type="curve" smooth="yes"/>
      <point x="71" y="563"/>
      <point x="88" y="532"/>
      <point x="114" y="510" type="curve"/>
      <point x="86" y="486"/>
      <point x="71" y="452"/>
      <point x="71" y="410" type="curve" smooth="yes"/>
      <point x="71" y="294"/>
      <point x="158" y="276"/>
      <point x="237" y="258" type="curve" smooth="yes"/>
      <point x="307" y="243"/>
      <point x="362" y="218"/>
      <point x="362" y="140" type="curve" smooth="yes"/>
      <point x="362" y="69"/>
      <point x="312" y="27"/>
      <point x="224" y="27" type="curve" smooth="yes"/>
      <point x="176" y="27"/>
      <point x="121" y="35"/>
      <point x="63" y="50" type="curve"/>
      <point x="63" y="12" type="line"/>
      <point x="149" y="-5"/>
      <point x="185" y="-11"/>
    </contour>
    <contour>
      <point x="330" y="265" type="curve"/>
      <point x="306" y="278"/>
      <point x="275" y="287"/>
      <point x="246" y="295" type="curve" smooth="yes"/>
      <point x="177" y="312"/>
      <point x="111" y="328"/>
      <point x="111" y="410" type="curve" smooth="yes"/>
      <point x="111" y="445"/>
      <point x="124" y="472"/>
      <point x="150" y="489" type="curve"/>
      <point x="177" y="477"/>
      <point x="208" y="470"/>
      <point x="238" y="464" type="curve" smooth="yes"/>
      <point x="308" y="448"/>
      <point x="362" y="423"/>
      <point x="362" y="344" type="curve" smooth="yes"/>
      <point x="362" y="311"/>
      <point x="351" y="284"/>
    </contour>
  </outline>
</glyph>
<glyph name="dieresis" format="1">
  <advance width="446"/>
  <unicode hex="00A8"/>
  <outline>
    <contour>
      <point x="214" y="602" type="move" name="_top"/>
    </contour>
    <contour>
      <point x="103" y="664" type="curve" smooth="yes"/>
      <point x="120" y="664"/>
      <point x="135" y="675"/>
      <point x="135" y="696" type="curve" smooth="yes"/>
      <point x="135" y="718"/>
      <point x="120" y="728"/>
      <point x="103" y="728" type="curve" smooth="yes"/>
      <point x="83" y="728"/>
      <point x="70" y="718"/>
      <point x="70" y="696" type="curve" smooth="yes"/>
      <point x="70" y="675"/>
      <point x="83" y="664"/>
    </contour>
    <contour>
      <point x="325" y="664" type="curve" smooth="yes"/>
      <point x="343" y="664"/>
      <point x="358" y="675"/>
      <point x="358" y="696" type="curve" smooth="yes"/>
      <point x="358" y="718"/>
      <point x="343" y="728"/>
      <point x="325" y="728" type="curve" smooth="yes"/>
      <point x="306" y="728"/>
      <point x="293" y="718"/>
      <point x="293" y="696" type="curve" smooth="yes"/>
      <point x="293" y="675"/>
      <point x="306" y="664"/>
    </contour>
  </outline>
</glyph>
<glyph name="copyright" format="1">
  <advance width="858"/>
  <unicode hex="00A9"/>
  <outline>
    <contour>
      <point x="445" y="163" type="curve" smooth="yes"/>
      <point x="475" y="163"/>
      <point x="504" y="167"/>
      <point x="530" y="174" type="curve"/>
      <point x="530" y="209" type="line"/>
      <point x="503" y="204"/>
      <point x="474" y="199"/>
      <point x="447" y="199" type="curve" smooth="yes"/>
      <point x="361" y="199"/>
      <point x="301" y="253"/>
      <point x="301" y="365" type="curve" smooth="yes"/>
      <point x="301" y="479"/>
      <point x="358" y="535"/>
      <point x="448" y="535" type="curve" smooth="yes"/>
      <point x="475" y="535"/>
      <point x="504" y="531"/>
      <point x="528" y="526" type="curve"/>
      <point x="528" y="563" type="line"/>
      <point x="502" y="568"/>
      <point x="473" y="572"/>
      <point x="445" y="572" type="curve" smooth="yes"/>
      <point x="336" y="572"/>
      <point x="262" y="504"/>
      <point x="262" y="365" type="curve" smooth="yes"/>
      <point x="262" y="230"/>
      <point x="336" y="163"/>
    </contour>
    <contour>
      <point x="429" y="-11" type="curve" smooth="yes"/>
      <point x="652" y="-11"/>
      <point x="801" y="141"/>
      <point x="801" y="370" type="curve" smooth="yes"/>
      <point x="801" y="599"/>
      <point x="652" y="751"/>
      <point x="429" y="751" type="curve" smooth="yes"/>
      <point x="206" y="751"/>
      <point x="57" y="599"/>
      <point x="57" y="370" type="curve" smooth="yes"/>
      <point x="57" y="141"/>
      <point x="206" y="-11"/>
    </contour>
    <contour>
      <point x="429" y="25" type="curve" smooth="yes"/>
      <point x="227" y="25"/>
      <point x="94" y="162"/>
      <point x="94" y="370" type="curve" smooth="yes"/>
      <point x="94" y="578"/>
      <point x="227" y="715"/>
      <point x="429" y="715" type="curve" smooth="yes"/>
      <point x="631" y="715"/>
      <point x="765" y="578"/>
      <point x="765" y="370" type="curve" smooth="yes"/>
      <point x="765" y="162"/>
      <point x="631" y="25"/>
    </contour>
  </outline>
</glyph>
<glyph name="ordfeminine" format="1">
  <advance width="421"/>
  <unicode hex="00AA"/>
  <outline>
    <contour>
      <point x="164" y="348" type="curve" smooth="yes"/>
      <point x="204" y="348"/>
      <point x="243" y="364"/>
      <point x="304" y="399" type="curve"/>
      <point x="308" y="399" type="line"/>
      <point x="313" y="352" type="line"/>
      <point x="346" y="352" type="line"/>
      <point x="346" y="622" type="line" smooth="yes"/>
      <point x="346" y="708"/>
      <point x="308" y="746"/>
      <point x="210" y="746" type="curve" smooth="yes"/>
      <point x="183" y="746"/>
      <point x="146" y="743"/>
      <point x="88" y="734" type="curve"/>
      <point x="96" y="694" type="line"/>
      <point x="151" y="703"/>
      <point x="178" y="704"/>
      <point x="196" y="704" type="curve" smooth="yes"/>
      <point x="279" y="704"/>
      <point x="308" y="679"/>
      <point x="308" y="617" type="curve" smooth="yes"/>
      <point x="308" y="429" type="line"/>
      <point x="240" y="397"/>
      <point x="204" y="384"/>
      <point x="167" y="384" type="curve" smooth="yes"/>
      <point x="119" y="384"/>
      <point x="93" y="408"/>
      <point x="93" y="452" type="curve" smooth="yes"/>
      <point x="93" y="505"/>
      <point x="131" y="528"/>
      <point x="255" y="535" type="curve" smooth="yes"/>
      <point x="332" y="539" type="line"/>
      <point x="327" y="575" type="line"/>
      <point x="210" y="564" type="line" smooth="yes"/>
      <point x="106" y="557"/>
      <point x="52" y="512"/>
      <point x="52" y="448" type="curve" smooth="yes"/>
      <point x="52" y="389"/>
      <point x="99" y="348"/>
    </contour>
  </outline>
</glyph>
<glyph name="logicalnot" format="1">
  <advance width="783"/>
  <unicode hex="00AC"/>
  <outline>
    <contour>
      <point x="73" y="382" type="line"/>
      <point x="664" y="382" type="line"/>
      <point x="664" y="120" type="line"/>
      <point x="704" y="120" type="line"/>
      <point x="704" y="421" type="line"/>
      <point x="73" y="421" type="line"/>
    </contour>
  </outline>
</glyph>
<glyph name="uni00AD" format="1">
  <advance width="426"/>
  <unicode hex="00AD"/>
  <outline>
    <contour>
      <point x="73" y="260" type="line"/>
      <point x="353" y="260" type="line"/>
      <point x="353" y="300" type="line"/>
      <point x="73" y="300" type="line"/>
    </contour>
  </outline>
</glyph>
<glyph name="registered" format="1">
  <advance width="735"/>
  <unicode hex="00AE"/>
  <outline>
    <contour>
      <point x="254" y="277" type="line"/>
      <point x="290" y="277" type="line"/>
      <point x="290" y="411" type="line"/>
      <point x="387" y="409" type="line"/>
      <point x="475" y="277" type="line"/>
      <point x="518" y="277" type="line"/>
      <point x="426" y="414" type="line"/>
      <point x="427" y="418" type="line"/>
      <point x="477" y="433"/>
      <point x="505" y="468"/>
      <point x="505" y="520" type="curve" smooth="yes"/>
      <point x="505" y="595"/>
      <point x="455" y="629"/>
      <point x="346" y="629" type="curve" smooth="yes"/>
      <point x="321" y="629"/>
      <point x="290" y="626"/>
      <point x="254" y="622" type="curve"/>
    </contour>
    <contour>
      <point x="351" y="444" type="curve" smooth="yes"/>
      <point x="329" y="444"/>
      <point x="304" y="445"/>
      <point x="290" y="446" type="curve"/>
      <point x="290" y="590" type="line"/>
      <point x="316" y="593"/>
      <point x="333" y="595"/>
      <point x="351" y="595" type="curve" smooth="yes"/>
      <point x="434" y="595"/>
      <point x="469" y="573"/>
      <point x="469" y="520" type="curve" smooth="yes"/>
      <point x="469" y="468"/>
      <point x="428" y="444"/>
    </contour>
    <contour>
      <point x="367" y="138" type="curve" smooth="yes"/>
      <point x="544" y="138"/>
      <point x="675" y="268"/>
      <point x="675" y="445" type="curve" smooth="yes"/>
      <point x="675" y="622"/>
      <point x="544" y="753"/>
      <point x="367" y="753" type="curve" smooth="yes"/>
      <point x="190" y="753"/>
      <point x="60" y="622"/>
      <point x="60" y="445" type="curve" smooth="yes"/>
      <point x="60" y="268"/>
      <point x="190" y="138"/>
    </contour>
    <contour>
      <point x="367" y="174" type="curve" smooth="yes"/>
      <point x="210" y="174"/>
      <point x="96" y="288"/>
      <point x="96" y="445" type="curve" smooth="yes"/>
      <point x="96" y="602"/>
      <point x="210" y="718"/>
      <point x="367" y="718" type="curve" smooth="yes"/>
      <point x="524" y="718"/>
      <point x="639" y="602"/>
      <point x="639" y="445" type="curve" smooth="yes"/>
      <point x="639" y="288"/>
      <point x="524" y="174"/>
    </contour>
  </outline>
</glyph>
<glyph name="macron" format="1">
  <advance width="446"/>
  <unicode hex="00AF"/>
  <outline>
    <contour>
      <point x="206" y="602" type="move" name="_top"/>
    </contour>
    <contour>
      <point x="68" y="652" type="line"/>
      <point x="354" y="652" type="line"/>
      <point x="354" y="690" type="line"/>
      <point x="68" y="690" type="line"/>
    </contour>
  </outline>
</glyph>
<glyph name="degree" format="1">
  <advance width="450"/>
  <unicode hex="00B0"/>
  <outline>
    <contour>
      <point x="225" y="378" type="curve" smooth="yes"/>
      <point x="322" y="378"/>
      <point x="398" y="458"/>
      <point x="398" y="561" type="curve" smooth="yes"/>
      <point x="398" y="663"/>
      <point x="322" y="744"/>
      <point x="225" y="744" type="curve" smooth="yes"/>
      <point x="128" y="744"/>
      <point x="52" y="663"/>
      <point x="52" y="561" type="curve" smooth="yes"/>
      <point x="52" y="458"/>
      <point x="128" y="378"/>
    </contour>
    <contour>
      <point x="225" y="414" type="curve" smooth="yes"/>
      <point x="146" y="414"/>
      <point x="88" y="478"/>
      <point x="88" y="561" type="curve" smooth="yes"/>
      <point x="88" y="644"/>
      <point x="146" y="708"/>
      <point x="225" y="708" type="curve" smooth="yes"/>
      <point x="304" y="708"/>
      <point x="361" y="644"/>
      <point x="361" y="561" type="curve" smooth="yes"/>
      <point x="361" y="478"/>
      <point x="304" y="414"/>
    </contour>
  </outline>
</glyph>
<glyph name="plusminus" format="1">
  <advance width="530"/>
  <unicode hex="00B1"/>
  <outline>
    <contour>
      <point x="81" y="411" type="line"/>
      <point x="448" y="411" type="line"/>
      <point x="448" y="448" type="line"/>
      <point x="81" y="448" type="line"/>
    </contour>
    <contour>
      <point x="81" y="110" type="line"/>
      <point x="448" y="110" type="line"/>
      <point x="448" y="148" type="line"/>
      <point x="81" y="148" type="line"/>
    </contour>
    <contour>
      <point x="246" y="237" type="line"/>
      <point x="283" y="237" type="line"/>
      <point x="283" y="623" type="line"/>
      <point x="246" y="623" type="line"/>
    </contour>
  </outline>
</glyph>
<glyph name="twosuperior" format="1">
  <advance width="398"/>
  <unicode hex="00B2"/>
  <outline>
    <contour>
      <point x="45" y="302" type="line"/>
      <point x="349" y="302" type="line"/>
      <point x="349" y="339" type="line"/>
      <point x="86" y="339" type="line"/>
      <point x="86" y="375" type="line" smooth="yes"/>
      <point x="86" y="445"/>
      <point x="120" y="489"/>
      <point x="216" y="546" type="curve" smooth="yes"/>
      <point x="314" y="604"/>
      <point x="346" y="646"/>
      <point x="346" y="714" type="curve" smooth="yes"/>
      <point x="346" y="805"/>
      <point x="296" y="852"/>
      <point x="197" y="852" type="curve" smooth="yes"/>
      <point x="156" y="852"/>
      <point x="112" y="846"/>
      <point x="60" y="831" type="curve"/>
      <point x="68" y="795" type="line"/>
      <point x="121" y="808"/>
      <point x="161" y="814"/>
      <point x="196" y="814" type="curve" smooth="yes"/>
      <point x="270" y="814"/>
      <point x="308" y="780"/>
      <point x="308" y="713" type="curve" smooth="yes"/>
      <point x="308" y="662"/>
      <point x="278" y="627"/>
      <point x="194" y="578" type="curve" smooth="yes"/>
      <point x="86" y="514"/>
      <point x="45" y="458"/>
      <point x="45" y="373" type="curve" smooth="yes"/>
    </contour>
  </outline>
</glyph>
<glyph name="threesuperior" format="1">
  <advance width="380"/>
  <unicode hex="00B3"/>
  <outline>
    <contour>
      <point x="149" y="293" type="curve" smooth="yes"/>
      <point x="265" y="293"/>
      <point x="330" y="349"/>
      <point x="330" y="448" type="curve" smooth="yes"/>
      <point x="330" y="517"/>
      <point x="297" y="564"/>
      <point x="236" y="581" type="curve"/>
      <point x="287" y="600"/>
      <point x="316" y="644"/>
      <point x="316" y="705" type="curve" smooth="yes"/>
      <point x="316" y="799"/>
      <point x="256" y="854"/>
      <point x="153" y="854" type="curve" smooth="yes"/>
      <point x="118" y="854"/>
      <point x="83" y="850"/>
      <point x="49" y="842" type="curve"/>
      <point x="51" y="806" type="line"/>
      <point x="60" y="806" type="line"/>
      <point x="98" y="812"/>
      <point x="131" y="816"/>
      <point x="152" y="816" type="curve" smooth="yes"/>
      <point x="234" y="816"/>
      <point x="276" y="778"/>
      <point x="276" y="706" type="curve" smooth="yes"/>
      <point x="276" y="636"/>
      <point x="233" y="597"/>
      <point x="157" y="597" type="curve" smooth="yes"/>
      <point x="106" y="597" type="line"/>
      <point x="106" y="560" type="line"/>
      <point x="157" y="560" type="line" smooth="yes"/>
      <point x="244" y="560"/>
      <point x="291" y="522"/>
      <point x="291" y="451" type="curve" smooth="yes"/>
      <point x="291" y="375"/>
      <point x="239" y="331"/>
      <point x="148" y="331" type="curve" smooth="yes"/>
      <point x="122" y="331"/>
      <point x="82" y="335"/>
      <point x="59" y="340" type="curve"/>
      <point x="50" y="340" type="line"/>
      <point x="50" y="304" type="line"/>
      <point x="85" y="297"/>
      <point x="120" y="293"/>
    </contour>
  </outline>
</glyph>
<glyph name="acute" format="1">
  <advance width="223"/>
  <unicode hex="00B4"/>
  <outline>
    <contour>
      <point x="65" y="602" type="move" name="_top"/>
    </contour>
    <contour>
      <point x="81" y="610" type="line"/>
      <point x="169" y="798" type="line"/>
      <point x="127" y="798" type="line"/>
      <point x="53" y="616" type="line"/>
    </contour>
  </outline>
</glyph>
<glyph name="mu" format="1">
  <advance width="597"/>
  <unicode hex="00B5"/>
  <outline>
    <contour>
      <point x="219" y="-10" type="curve" smooth="yes"/>
      <point x="295" y="-10"/>
      <point x="342" y="14"/>
      <point x="459" y="68" type="curve"/>
      <point x="463" y="68" type="line"/>
      <point x="468" y="0" type="line"/>
      <point x="501" y="0" type="line"/>
      <point x="501" y="540" type="line"/>
      <point x="461" y="540" type="line"/>
      <point x="461" y="105" type="line"/>
      <point x="368" y="61"/>
      <point x="301" y="29"/>
      <point x="226" y="29" type="curve" smooth="yes"/>
      <point x="161" y="29"/>
      <point x="131" y="66"/>
      <point x="131" y="149" type="curve" smooth="yes"/>
      <point x="131" y="540" type="line"/>
      <point x="92" y="540" type="line"/>
      <point x="92" y="136" type="line" smooth="yes"/>
      <point x="92" y="38"/>
      <point x="133" y="-10"/>
    </contour>
    <contour>
      <point x="92" y="-220" type="line"/>
      <point x="131" y="-220" type="line"/>
      <point x="131" y="229" type="line"/>
      <point x="92" y="229" type="line"/>
    </contour>
  </outline>
</glyph>
<glyph name="paragraph" format="1">
  <advance width="560"/>
  <unicode hex="00B6"/>
  <outline>
    <contour>
      <point x="358" y="0" type="line"/>
      <point x="321" y="0" type="line"/>
      <point x="321" y="266" type="line"/>
      <point x="311" y="265"/>
      <point x="290" y="265"/>
      <point x="281" y="265" type="curve" smooth="yes"/>
      <point x="137" y="265"/>
      <point x="43" y="326"/>
      <point x="43" y="505" type="curve" smooth="yes"/>
      <point x="43" y="684"/>
      <point x="137" y="745"/>
      <point x="281" y="745" type="curve" smooth="yes"/>
      <point x="308" y="745"/>
      <point x="329" y="741"/>
      <point x="358" y="735" type="curve"/>
    </contour>
    <contour>
      <point x="457" y="0" type="line"/>
      <point x="418" y="0" type="line"/>
      <point x="418" y="735" type="line"/>
      <point x="457" y="735" type="line"/>
    </contour>
  </outline>
</glyph>
<glyph name="periodcentered" format="1">
  <advance width="216"/>
  <unicode hex="00B7"/>
  <outline>
    <contour>
      <point x="108" y="370" type="move" name="_periodcentered"/>
    </contour>
    <contour>
      <point x="108" y="335" type="curve" smooth="yes"/>
      <point x="127" y="335"/>
      <point x="143" y="345"/>
      <point x="143" y="370" type="curve" smooth="yes"/>
      <point x="143" y="395"/>
      <point x="127" y="405"/>
      <point x="108" y="405" type="curve" smooth="yes"/>
      <point x="87" y="405"/>
      <point x="73" y="394"/>
      <point x="73" y="370" type="curve" smooth="yes"/>
      <point x="73" y="346"/>
      <point x="87" y="335"/>
    </contour>
  </outline>
</glyph>
<glyph name="cedilla" format="1">
  <advance width="305"/>
  <unicode hex="00B8"/>
  <outline>
    <contour>
      <point x="170" y="-3" type="move" name="_bottom"/>
    </contour>
    <contour>
      <point x="114" y="-220" type="curve" smooth="yes"/>
      <point x="189" y="-220"/>
      <point x="228" y="-179"/>
      <point x="228" y="-105" type="curve" smooth="yes"/>
      <point x="228" y="-76"/>
      <point x="219" y="-48"/>
      <point x="190" y="9" type="curve"/>
      <point x="149" y="9" type="line"/>
      <point x="180" y="-48"/>
      <point x="188" y="-72"/>
      <point x="188" y="-100" type="curve" smooth="yes"/>
      <point x="188" y="-158"/>
      <point x="165" y="-182"/>
      <point x="101" y="-182" type="curve" smooth="yes"/>
      <point x="76" y="-182"/>
      <point x="56" y="-179"/>
      <point x="36" y="-171" type="curve"/>
      <point x="36" y="-208" type="line"/>
      <point x="63" y="-217"/>
      <point x="93" y="-220"/>
    </contour>
  </outline>
</glyph>
<glyph name="onesuperior" format="1">
  <advance width="294"/>
  <unicode hex="00B9"/>
  <outline>
    <contour>
      <point x="170" y="300" type="line"/>
      <point x="209" y="300" type="line"/>
      <point x="209" y="846" type="line"/>
      <point x="181" y="846" type="line"/>
      <point x="27" y="751" type="line"/>
      <point x="27" y="744" type="line"/>
      <point x="35" y="722" type="line"/>
      <point x="44" y="722" type="line"/>
      <point x="170" y="795" type="line"/>
    </contour>
  </outline>
</glyph>
<glyph name="ordmasculine" format="1">
  <advance width="458"/>
  <unicode hex="00BA"/>
  <outline>
    <contour>
      <point x="229" y="382" type="curve" smooth="yes"/>
      <point x="158" y="382"/>
      <point x="94" y="423"/>
      <point x="94" y="546" type="curve" smooth="yes"/>
      <point x="94" y="671"/>
      <point x="158" y="710"/>
      <point x="229" y="710" type="curve" smooth="yes"/>
      <point x="300" y="710"/>
      <point x="362" y="671"/>
      <point x="362" y="546" type="curve" smooth="yes"/>
      <point x="362" y="423"/>
      <point x="300" y="382"/>
    </contour>
    <contour>
      <point x="229" y="345" type="curve" smooth="yes"/>
      <point x="335" y="345"/>
      <point x="402" y="411"/>
      <point x="402" y="546" type="curve" smooth="yes"/>
      <point x="402" y="681"/>
      <point x="335" y="747"/>
      <point x="229" y="747" type="curve" smooth="yes"/>
      <point x="123" y="747"/>
      <point x="56" y="681"/>
      <point x="56" y="546" type="curve" smooth="yes"/>
      <point x="56" y="411"/>
      <point x="123" y="345"/>
    </contour>
  </outline>
</glyph>
<glyph name="AE" format="1">
  <advance width="828"/>
  <unicode hex="00C6"/>
  <outline>
    <contour>
      <point x="507" y="763" type="move" name="topUC"/>
    </contour>
    <contour>
      <point x="417" y="0" type="line"/>
      <point x="777" y="0" type="line"/>
      <point x="777" y="38" type="line"/>
      <point x="457" y="38" type="line"/>
      <point x="427" y="702" type="line"/>
      <point x="768" y="702" type="line"/>
      <point x="768" y="740" type="line"/>
      <point x="387" y="740" type="line"/>
    </contour>
    <contour>
      <point x="12" y="0" type="line"/>
      <point x="51" y="0" type="line"/>
      <point x="341" y="701" type="line"/>
      <point x="399" y="701" type="line"/>
      <point x="402" y="740" type="line"/>
      <point x="313" y="740" type="line"/>
      <point x="12" y="6" type="line"/>
    </contour>
    <contour>
      <point x="136" y="246" type="line"/>
      <point x="433" y="246" type="line"/>
      <point x="433" y="284" type="line"/>
      <point x="136" y="284" type="line"/>
    </contour>
    <contour>
      <point x="431" y="357" type="line"/>
      <point x="735" y="357" type="line"/>
      <point x="735" y="395" type="line"/>
      <point x="431" y="395" type="line"/>
    </contour>
  </outline>
</glyph>
<glyph name="Eth" format="1">
  <advance width="708"/>
  <unicode hex="00D0"/>
  <outline>
    <contour>
      <point x="5" y="349" type="line"/>
      <point x="358" y="349" type="line"/>
      <point x="358" y="387" type="line"/>
      <point x="5" y="387" type="line"/>
    </contour>
    <component base="D" xOffset="6"/>
  </outline>
</glyph>
<glyph name="multiply" format="1">
  <advance width="457"/>
  <unicode hex="00D7"/>
  <outline>
    <contour>
      <point x="361" y="212" type="line"/>
      <point x="388" y="238" type="line"/>
      <point x="95" y="530" type="line"/>
      <point x="69" y="504" type="line"/>
    </contour>
    <contour>
      <point x="95" y="212" type="line"/>
      <point x="388" y="504" type="line"/>
      <point x="361" y="530" type="line"/>
      <point x="69" y="238" type="line"/>
    </contour>
  </outline>
</glyph>
<glyph name="Oslash" format="1">
  <advance width="722"/>
  <unicode hex="00D8"/>
  <outline>
    <contour>
      <point x="360" y="763" type="move" name="topUC"/>
    </contour>
    <contour>
      <point x="362" y="-10" type="curve" smooth="yes"/>
      <point x="553" y="-10"/>
      <point x="663" y="121"/>
      <point x="663" y="369" type="curve" smooth="yes"/>
      <point x="663" y="618"/>
      <point x="553" y="750"/>
      <point x="362" y="750" type="curve" smooth="yes"/>
      <point x="170" y="750"/>
      <point x="60" y="618"/>
      <point x="60" y="369" type="curve" smooth="yes"/>
      <point x="60" y="120"/>
      <point x="170" y="-10"/>
    </contour>
    <contour>
      <point x="362" y="29" type="curve" smooth="yes"/>
      <point x="193" y="29"/>
      <point x="101" y="148"/>
      <point x="101" y="369" type="curve" smooth="yes"/>
      <point x="101" y="592"/>
      <point x="193" y="711"/>
      <point x="362" y="711" type="curve" smooth="yes"/>
      <point x="530" y="711"/>
      <point x="623" y="591"/>
      <point x="623" y="369" type="curve" smooth="yes"/>
      <point x="623" y="150"/>
      <point x="529" y="29"/>
    </contour>
    <contour>
      <point x="50" y="0" type="line"/>
      <point x="96" y="0" type="line"/>
      <point x="669" y="740" type="line"/>
      <point x="623" y="740" type="line"/>
    </contour>
  </outline>
</glyph>
<glyph name="Thorn" format="1">
  <advance width="617"/>
  <unicode hex="00DE"/>
  <outline>
    <contour>
      <point x="266" y="122" type="curve" smooth="yes"/>
      <point x="481" y="122"/>
      <point x="572" y="197"/>
      <point x="572" y="372" type="curve" smooth="yes"/>
      <point x="572" y="545"/>
      <point x="477" y="621"/>
      <point x="263" y="621" type="curve" smooth="yes"/>
      <point x="211" y="621"/>
      <point x="156" y="616"/>
      <point x="99" y="606" type="curve"/>
      <point x="99" y="137" type="line"/>
      <point x="170" y="127"/>
      <point x="222" y="122"/>
    </contour>
    <contour>
      <point x="269" y="161" type="curve" smooth="yes"/>
      <point x="224" y="161"/>
      <point x="162" y="166"/>
      <point x="139" y="171" type="curve"/>
      <point x="139" y="573" type="line"/>
      <point x="173" y="579"/>
      <point x="223" y="583"/>
      <point x="264" y="583" type="curve" smooth="yes"/>
      <point x="452" y="583"/>
      <point x="532" y="520"/>
      <point x="532" y="372" type="curve" smooth="yes"/>
      <point x="532" y="221"/>
      <point x="458" y="161"/>
    </contour>
    <contour>
      <point x="99" y="0" type="line"/>
      <point x="139" y="0" type="line"/>
      <point x="139" y="741" type="line"/>
      <point x="99" y="741" type="line"/>
    </contour>
  </outline>
</glyph>
<glyph name="germandbls" format="1">
  <advance width="585"/>
  <unicode hex="00DF"/>
  <outline>
    <contour>
      <point x="370" y="-11" type="curve" smooth="yes"/>
      <point x="478" y="-11"/>
      <point x="546" y="48"/>
      <point x="546" y="141" type="curve" smooth="yes"/>
      <point x="546" y="247"/>
      <point x="475" y="275"/>
      <point x="391" y="295" type="curve" smooth="yes"/>
      <point x="321" y="312"/>
      <point x="255" y="328"/>
      <point x="255" y="410" type="curve" smooth="yes"/>
      <point x="255" y="477"/>
      <point x="305" y="515"/>
      <point x="394" y="515" type="curve"/>
      <point x="475" y="515" type="line"/>
      <point x="475" y="553" type="line"/>
      <point x="393" y="553" type="line"/>
      <point x="283" y="553"/>
      <point x="215" y="499"/>
      <point x="215" y="410" type="curve" smooth="yes"/>
      <point x="215" y="294"/>
      <point x="302" y="276"/>
      <point x="381" y="258" type="curve" smooth="yes"/>
      <point x="451" y="243"/>
      <point x="506" y="218"/>
      <point x="506" y="140" type="curve" smooth="yes"/>
      <point x="506" y="69"/>
      <point x="456" y="27"/>
      <point x="368" y="27" type="curve" smooth="yes"/>
      <point x="320" y="27"/>
      <point x="266" y="35"/>
      <point x="207" y="50" type="curve"/>
      <point x="207" y="12" type="line"/>
      <point x="293" y="-5"/>
      <point x="329" y="-11"/>
    </contour>
    <contour>
      <point x="84" y="0" type="line"/>
      <point x="124" y="0" type="line"/>
      <point x="124" y="602" type="line" smooth="yes"/>
      <point x="124" y="724"/>
      <point x="174" y="771"/>
      <point x="285" y="771" type="curve" smooth="yes"/>
      <point x="396" y="771"/>
      <point x="447" y="723"/>
      <point x="447" y="602" type="curve" smooth="yes"/>
      <point x="447" y="515" type="line"/>
      <point x="487" y="515" type="line"/>
      <point x="487" y="602" type="line" smooth="yes"/>
      <point x="487" y="747"/>
      <point x="418" y="810"/>
      <point x="285" y="810" type="curve" smooth="yes"/>
      <point x="152" y="810"/>
      <point x="84" y="750"/>
      <point x="84" y="602" type="curve" smooth="yes"/>
    </contour>
  </outline>
</glyph>
<glyph name="ae" format="1">
  <advance width="845"/>
  <unicode hex="00E6"/>
  <outline>
    <contour>
      <point x="429" y="602" type="move" name="top"/>
    </contour>
    <contour>
      <point x="616" y="-9" type="curve" smooth="yes"/>
      <point x="665" y="-9"/>
      <point x="728" y="3"/>
      <point x="776" y="23" type="curve"/>
      <point x="771" y="59" type="line"/>
      <point x="713" y="38"/>
      <point x="668" y="29"/>
      <point x="620" y="29" type="curve" smooth="yes"/>
      <point x="493" y="29"/>
      <point x="426" y="104"/>
      <point x="422" y="251" type="curve"/>
      <point x="790" y="251" type="line"/>
      <point x="792" y="264"/>
      <point x="793" y="283"/>
      <point x="793" y="312" type="curve" smooth="yes"/>
      <point x="793" y="465"/>
      <point x="727" y="549"/>
      <point x="608" y="549" type="curve" smooth="yes"/>
      <point x="515" y="549"/>
      <point x="450" y="507"/>
      <point x="416" y="432" type="curve"/>
      <point x="412" y="432" type="line"/>
      <point x="397" y="507"/>
      <point x="343" y="545"/>
      <point x="242" y="545" type="curve" smooth="yes"/>
      <point x="193" y="545"/>
      <point x="144" y="540"/>
      <point x="78" y="527" type="curve"/>
      <point x="83" y="490" type="line"/>
      <point x="146" y="502"/>
      <point x="192" y="508"/>
      <point x="239" y="508" type="curve" smooth="yes"/>
      <point x="344" y="508"/>
      <point x="381" y="470"/>
      <point x="381" y="366" type="curve" smooth="yes"/>
      <point x="381" y="305" type="line"/>
      <point x="250" y="293" type="line" smooth="yes"/>
      <point x="107" y="280"/>
      <point x="45" y="230"/>
      <point x="45" y="128" type="curve" smooth="yes"/>
      <point x="45" y="41"/>
      <point x="92" y="-5"/>
      <point x="182" y="-5" type="curve" smooth="yes"/>
      <point x="238" y="-5"/>
      <point x="301" y="19"/>
      <point x="417" y="92" type="curve"/>
      <point x="420" y="91" type="line"/>
      <point x="457" y="26"/>
      <point x="523" y="-9"/>
    </contour>
    <contour>
      <point x="188" y="33" type="curve" smooth="yes"/>
      <point x="119" y="33"/>
      <point x="86" y="65"/>
      <point x="86" y="130" type="curve" smooth="yes"/>
      <point x="86" y="213"/>
      <point x="130" y="248"/>
      <point x="258" y="260" type="curve" smooth="yes"/>
      <point x="381" y="271" type="line"/>
      <point x="381" y="257"/>
      <point x="383" y="120"/>
      <point x="386" y="111" type="curve"/>
      <point x="307" y="60"/>
      <point x="244" y="33"/>
    </contour>
    <contour>
      <point x="422" y="287" type="line"/>
      <point x="428" y="433"/>
      <point x="493" y="511"/>
      <point x="608" y="511" type="curve" smooth="yes"/>
      <point x="707" y="511"/>
      <point x="749" y="447"/>
      <point x="753" y="287" type="curve"/>
    </contour>
  </outline>
</glyph>
<glyph name="icircumflex" format="1">
  <advance width="211"/>
  <unicode hex="00EE"/>
  <outline>
    <contour>
      <point x="-39" y="642" type="line"/>
      <point x="107" y="714" type="line"/>
      <point x="252" y="642" type="line"/>
      <point x="252" y="686" type="line"/>
      <point x="106" y="758" type="line"/>
      <point x="-39" y="686" type="line"/>
    </contour>
    <component base="dotlessi"/>
  </outline>
</glyph>
<glyph name="idieresis" format="1">
  <advance width="211"/>
  <unicode hex="00EF"/>
  <outline>
    <contour>
      <point x="-5" y="664" type="curve" smooth="yes"/>
      <point x="13" y="664"/>
      <point x="28" y="675"/>
      <point x="28" y="696" type="curve" smooth="yes"/>
      <point x="28" y="718"/>
      <point x="13" y="728"/>
      <point x="-5" y="728" type="curve" smooth="yes"/>
      <point x="-24" y="728"/>
      <point x="-37" y="718"/>
      <point x="-37" y="696" type="curve" smooth="yes"/>
      <point x="-37" y="675"/>
      <point x="-24" y="664"/>
    </contour>
    <contour>
      <point x="217" y="664" type="curve" smooth="yes"/>
      <point x="234" y="664"/>
      <point x="249" y="675"/>
      <point x="249" y="696" type="curve" smooth="yes"/>
      <point x="249" y="718"/>
      <point x="234" y="728"/>
      <point x="217" y="728" type="curve" smooth="yes"/>
      <point x="197" y="728"/>
      <point x="185" y="718"/>
      <point x="185" y="696" type="curve" smooth="yes"/>
      <point x="185" y="675"/>
      <point x="197" y="664"/>
    </contour>
    <component base="dotlessi"/>
  </outline>
</glyph>
<glyph name="eth" format="1">
  <advance width="575"/>
  <unicode hex="00F0"/>
  <outline>
    <contour>
      <point x="281" y="-10" type="curve" smooth="yes"/>
      <point x="426" y="-10"/>
      <point x="508" y="98"/>
      <point x="508" y="293" type="curve" smooth="yes"/>
      <point x="508" y="495"/>
      <point x="447" y="676"/>
      <point x="342" y="808" type="curve"/>
      <point x="295" y="808" type="line"/>
      <point x="382" y="703"/>
      <point x="436" y="581"/>
      <point x="457" y="441" type="curve"/>
      <point x="420" y="516"/>
      <point x="365" y="550"/>
      <point x="280" y="550" type="curve" smooth="yes"/>
      <point x="135" y="550"/>
      <point x="54" y="450"/>
      <point x="54" y="270" type="curve" smooth="yes"/>
      <point x="54" y="90"/>
      <point x="135" y="-10"/>
    </contour>
    <contour>
      <point x="281" y="29" type="curve" smooth="yes"/>
      <point x="157" y="29"/>
      <point x="96" y="109"/>
      <point x="96" y="270" type="curve" smooth="yes"/>
      <point x="96" y="431"/>
      <point x="157" y="512"/>
      <point x="281" y="512" type="curve" smooth="yes"/>
      <point x="406" y="512"/>
      <point x="466" y="403"/>
      <point x="466" y="292" type="curve" smooth="yes"/>
      <point x="466" y="117"/>
      <point x="405" y="29"/>
    </contour>
    <contour>
      <point x="225" y="634" type="line"/>
      <point x="552" y="676" type="line"/>
      <point x="552" y="713" type="line"/>
      <point x="225" y="672" type="line"/>
    </contour>
  </outline>
</glyph>
<glyph name="divide" format="1">
  <advance width="518"/>
  <unicode hex="00F7"/>
  <outline>
    <contour>
      <point x="262" y="186" type="curve" smooth="yes"/>
      <point x="282" y="186"/>
      <point x="296" y="198"/>
      <point x="296" y="219" type="curve" smooth="yes"/>
      <point x="296" y="239"/>
      <point x="282" y="252"/>
      <point x="262" y="252" type="curve" smooth="yes"/>
      <point x="242" y="252"/>
      <point x="229" y="240"/>
      <point x="229" y="219" type="curve" smooth="yes"/>
      <point x="229" y="198"/>
      <point x="242" y="186"/>
    </contour>
    <contour>
      <point x="75" y="351" type="line"/>
      <point x="443" y="351" type="line"/>
      <point x="443" y="389" type="line"/>
      <point x="75" y="389" type="line"/>
    </contour>
    <contour>
      <point x="262" y="480" type="curve" smooth="yes"/>
      <point x="282" y="480"/>
      <point x="296" y="492"/>
      <point x="296" y="513" type="curve" smooth="yes"/>
      <point x="296" y="533"/>
      <point x="282" y="546"/>
      <point x="262" y="546" type="curve" smooth="yes"/>
      <point x="242" y="546"/>
      <point x="229" y="534"/>
      <point x="229" y="513" type="curve" smooth="yes"/>
      <point x="229" y="492"/>
      <point x="242" y="480"/>
    </contour>
  </outline>
</glyph>
<glyph name="oslash" format="1">
  <advance width="567"/>
  <unicode hex="00F8"/>
  <outline>
    <contour>
      <point x="290" y="602" type="move" name="top"/>
    </contour>
    <contour>
      <point x="284" y="-10" type="curve" smooth="yes"/>
      <point x="430" y="-10"/>
      <point x="511" y="90"/>
      <point x="511" y="270" type="curve" smooth="yes"/>
      <point x="511" y="450"/>
      <point x="430" y="550"/>
      <point x="284" y="550" type="curve" smooth="yes"/>
      <point x="137" y="550"/>
      <point x="56" y="450"/>
      <point x="56" y="270" type="curve" smooth="yes"/>
      <point x="56" y="91"/>
      <point x="137" y="-10"/>
    </contour>
    <contour>
      <point x="284" y="29" type="curve" smooth="yes"/>
      <point x="159" y="29"/>
      <point x="98" y="109"/>
      <point x="98" y="270" type="curve" smooth="yes"/>
      <point x="98" y="431"/>
      <point x="159" y="512"/>
      <point x="284" y="512" type="curve" smooth="yes"/>
      <point x="408" y="512"/>
      <point x="469" y="431"/>
      <point x="469" y="270" type="curve" smooth="yes"/>
      <point x="469" y="109"/>
      <point x="409" y="29"/>
    </contour>
    <contour>
      <point x="37" y="0" type="line"/>
      <point x="86" y="0" type="line"/>
      <point x="529" y="540" type="line"/>
      <point x="481" y="540" type="line"/>
    </contour>
  </outline>
</glyph>
<glyph name="thorn" format="1">
  <advance width="572"/>
  <unicode hex="00FE"/>
  <outline>
    <contour>
      <point x="84" y="-220" type="line"/>
      <point x="124" y="-220" type="line"/>
      <point x="124" y="2" type="line"/>
      <point x="162" y="-2"/>
      <point x="214" y="-10"/>
      <point x="268" y="-10" type="curve" smooth="yes"/>
      <point x="420" y="-10"/>
      <point x="518" y="80"/>
      <point x="518" y="273" type="curve" smooth="yes"/>
      <point x="518" y="463"/>
      <point x="440" y="550"/>
      <point x="298" y="550" type="curve" smooth="yes"/>
      <point x="222" y="550"/>
      <point x="163" y="523"/>
      <point x="124" y="476" type="curve"/>
      <point x="124" y="475" type="line"/>
      <point x="124" y="808" type="line"/>
      <point x="84" y="808" type="line"/>
    </contour>
    <contour>
      <point x="269" y="27" type="curve" smooth="yes"/>
      <point x="216" y="27"/>
      <point x="163" y="34"/>
      <point x="124" y="39" type="curve"/>
      <point x="124" y="386" type="line" smooth="yes"/>
      <point x="124" y="460"/>
      <point x="209" y="512"/>
      <point x="295" y="512" type="curve" smooth="yes"/>
      <point x="416" y="512"/>
      <point x="476" y="441"/>
      <point x="476" y="272" type="curve" smooth="yes"/>
      <point x="476" y="102"/>
      <point x="400" y="27"/>
    </contour>
  </outline>
</glyph>
<glyph name="Dcroat" format="1">
  <advance width="708"/>
  <unicode hex="0110"/>
  <outline>
    <contour>
      <point x="5" y="349" type="line"/>
      <point x="358" y="349" type="line"/>
      <point x="358" y="387" type="line"/>
      <point x="5" y="387" type="line"/>
    </contour>
    <component base="D" xOffset="6"/>
  </outline>
</glyph>
<glyph name="dcroat" format="1">
  <advance width="572"/>
  <unicode hex="0111"/>
  <outline>
    <contour>
      <point x="250" y="656" type="line"/>
      <point x="568" y="656" type="line"/>
      <point x="568" y="690" type="line"/>
      <point x="250" y="690" type="line"/>
    </contour>
    <component base="d"/>
  </outline>
</glyph>
<glyph name="gcommaaccent" format="1">
  <advance width="572"/>
  <unicode hex="0123"/>
  <outline>
    <contour>
      <point x="363" y="802" type="line"/>
      <point x="308" y="652" type="line"/>
      <point x="351" y="652" type="line"/>
      <point x="402" y="802" type="line"/>
    </contour>
    <component base="g"/>
  </outline>
</glyph>
<glyph name="Hbar" format="1">
  <advance width="754"/>
  <unicode hex="0126"/>
  <outline>
    <contour>
      <point x="7" y="550" type="line"/>
      <point x="747" y="550" type="line"/>
      <point x="747" y="583" type="line"/>
      <point x="7" y="583" type="line"/>
    </contour>
    <component base="H" xOffset="8"/>
  </outline>
</glyph>
<glyph name="hbar" format="1">
  <advance width="573"/>
  <unicode hex="0127"/>
  <outline>
    <contour>
      <point x="-16" y="656" type="line"/>
      <point x="302" y="656" type="line"/>
      <point x="302" y="690" type="line"/>
      <point x="-16" y="690" type="line"/>
    </contour>
    <component base="h"/>
  </outline>
</glyph>
<glyph name="itilde" format="1">
  <advance width="211"/>
  <unicode hex="0129"/>
  <outline>
    <contour>
      <point x="-56" y="657" type="line"/>
      <point x="-30" y="682"/>
      <point x="-1" y="695"/>
      <point x="28" y="695" type="curve" smooth="yes"/>
      <point x="78" y="695"/>
      <point x="124" y="652"/>
      <point x="177" y="652" type="curve" smooth="yes"/>
      <point x="219" y="652"/>
      <point x="261" y="672"/>
      <point x="290" y="704" type="curve"/>
      <point x="265" y="727" type="line"/>
      <point x="239" y="702"/>
      <point x="210" y="689"/>
      <point x="180" y="689" type="curve" smooth="yes"/>
      <point x="125" y="689"/>
      <point x="88" y="732"/>
      <point x="28" y="732" type="curve" smooth="yes"/>
      <point x="-10" y="732"/>
      <point x="-47" y="714"/>
      <point x="-80" y="682" type="curve"/>
    </contour>
    <component base="dotlessi"/>
  </outline>
</glyph>
<glyph name="ibreve" format="1">
  <advance width="211"/>
  <unicode hex="012D"/>
  <outline>
    <contour>
      <point x="106" y="621" type="curve" smooth="yes"/>
      <point x="213" y="621"/>
      <point x="266" y="673"/>
      <point x="266" y="761" type="curve"/>
      <point x="230" y="761" type="line"/>
      <point x="230" y="683"/>
      <point x="182" y="653"/>
      <point x="106" y="653" type="curve" smooth="yes"/>
      <point x="30" y="653"/>
      <point x="-17" y="683"/>
      <point x="-17" y="761" type="curve"/>
      <point x="-53" y="761" type="line"/>
      <point x="-53" y="673"/>
      <point x="1" y="621"/>
    </contour>
    <component base="dotlessi"/>
  </outline>
</glyph>
<glyph name="dotlessi" format="1">
  <advance width="211"/>
  <unicode hex="0131"/>
  <outline>
    <contour>
      <point x="106" y="602" type="move" name="top"/>
    </contour>
    <contour>
      <point x="85" y="0" type="line"/>
      <point x="125" y="0" type="line"/>
      <point x="125" y="540" type="line"/>
      <point x="85" y="540" type="line"/>
    </contour>
  </outline>
</glyph>
<glyph name="jcircumflex" format="1">
  <advance width="208"/>
  <unicode hex="0135"/>
  <outline>
    <contour>
      <point x="-42" y="646" type="line"/>
      <point x="103" y="718" type="line"/>
      <point x="249" y="646" type="line"/>
      <point x="249" y="690" type="line"/>
      <point x="103" y="763" type="line"/>
      <point x="-42" y="690" type="line"/>
    </contour>
    <component base="dotlessj"/>
  </outline>
</glyph>
<glyph name="kgreenlandic" format="1">
  <advance width="520"/>
  <unicode hex="0138"/>
  <outline>
    <contour>
      <point x="84" y="0" type="line"/>
      <point x="124" y="0" type="line"/>
      <point x="124" y="259" type="line"/>
      <point x="279" y="259" type="line"/>
      <point x="463" y="0" type="line"/>
      <point x="509" y="0" type="line"/>
      <point x="322" y="264" type="line"/>
      <point x="307" y="274" type="line"/>
      <point x="307" y="278" type="line"/>
      <point x="321" y="287" type="line"/>
      <point x="493" y="540" type="line"/>
      <point x="447" y="540" type="line"/>
      <point x="281" y="295" type="line"/>
      <point x="124" y="295" type="line"/>
      <point x="124" y="540" type="line"/>
      <point x="84" y="540" type="line"/>
    </contour>
  </outline>
</glyph>
<glyph name="Lslash" format="1">
  <advance width="525"/>
  <unicode hex="0141"/>
  <outline>
    <contour>
      <point x="17" y="224" type="line"/>
      <point x="333" y="444" type="line"/>
      <point x="333" y="489" type="line"/>
      <point x="17" y="269" type="line"/>
    </contour>
    <component base="L" xOffset="23"/>
  </outline>
</glyph>
<glyph name="lslash" format="1">
  <advance width="275"/>
  <unicode hex="0142"/>
  <outline>
    <contour>
      <point x="188" y="398" type="line"/>
      <point x="94" y="352" type="line"/>
      <point x="94" y="336" type="line"/>
      <point x="188" y="383" type="line"/>
    </contour>
    <component base="l" xOffset="31"/>
  </outline>
</glyph>
<glyph name="Eng" format="1">
  <advance width="760"/>
  <unicode hex="014A"/>
  <outline>
    <contour>
      <point x="579" y="-182" type="line"/>
      <point x="626" y="-115"/>
      <point x="662" y="-6"/>
      <point x="662" y="68" type="curve"/>
      <point x="662" y="740" type="line"/>
      <point x="623" y="740" type="line"/>
      <point x="623" y="66" type="line"/>
      <point x="618" y="66" type="line"/>
      <point x="558" y="156" type="line"/>
      <point x="138" y="740" type="line"/>
      <point x="99" y="740" type="line"/>
      <point x="99" y="0" type="line"/>
      <point x="138" y="0" type="line"/>
      <point x="138" y="673" type="line"/>
      <point x="143" y="673" type="line"/>
      <point x="198" y="588" type="line"/>
      <point x="614" y="11" type="line"/>
      <point x="606" y="-38"/>
      <point x="577" y="-117"/>
      <point x="546" y="-173" type="curve"/>
    </contour>
  </outline>
</glyph>
<glyph name="eng" format="1">
  <advance width="572"/>
  <unicode hex="014B"/>
  <outline>
    <contour>
      <point x="413" y="-218" type="line"/>
      <point x="457" y="-154"/>
      <point x="492" y="-23"/>
      <point x="493" y="76" type="curve"/>
      <point x="493" y="404" type="line" smooth="yes"/>
      <point x="493" y="503"/>
      <point x="449" y="550"/>
      <point x="357" y="550" type="curve" smooth="yes"/>
      <point x="297" y="550"/>
      <point x="238" y="531"/>
      <point x="125" y="477" type="curve"/>
      <point x="121" y="477" type="line"/>
      <point x="117" y="540" type="line"/>
      <point x="84" y="540" type="line"/>
      <point x="84" y="0" type="line"/>
      <point x="124" y="0" type="line"/>
      <point x="124" y="438" type="line"/>
      <point x="217" y="485"/>
      <point x="294" y="510"/>
      <point x="350" y="510" type="curve" smooth="yes"/>
      <point x="422" y="510"/>
      <point x="453" y="474"/>
      <point x="453" y="389" type="curve" smooth="yes"/>
      <point x="453" y="79" type="line"/>
      <point x="453" y="-10"/>
      <point x="422" y="-129"/>
      <point x="380" y="-204" type="curve"/>
    </contour>
  </outline>
</glyph>
<glyph name="OE" format="1">
  <advance width="921"/>
  <unicode hex="0152"/>
  <outline>
    <contour>
      <point x="363" y="-8" type="curve" smooth="yes"/>
      <point x="396" y="-8"/>
      <point x="432" y="-5"/>
      <point x="458" y="0" type="curve"/>
      <point x="864" y="0" type="line"/>
      <point x="864" y="38" type="line"/>
      <point x="497" y="38" type="line"/>
      <point x="497" y="358" type="line"/>
      <point x="835" y="358" type="line"/>
      <point x="835" y="397" type="line"/>
      <point x="497" y="397" type="line"/>
      <point x="497" y="702" type="line"/>
      <point x="856" y="702" type="line"/>
      <point x="856" y="740" type="line"/>
      <point x="458" y="740" type="line"/>
      <point x="429" y="747"/>
      <point x="397" y="748"/>
      <point x="363" y="748" type="curve" smooth="yes"/>
      <point x="170" y="748"/>
      <point x="58" y="617"/>
      <point x="58" y="369" type="curve" smooth="yes"/>
      <point x="58" y="122"/>
      <point x="170" y="-8"/>
    </contour>
    <contour>
      <point x="363" y="31" type="curve" smooth="yes"/>
      <point x="193" y="31"/>
      <point x="98" y="150"/>
      <point x="98" y="369" type="curve" smooth="yes"/>
      <point x="98" y="590"/>
      <point x="192" y="709"/>
      <point x="363" y="709" type="curve" smooth="yes"/>
      <point x="397" y="709"/>
      <point x="429" y="708"/>
      <point x="457" y="699" type="curve"/>
      <point x="457" y="41" type="line"/>
      <point x="430" y="32"/>
      <point x="396" y="31"/>
    </contour>
  </outline>
</glyph>
<glyph name="oe" format="1">
  <advance width="931"/>
  <unicode hex="0153"/>
  <outline>
    <contour>
      <point x="702" y="-9" type="curve" smooth="yes"/>
      <point x="751" y="-9"/>
      <point x="814" y="3"/>
      <point x="862" y="23" type="curve"/>
      <point x="857" y="59" type="line"/>
      <point x="799" y="38"/>
      <point x="753" y="29"/>
      <point x="706" y="29" type="curve" smooth="yes"/>
      <point x="579" y="29"/>
      <point x="512" y="104"/>
      <point x="509" y="251" type="curve"/>
      <point x="876" y="251" type="line"/>
      <point x="878" y="264"/>
      <point x="879" y="283"/>
      <point x="879" y="313" type="curve" smooth="yes"/>
      <point x="879" y="465"/>
      <point x="813" y="549"/>
      <point x="694" y="549" type="curve" smooth="yes"/>
      <point x="589" y="549"/>
      <point x="520" y="495"/>
      <point x="490" y="399" type="curve"/>
      <point x="486" y="399" type="line"/>
      <point x="458" y="495"/>
      <point x="387" y="550"/>
      <point x="281" y="550" type="curve" smooth="yes"/>
      <point x="135" y="550"/>
      <point x="54" y="450"/>
      <point x="54" y="270" type="curve" smooth="yes"/>
      <point x="54" y="90"/>
      <point x="135" y="-10"/>
      <point x="281" y="-10" type="curve" smooth="yes"/>
      <point x="385" y="-10"/>
      <point x="455" y="43"/>
      <point x="485" y="136" type="curve"/>
      <point x="489" y="136" type="line"/>
      <point x="518" y="43"/>
      <point x="590" y="-9"/>
    </contour>
    <contour>
      <point x="281" y="29" type="curve" smooth="yes"/>
      <point x="157" y="29"/>
      <point x="96" y="109"/>
      <point x="96" y="270" type="curve" smooth="yes"/>
      <point x="96" y="432"/>
      <point x="157" y="512"/>
      <point x="281" y="512" type="curve" smooth="yes"/>
      <point x="405" y="512"/>
      <point x="466" y="432"/>
      <point x="466" y="270" type="curve" smooth="yes"/>
      <point x="466" y="108"/>
      <point x="406" y="29"/>
    </contour>
    <contour>
      <point x="509" y="287" type="line"/>
      <point x="514" y="434"/>
      <point x="579" y="511"/>
      <point x="694" y="511" type="curve" smooth="yes"/>
      <point x="792" y="511"/>
      <point x="835" y="447"/>
      <point x="839" y="287" type="curve"/>
    </contour>
  </outline>
</glyph>
<glyph name="Tbar" format="1">
  <advance width="585"/>
  <unicode hex="0166"/>
  <outline>
    <contour>
      <point x="141" y="371" type="line"/>
      <point x="450" y="371" type="line"/>
      <point x="450" y="405" type="line"/>
      <point x="141" y="405" type="line"/>
    </contour>
    <component base="T" xOffset="4"/>
  </outline>
</glyph>
<glyph name="tbar" format="1">
  <advance width="382"/>
  <unicode hex="0167"/>
  <outline>
    <contour>
      <point x="28" y="313" type="line"/>
      <point x="346" y="313" type="line"/>
      <point x="346" y="350" type="line"/>
      <point x="28" y="350" type="line"/>
    </contour>
    <component base="t" xOffset="12"/>
  </outline>
</glyph>
<glyph name="Schwa" format="1">
  <advance width="659"/>
  <unicode hex="018F"/>
  <outline>
    <contour>
      <point x="559" y="376" type="curve" smooth="yes"/>
      <point x="559" y="151"/>
      <point x="471" y="29"/>
      <point x="313" y="29" type="curve" smooth="yes"/>
      <point x="158" y="29"/>
      <point x="77" y="162"/>
      <point x="95" y="387" type="curve"/>
      <point x="71" y="365" type="line"/>
      <point x="577" y="365" type="line"/>
      <point x="577" y="403" type="line"/>
      <point x="58" y="403" type="line"/>
      <point x="54" y="385"/>
      <point x="53" y="355"/>
      <point x="53" y="322" type="curve" smooth="yes"/>
      <point x="53" y="116"/>
      <point x="152" y="-10"/>
      <point x="316" y="-10" type="curve" smooth="yes"/>
      <point x="496" y="-10"/>
      <point x="600" y="135"/>
      <point x="600" y="387" type="curve" smooth="yes"/>
      <point x="600" y="628"/>
      <point x="497" y="752"/>
      <point x="299" y="752" type="curve" smooth="yes"/>
      <point x="225" y="752"/>
      <point x="130" y="735"/>
      <point x="79" y="712" type="curve"/>
      <point x="79" y="709"/>
      <point x="83" y="677"/>
      <point x="84" y="674" type="curve"/>
      <point x="163" y="699"/>
      <point x="238" y="713"/>
      <point x="301" y="713" type="curve" smooth="yes"/>
      <point x="475" y="713"/>
      <point x="559" y="604"/>
    </contour>
  </outline>
</glyph>
<glyph name="florin" format="1">
  <advance width="358"/>
  <unicode hex="0192"/>
  <outline>
    <contour>
      <point x="146" y="-220" type="line"/>
      <point x="186" y="-189" type="line"/>
      <point x="186" y="502" type="line"/>
      <point x="329" y="502" type="line"/>
      <point x="329" y="540" type="line"/>
      <point x="186" y="540" type="line"/>
      <point x="186" y="595" type="line" smooth="yes"/>
      <point x="189" y="742"/>
      <point x="211" y="767"/>
      <point x="358" y="779" type="curve"/>
      <point x="356" y="812" type="line"/>
      <point x="182" y="802"/>
      <point x="147" y="760"/>
      <point x="147" y="568" type="curve" smooth="yes"/>
      <point x="147" y="540" type="line"/>
      <point x="30" y="540" type="line"/>
      <point x="30" y="502" type="line"/>
      <point x="146" y="502" type="line"/>
    </contour>
  </outline>
</glyph>
<glyph name="Aringacute" format="1">
  <advance width="646"/>
  <unicode hex="01FA"/>
  <outline>
    <contour>
      <point x="12" y="0" type="line"/>
      <point x="53" y="0" type="line"/>
      <point x="147" y="246" type="line"/>
      <point x="500" y="246" type="line"/>
      <point x="593" y="0" type="line"/>
      <point x="634" y="0" type="line"/>
      <point x="634" y="5" type="line"/>
      <point x="385" y="658" type="line"/>
      <point x="416" y="676"/>
      <point x="435" y="708"/>
      <point x="435" y="745" type="curve" smooth="yes"/>
      <point x="435" y="797"/>
      <point x="400" y="838"/>
      <point x="348" y="849" type="curve"/>
      <point x="416" y="950" type="line"/>
      <point x="372" y="950" type="line"/>
      <point x="304" y="851" type="line"/>
      <point x="245" y="844"/>
      <point x="206" y="801"/>
      <point x="206" y="745" type="curve" smooth="yes"/>
      <point x="206" y="706"/>
      <point x="227" y="673"/>
      <point x="260" y="655" type="curve"/>
      <point x="12" y="5" type="line"/>
    </contour>
    <contour>
      <point x="321" y="676" type="curve" smooth="yes"/>
      <point x="274" y="676"/>
      <point x="244" y="703"/>
      <point x="244" y="745" type="curve" smooth="yes"/>
      <point x="244" y="788"/>
      <point x="273" y="816"/>
      <point x="321" y="816" type="curve" smooth="yes"/>
      <point x="369" y="816"/>
      <point x="398" y="788"/>
      <point x="398" y="745" type="curve" smooth="yes"/>
      <point x="398" y="703"/>
      <point x="368" y="676"/>
    </contour>
    <contour>
      <point x="161" y="284" type="line"/>
      <point x="276" y="587" type="line"/>
      <point x="297" y="642" type="line"/>
      <point x="349" y="642" type="line"/>
      <point x="370" y="587" type="line"/>
      <point x="485" y="284" type="line"/>
    </contour>
  </outline>
</glyph>
<glyph name="iinvertedbreve" format="1">
  <advance width="211"/>
  <unicode hex="020B"/>
  <outline>
    <contour>
      <point x="-51" y="629" type="curve"/>
      <point x="-15" y="629" type="line"/>
      <point x="-15" y="706"/>
      <point x="32" y="736"/>
      <point x="109" y="736" type="curve" smooth="yes"/>
      <point x="185" y="736"/>
      <point x="232" y="706"/>
      <point x="232" y="629" type="curve"/>
      <point x="269" y="629" type="line"/>
      <point x="269" y="717"/>
      <point x="215" y="769"/>
      <point x="109" y="769" type="curve" smooth="yes"/>
      <point x="3" y="769"/>
      <point x="-51" y="717"/>
    </contour>
    <component base="dotlessi"/>
  </outline>
</glyph>
<glyph name="dotlessj" format="1">
  <advance width="208"/>
  <unicode hex="0237"/>
  <outline>
    <contour>
      <point x="103" y="606" type="move" name="top"/>
    </contour>
    <contour>
      <point x="35" y="-220" type="line"/>
      <point x="92" y="-128"/>
      <point x="124" y="-19"/>
      <point x="125" y="92" type="curve"/>
      <point x="125" y="540" type="line"/>
      <point x="85" y="540" type="line"/>
      <point x="85" y="533"/>
      <point x="85" y="115"/>
      <point x="85" y="113" type="curve" smooth="yes"/>
      <point x="85" y="-15"/>
      <point x="60" y="-109"/>
      <point x="6" y="-201" type="curve"/>
    </contour>
  </outline>
</glyph>
<glyph name="schwa" format="1">
  <advance width="517"/>
  <unicode hex="0259"/>
  <outline>
    <contour>
      <point x="228" y="549" type="curve" smooth="yes"/>
      <point x="179" y="549"/>
      <point x="117" y="537"/>
      <point x="69" y="517" type="curve"/>
      <point x="74" y="481" type="line"/>
      <point x="132" y="502"/>
      <point x="177" y="511"/>
      <point x="224" y="511" type="curve" smooth="yes"/>
      <point x="356" y="511"/>
      <point x="422" y="431"/>
      <point x="422" y="276" type="curve" smooth="yes"/>
      <point x="422" y="114"/>
      <point x="358" y="29"/>
      <point x="237" y="29" type="curve" smooth="yes"/>
      <point x="132" y="29"/>
      <point x="91" y="99"/>
      <point x="91" y="277" type="curve"/>
      <point x="69" y="253" type="line"/>
      <point x="446" y="253" type="line"/>
      <point x="446" y="289" type="line"/>
      <point x="55" y="289" type="line"/>
      <point x="52" y="276"/>
      <point x="51" y="257"/>
      <point x="51" y="228" type="curve" smooth="yes"/>
      <point x="51" y="75"/>
      <point x="117" y="-9"/>
      <point x="236" y="-9" type="curve" smooth="yes"/>
      <point x="383" y="-9"/>
      <point x="462" y="93"/>
      <point x="462" y="281" type="curve" smooth="yes"/>
      <point x="462" y="455"/>
      <point x="380" y="549"/>
    </contour>
  </outline>
</glyph>
<glyph name="apostrophe" format="1">
  <advance width="206"/>
  <unicode hex="02BC"/>
  <outline>
    <contour>
      <point x="105" y="674" type="move" name="_apostrophe"/>
    </contour>
    <contour>
      <point x="84" y="808" type="line"/>
      <point x="84" y="580" type="line"/>
      <point x="101" y="580" type="line"/>
      <point x="126" y="804" type="line"/>
      <point x="126" y="808" type="line"/>
    </contour>
  </outline>
</glyph>
<glyph name="circumflex" format="1">
  <advance width="427"/>
  <unicode hex="02C6"/>
  <outline>
    <contour>
      <point x="211" y="602" type="move" name="_top"/>
    </contour>
    <contour>
      <point x="65" y="642" type="line"/>
      <point x="211" y="714" type="line"/>
      <point x="357" y="642" type="line"/>
      <point x="357" y="686" type="line"/>
      <point x="211" y="758" type="line"/>
      <point x="65" y="686" type="line"/>
    </contour>
  </outline>
</glyph>
<glyph name="caron" format="1">
  <advance width="393"/>
  <unicode hex="02C7"/>
  <outline>
    <contour>
      <point x="194" y="602" type="move" name="_top"/>
    </contour>
    <contour>
      <point x="50" y="703" type="line"/>
      <point x="196" y="631" type="line"/>
      <point x="342" y="703" type="line"/>
      <point x="342" y="747" type="line"/>
      <point x="196" y="675" type="line"/>
      <point x="50" y="747" type="line"/>
    </contour>
  </outline>
</glyph>
<glyph name="breve" format="1">
  <advance width="461"/>
  <unicode hex="02D8"/>
  <outline>
    <contour>
      <point x="228" y="602" type="move" name="_top"/>
    </contour>
    <contour>
      <point x="228" y="621" type="curve" smooth="yes"/>
      <point x="336" y="621"/>
      <point x="390" y="673"/>
      <point x="390" y="761" type="curve"/>
      <point x="352" y="761" type="line"/>
      <point x="352" y="683"/>
      <point x="305" y="653"/>
      <point x="228" y="653" type="curve" smooth="yes"/>
      <point x="151" y="653"/>
      <point x="104" y="683"/>
      <point x="104" y="761" type="curve"/>
      <point x="67" y="761" type="line"/>
      <point x="67" y="673"/>
      <point x="122" y="621"/>
    </contour>
  </outline>
</glyph>
<glyph name="dotaccent" format="1">
  <advance width="228"/>
  <unicode hex="02D9"/>
  <outline>
    <contour>
      <point x="105" y="602" type="move" name="_top"/>
    </contour>
    <contour>
      <point x="105" y="662" type="curve" smooth="yes"/>
      <point x="124" y="662"/>
      <point x="141" y="672"/>
      <point x="141" y="696" type="curve" smooth="yes"/>
      <point x="141" y="721"/>
      <point x="124" y="731"/>
      <point x="105" y="731" type="curve" smooth="yes"/>
      <point x="85" y="731"/>
      <point x="70" y="721"/>
      <point x="70" y="696" type="curve" smooth="yes"/>
      <point x="70" y="672"/>
      <point x="85" y="662"/>
    </contour>
  </outline>
</glyph>
<glyph name="ring" format="1">
  <advance width="348"/>
  <unicode hex="02DA"/>
  <outline>
    <contour>
      <point x="172" y="602" type="move" name="_top"/>
    </contour>
    <contour>
      <point x="172" y="608" type="curve" smooth="yes"/>
      <point x="238" y="608"/>
      <point x="284" y="653"/>
      <point x="284" y="712" type="curve" smooth="yes"/>
      <point x="284" y="772"/>
      <point x="238" y="818"/>
      <point x="172" y="818" type="curve" smooth="yes"/>
      <point x="106" y="818"/>
      <point x="59" y="772"/>
      <point x="59" y="712" type="curve" smooth="yes"/>
      <point x="59" y="653"/>
      <point x="107" y="608"/>
    </contour>
    <contour>
      <point x="172" y="643" type="curve" smooth="yes"/>
      <point x="125" y="643"/>
      <point x="96" y="670"/>
      <point x="96" y="712" type="curve" smooth="yes"/>
      <point x="96" y="755"/>
      <point x="125" y="783"/>
      <point x="172" y="783" type="curve" smooth="yes"/>
      <point x="220" y="783"/>
      <point x="248" y="755"/>
      <point x="248" y="712" type="curve" smooth="yes"/>
      <point x="248" y="670"/>
      <point x="219" y="643"/>
    </contour>
  </outline>
</glyph>
<glyph name="ogonek" format="1">
  <advance width="282"/>
  <unicode hex="02DB"/>
  <outline>
    <contour>
      <point x="214" y="1" type="move" name="_ogonek"/>
    </contour>
    <contour>
      <point x="149" y="-220" type="curve" smooth="yes"/>
      <point x="173" y="-220"/>
      <point x="198" y="-215"/>
      <point x="215" y="-208" type="curve"/>
      <point x="215" y="-177" type="line"/>
      <point x="196" y="-183"/>
      <point x="175" y="-187"/>
      <point x="155" y="-187" type="curve" smooth="yes"/>
      <point x="122" y="-187"/>
      <point x="102" y="-176"/>
      <point x="102" y="-143" type="curve" smooth="yes"/>
      <point x="102" y="-92"/>
      <point x="147" y="-53"/>
      <point x="217" y="-22" type="curve"/>
      <point x="217" y="0" type="line"/>
      <point x="181" y="0" type="line"/>
      <point x="91" y="-56"/>
      <point x="65" y="-90"/>
      <point x="65" y="-143" type="curve" smooth="yes"/>
      <point x="65" y="-196"/>
      <point x="92" y="-220"/>
    </contour>
  </outline>
</glyph>
<glyph name="tilde" format="1">
  <advance width="485"/>
  <unicode hex="02DC"/>
  <outline>
    <contour>
      <point x="235" y="602" type="move" name="_top"/>
    </contour>
    <contour>
      <point x="71" y="657" type="line"/>
      <point x="98" y="682"/>
      <point x="127" y="695"/>
      <point x="156" y="695" type="curve" smooth="yes"/>
      <point x="206" y="695"/>
      <point x="252" y="652"/>
      <point x="305" y="652" type="curve" smooth="yes"/>
      <point x="347" y="652"/>
      <point x="389" y="672"/>
      <point x="419" y="704" type="curve"/>
      <point x="394" y="727" type="line"/>
      <point x="368" y="702"/>
      <point x="339" y="689"/>
      <point x="308" y="689" type="curve" smooth="yes"/>
      <point x="253" y="689"/>
      <point x="216" y="732"/>
      <point x="155" y="732" type="curve" smooth="yes"/>
      <point x="118" y="732"/>
      <point x="80" y="714"/>
      <point x="47" y="682" type="curve"/>
    </contour>
  </outline>
</glyph>
<glyph name="hungarumlaut" format="1">
  <advance width="389"/>
  <unicode hex="02DD"/>
  <outline>
    <contour>
      <point x="155" y="602" type="move" name="_top"/>
    </contour>
    <contour>
      <point x="87" y="617" type="line"/>
      <point x="176" y="806" type="line"/>
      <point x="129" y="806" type="line"/>
      <point x="55" y="627" type="line"/>
    </contour>
    <contour>
      <point x="253" y="617" type="line"/>
      <point x="342" y="806" type="line"/>
      <point x="295" y="806" type="line"/>
      <point x="221" y="627" type="line"/>
    </contour>
  </outline>
</glyph>
<glyph name="uni030F" format="1">
  <advance width="398"/>
  <unicode hex="030F"/>
  <outline>
    <contour>
      <point x="231" y="602" type="move" name="_top"/>
    </contour>
    <contour>
      <point x="167" y="627" type="line"/>
      <point x="94" y="806" type="line"/>
      <point x="47" y="806" type="line"/>
      <point x="136" y="617" type="line"/>
    </contour>
    <contour>
      <point x="334" y="627" type="line"/>
      <point x="260" y="806" type="line"/>
      <point x="213" y="806" type="line"/>
      <point x="302" y="617" type="line"/>
    </contour>
  </outline>
</glyph>
<glyph name="uni0311" format="1">
  <advance width="460"/>
  <unicode hex="0311"/>
  <outline>
    <contour>
      <point x="223" y="602" type="move" name="_top"/>
    </contour>
    <contour>
      <point x="64" y="629" type="curve"/>
      <point x="101" y="629" type="line"/>
      <point x="101" y="706"/>
      <point x="148" y="736"/>
      <point x="225" y="736" type="curve" smooth="yes"/>
      <point x="302" y="736"/>
      <point x="349" y="706"/>
      <point x="349" y="629" type="curve"/>
      <point x="387" y="629" type="line"/>
      <point x="387" y="717"/>
      <point x="333" y="769"/>
      <point x="225" y="769" type="curve" smooth="yes"/>
      <point x="119" y="769"/>
      <point x="64" y="717"/>
    </contour>
  </outline>
</glyph>
<glyph name="uni0394" format="1">
  <advance width="665"/>
  <unicode hex="0394"/>
  <outline>
    <contour>
      <point x="10" y="0" type="line"/>
      <point x="655" y="0" type="line"/>
      <point x="359" y="740" type="line"/>
      <point x="307" y="740" type="line"/>
    </contour>
    <contour>
      <point x="67" y="38" type="line"/>
      <point x="332" y="700" type="line"/>
      <point x="598" y="38" type="line"/>
    </contour>
  </outline>
</glyph>
<glyph name="uni03A9" format="1">
  <advance width="762"/>
  <unicode hex="03A9"/>
  <outline>
    <contour>
      <point x="53" y="0" type="line"/>
      <point x="322" y="0" type="line"/>
      <point x="322" y="35" type="line"/>
      <point x="258" y="73"/>
      <point x="104" y="158"/>
      <point x="104" y="399" type="curve" smooth="yes"/>
      <point x="104" y="587"/>
      <point x="214" y="711"/>
      <point x="381" y="711" type="curve" smooth="yes"/>
      <point x="548" y="711"/>
      <point x="659" y="587"/>
      <point x="659" y="399" type="curve" smooth="yes"/>
      <point x="659" y="222"/>
      <point x="565" y="109"/>
      <point x="440" y="35" type="curve"/>
      <point x="440" y="0" type="line"/>
      <point x="709" y="0" type="line"/>
      <point x="709" y="38" type="line"/>
      <point x="500" y="38" type="line"/>
      <point x="617" y="112"/>
      <point x="698" y="233"/>
      <point x="698" y="399" type="curve" smooth="yes"/>
      <point x="698" y="611"/>
      <point x="573" y="750"/>
      <point x="381" y="750" type="curve" smooth="yes"/>
      <point x="190" y="750"/>
      <point x="64" y="611"/>
      <point x="64" y="399" type="curve" smooth="yes"/>
      <point x="64" y="233"/>
      <point x="144" y="112"/>
      <point x="262" y="38" type="curve"/>
      <point x="53" y="38" type="line"/>
    </contour>
  </outline>
</glyph>
<glyph name="pi" format="1">
  <advance width="715"/>
  <unicode hex="03C0"/>
  <outline>
    <contour>
      <point x="203" y="-102" type="line"/>
      <point x="243" y="-102" type="line"/>
      <point x="243" y="502" type="line"/>
      <point x="503" y="502" type="line"/>
      <point x="503" y="113" type="line" smooth="yes"/>
      <point x="503" y="40"/>
      <point x="545" y="-1"/>
      <point x="614" y="-1" type="curve" smooth="yes"/>
      <point x="616" y="-1"/>
      <point x="633" y="0"/>
      <point x="634" y="0" type="curve"/>
      <point x="634" y="38" type="line"/>
      <point x="634" y="38"/>
      <point x="617" y="38"/>
      <point x="617" y="38" type="curve" smooth="yes"/>
      <point x="575" y="38"/>
      <point x="543" y="69"/>
      <point x="543" y="115" type="curve" smooth="yes"/>
      <point x="543" y="502" type="line"/>
      <point x="690" y="502" type="line"/>
      <point x="690" y="524" type="line"/>
      <point x="673" y="540" type="line"/>
      <point x="171" y="540" type="line" smooth="yes"/>
      <point x="90" y="540"/>
      <point x="41" y="507"/>
      <point x="18" y="433" type="curve"/>
      <point x="53" y="417" type="line"/>
      <point x="69" y="477"/>
      <point x="105" y="502"/>
      <point x="174" y="502" type="curve" smooth="yes"/>
      <point x="203" y="502" type="line"/>
    </contour>
  </outline>
</glyph>
<glyph name="endash" format="1">
  <advance width="581"/>
  <unicode hex="2013"/>
  <outline>
    <contour>
      <point x="76" y="260" type="line"/>
      <point x="505" y="260" type="line"/>
      <point x="505" y="300" type="line"/>
      <point x="76" y="300" type="line"/>
    </contour>
  </outline>
</glyph>
<glyph name="emdash" format="1">
  <advance width="752"/>
  <unicode hex="2014"/>
  <outline>
    <contour>
      <point x="76" y="260" type="line"/>
      <point x="676" y="260" type="line"/>
      <point x="676" y="300" type="line"/>
      <point x="76" y="300" type="line"/>
    </contour>
  </outline>
</glyph>
<glyph name="quoteleft" format="1">
  <advance width="188"/>
  <unicode hex="2018"/>
  <outline>
    <contour>
      <point x="78" y="529" type="curve"/>
      <point x="117" y="538" type="line"/>
      <point x="105" y="573"/>
      <point x="100" y="604"/>
      <point x="100" y="632" type="curve" smooth="yes"/>
      <point x="100" y="686"/>
      <point x="113" y="751"/>
      <point x="133" y="803" type="curve"/>
      <point x="110" y="811" type="line"/>
      <point x="82" y="765"/>
      <point x="64" y="692"/>
      <point x="64" y="630" type="curve" smooth="yes"/>
      <point x="64" y="589"/>
      <point x="68" y="557"/>
    </contour>
  </outline>
</glyph>
<glyph name="quoteright" format="1">
  <advance width="188"/>
  <unicode hex="2019"/>
  <outline>
    <contour>
      <point x="75" y="801" type="line"/>
      <point x="86" y="767"/>
      <point x="91" y="736"/>
      <point x="91" y="707" type="curve" smooth="yes"/>
      <point x="91" y="653"/>
      <point x="78" y="588"/>
      <point x="58" y="536" type="curve"/>
      <point x="81" y="529" type="line"/>
      <point x="109" y="575"/>
      <point x="128" y="648"/>
      <point x="128" y="709" type="curve" smooth="yes"/>
      <point x="128" y="751"/>
      <point x="124" y="782"/>
      <point x="114" y="811" type="curve"/>
    </contour>
  </outline>
</glyph>
<glyph name="dagger" format="1">
  <advance width="487"/>
  <unicode hex="2020"/>
  <outline>
    <contour>
      <point x="234" y="65" type="line"/>
      <point x="254" y="65" type="line"/>
      <point x="265" y="265" type="line"/>
      <point x="265" y="345" type="line"/>
      <point x="254" y="527" type="line"/>
      <point x="406" y="515" type="line"/>
      <point x="452" y="515" type="line"/>
      <point x="452" y="559" type="line"/>
      <point x="406" y="559" type="line"/>
      <point x="254" y="547" type="line"/>
      <point x="264" y="729" type="line"/>
      <point x="264" y="808" type="line"/>
      <point x="221" y="808" type="line"/>
      <point x="221" y="729" type="line"/>
      <point x="234" y="547" type="line"/>
      <point x="82" y="559" type="line"/>
      <point x="35" y="559" type="line"/>
      <point x="35" y="515" type="line"/>
      <point x="82" y="515" type="line"/>
      <point x="234" y="527" type="line"/>
      <point x="222" y="345" type="line"/>
      <point x="222" y="265" type="line"/>
    </contour>
  </outline>
</glyph>
<glyph name="daggerdbl" format="1">
  <advance width="544"/>
  <unicode hex="2021"/>
  <outline>
    <contour>
      <point x="250" y="-199" type="line"/>
      <point x="294" y="-199" type="line"/>
      <point x="294" y="-119" type="line"/>
      <point x="282" y="63" type="line"/>
      <point x="434" y="51" type="line"/>
      <point x="481" y="51" type="line"/>
      <point x="481" y="94" type="line"/>
      <point x="434" y="94" type="line"/>
      <point x="282" y="82" type="line"/>
      <point x="294" y="265" type="line"/>
      <point x="294" y="345" type="line"/>
      <point x="282" y="527" type="line"/>
      <point x="434" y="515" type="line"/>
      <point x="481" y="515" type="line"/>
      <point x="481" y="559" type="line"/>
      <point x="434" y="559" type="line"/>
      <point x="282" y="547" type="line"/>
      <point x="293" y="729" type="line"/>
      <point x="293" y="808" type="line"/>
      <point x="250" y="808" type="line"/>
      <point x="250" y="729" type="line"/>
      <point x="262" y="547" type="line"/>
      <point x="110" y="559" type="line"/>
      <point x="63" y="559" type="line"/>
      <point x="63" y="515" type="line"/>
      <point x="110" y="515" type="line"/>
      <point x="262" y="527" type="line"/>
      <point x="250" y="346" type="line"/>
      <point x="250" y="265" type="line"/>
      <point x="262" y="82" type="line"/>
      <point x="110" y="94" type="line"/>
      <point x="63" y="94" type="line"/>
      <point x="63" y="51" type="line"/>
      <point x="110" y="51" type="line"/>
      <point x="262" y="63" type="line"/>
      <point x="250" y="-119" type="line"/>
    </contour>
  </outline>
</glyph>
<glyph name="bullet" format="1">
  <advance width="308"/>
  <unicode hex="2022"/>
  <outline>
    <contour>
      <point x="154" y="309" type="curve" smooth="yes"/>
      <point x="185" y="309"/>
      <point x="215" y="321"/>
      <point x="215" y="370" type="curve" smooth="yes"/>
      <point x="215" y="419"/>
      <point x="185" y="431"/>
      <point x="154" y="431" type="curve" smooth="yes"/>
      <point x="123" y="431"/>
      <point x="94" y="419"/>
      <point x="94" y="370" type="curve" smooth="yes"/>
      <point x="94" y="321"/>
      <point x="123" y="309"/>
    </contour>
  </outline>
</glyph>
<glyph name="perthousand" format="1">
  <advance width="1283"/>
  <unicode hex="2030"/>
  <outline>
    <contour>
      <point x="208" y="280" type="curve" smooth="yes"/>
      <point x="315" y="280"/>
      <point x="370" y="360"/>
      <point x="370" y="515" type="curve" smooth="yes"/>
      <point x="370" y="669"/>
      <point x="315" y="750"/>
      <point x="208" y="750" type="curve" smooth="yes"/>
      <point x="101" y="750"/>
      <point x="45" y="669"/>
      <point x="45" y="515" type="curve" smooth="yes"/>
      <point x="45" y="360"/>
      <point x="101" y="280"/>
    </contour>
    <contour>
      <point x="208" y="317" type="curve" smooth="yes"/>
      <point x="126" y="317"/>
      <point x="83" y="385"/>
      <point x="83" y="515" type="curve" smooth="yes"/>
      <point x="83" y="645"/>
      <point x="126" y="713"/>
      <point x="208" y="713" type="curve" smooth="yes"/>
      <point x="289" y="713"/>
      <point x="332" y="645"/>
      <point x="332" y="515" type="curve" smooth="yes"/>
      <point x="332" y="385"/>
      <point x="290" y="317"/>
    </contour>
    <contour>
      <point x="683" y="-11" type="curve" smooth="yes"/>
      <point x="790" y="-11"/>
      <point x="845" y="69"/>
      <point x="845" y="225" type="curve" smooth="yes"/>
      <point x="845" y="379"/>
      <point x="790" y="459"/>
      <point x="683" y="459" type="curve" smooth="yes"/>
      <point x="576" y="459"/>
      <point x="520" y="379"/>
      <point x="520" y="225" type="curve" smooth="yes"/>
      <point x="520" y="69"/>
      <point x="576" y="-11"/>
    </contour>
    <contour>
      <point x="683" y="26" type="curve" smooth="yes"/>
      <point x="601" y="26"/>
      <point x="558" y="94"/>
      <point x="558" y="225" type="curve" smooth="yes"/>
      <point x="558" y="354"/>
      <point x="601" y="422"/>
      <point x="683" y="422" type="curve" smooth="yes"/>
      <point x="764" y="422"/>
      <point x="807" y="354"/>
      <point x="807" y="225" type="curve" smooth="yes"/>
      <point x="807" y="95"/>
      <point x="765" y="26"/>
    </contour>
    <contour>
      <point x="1075" y="-11" type="curve" smooth="yes"/>
      <point x="1182" y="-11"/>
      <point x="1237" y="70"/>
      <point x="1237" y="225" type="curve" smooth="yes"/>
      <point x="1237" y="379"/>
      <point x="1182" y="459"/>
      <point x="1075" y="459" type="curve" smooth="yes"/>
      <point x="968" y="459"/>
      <point x="912" y="379"/>
      <point x="912" y="225" type="curve" smooth="yes"/>
      <point x="912" y="69"/>
      <point x="968" y="-11"/>
    </contour>
    <contour>
      <point x="1075" y="26" type="curve" smooth="yes"/>
      <point x="993" y="26"/>
      <point x="950" y="94"/>
      <point x="950" y="225" type="curve" smooth="yes"/>
      <point x="950" y="354"/>
      <point x="993" y="422"/>
      <point x="1075" y="422" type="curve" smooth="yes"/>
      <point x="1157" y="422"/>
      <point x="1199" y="354"/>
      <point x="1199" y="225" type="curve" smooth="yes"/>
      <point x="1199" y="95"/>
      <point x="1157" y="26"/>
    </contour>
    <contour>
      <point x="251" y="0" type="line"/>
      <point x="294" y="0" type="line"/>
      <point x="638" y="740" type="line"/>
      <point x="596" y="740" type="line"/>
    </contour>
  </outline>
</glyph>
<glyph name="guilsinglleft" format="1">
  <advance width="316"/>
  <unicode hex="2039"/>
  <outline>
    <contour>
      <point x="218" y="30" type="line"/>
      <point x="264" y="30" type="line"/>
      <point x="84" y="268" type="line"/>
      <point x="84" y="272" type="line"/>
      <point x="264" y="510" type="line"/>
      <point x="218" y="510" type="line"/>
      <point x="38" y="272" type="line"/>
      <point x="38" y="268" type="line"/>
    </contour>
  </outline>
</glyph>
<glyph name="guilsinglright" format="1">
  <advance width="316"/>
  <unicode hex="203A"/>
  <outline>
    <contour>
      <point x="278" y="268" type="line"/>
      <point x="278" y="272" type="line"/>
      <point x="98" y="510" type="line"/>
      <point x="52" y="510" type="line"/>
      <point x="231" y="272" type="line"/>
      <point x="231" y="268" type="line"/>
      <point x="52" y="30" type="line"/>
      <point x="98" y="30" type="line"/>
    </contour>
  </outline>
</glyph>
<glyph name="fraction" format="1">
  <advance width="209"/>
  <unicode hex="2044"/>
  <outline>
    <contour>
      <point x="-89" y="0" type="line"/>
      <point x="-46" y="0" type="line"/>
      <point x="298" y="740" type="line"/>
      <point x="256" y="740" type="line"/>
    </contour>
  </outline>
</glyph>
<glyph name="zerosuperior" format="1">
  <advance width="482"/>
  <unicode hex="2070"/>
  <outline>
    <contour>
      <point x="241" y="292" type="curve"/>
      <point x="365" y="292"/>
      <point x="431" y="388"/>
      <point x="431" y="573" type="curve" smooth="yes"/>
      <point x="431" y="757"/>
      <point x="365" y="854"/>
      <point x="241" y="854" type="curve" smooth="yes"/>
      <point x="117" y="854"/>
      <point x="52" y="757"/>
      <point x="52" y="573" type="curve" smooth="yes"/>
      <point x="52" y="388"/>
      <point x="117" y="292"/>
    </contour>
    <contour>
      <point x="241" y="330" type="curve" smooth="yes"/>
      <point x="142" y="330"/>
      <point x="91" y="413"/>
      <point x="91" y="573" type="curve" smooth="yes"/>
      <point x="91" y="731"/>
      <point x="142" y="816"/>
      <point x="241" y="816" type="curve" smooth="yes"/>
      <point x="339" y="816"/>
      <point x="392" y="731"/>
      <point x="392" y="573" type="curve" smooth="yes"/>
      <point x="392" y="414"/>
      <point x="340" y="330"/>
    </contour>
  </outline>
</glyph>
<glyph name="foursuperior" format="1">
  <advance width="434"/>
  <unicode hex="2074"/>
  <outline>
    <contour>
      <point x="284" y="300" type="line"/>
      <point x="323" y="300" type="line"/>
      <point x="323" y="438" type="line"/>
      <point x="404" y="438" type="line"/>
      <point x="404" y="475" type="line"/>
      <point x="323" y="475" type="line"/>
      <point x="323" y="677" type="line"/>
      <point x="295" y="677" type="line"/>
      <point x="286" y="475" type="line"/>
      <point x="73" y="475" type="line"/>
      <point x="241" y="837" type="line"/>
      <point x="240" y="845" type="line"/>
      <point x="216" y="854" type="line"/>
      <point x="209" y="854" type="line"/>
      <point x="25" y="463" type="line"/>
      <point x="41" y="438" type="line"/>
      <point x="284" y="438" type="line"/>
    </contour>
  </outline>
</glyph>
<glyph name="fivesuperior" format="1">
  <advance width="386"/>
  <unicode hex="2075"/>
  <outline>
    <contour>
      <point x="153" y="292" type="curve" smooth="yes"/>
      <point x="276" y="292"/>
      <point x="342" y="344"/>
      <point x="342" y="459" type="curve" smooth="yes"/>
      <point x="342" y="572"/>
      <point x="272" y="613"/>
      <point x="102" y="616" type="curve"/>
      <point x="116" y="808" type="line"/>
      <point x="322" y="808" type="line"/>
      <point x="322" y="846" type="line"/>
      <point x="82" y="846" type="line"/>
      <point x="62" y="586" type="line"/>
      <point x="68" y="581" type="line"/>
      <point x="125" y="579" type="line" smooth="yes"/>
      <point x="247" y="577"/>
      <point x="303" y="544"/>
      <point x="303" y="459" type="curve" smooth="yes"/>
      <point x="303" y="368"/>
      <point x="252" y="330"/>
      <point x="151" y="330" type="curve" smooth="yes"/>
      <point x="122" y="330"/>
      <point x="91" y="334"/>
      <point x="57" y="341" type="curve"/>
      <point x="47" y="341" type="line"/>
      <point x="47" y="304" type="line"/>
      <point x="84" y="297"/>
      <point x="121" y="292"/>
    </contour>
  </outline>
</glyph>
<glyph name="sixsuperior" format="1">
  <advance width="449"/>
  <unicode hex="2076"/>
  <outline>
    <contour>
      <point x="236" y="292" type="curve" smooth="yes"/>
      <point x="339" y="292"/>
      <point x="408" y="365"/>
      <point x="408" y="474" type="curve" smooth="yes"/>
      <point x="408" y="573"/>
      <point x="343" y="633"/>
      <point x="237" y="633" type="curve" smooth="yes"/>
      <point x="191" y="633"/>
      <point x="137" y="613"/>
      <point x="91" y="579" type="curve"/>
      <point x="102" y="729"/>
      <point x="171" y="817"/>
      <point x="282" y="817" type="curve" smooth="yes"/>
      <point x="311" y="817"/>
      <point x="336" y="813"/>
      <point x="373" y="803" type="curve"/>
      <point x="373" y="842" type="line"/>
      <point x="339" y="851"/>
      <point x="311" y="855"/>
      <point x="282" y="855" type="curve" smooth="yes"/>
      <point x="136" y="855"/>
      <point x="51" y="738"/>
      <point x="51" y="540" type="curve" smooth="yes"/>
      <point x="51" y="375"/>
      <point x="114" y="292"/>
    </contour>
    <contour>
      <point x="236" y="329" type="curve" smooth="yes"/>
      <point x="139" y="329"/>
      <point x="92" y="397"/>
      <point x="90" y="536" type="curve"/>
      <point x="133" y="573"/>
      <point x="190" y="596"/>
      <point x="236" y="596" type="curve" smooth="yes"/>
      <point x="319" y="596"/>
      <point x="369" y="551"/>
      <point x="369" y="473" type="curve" smooth="yes"/>
      <point x="369" y="387"/>
      <point x="317" y="329"/>
    </contour>
  </outline>
</glyph>
<glyph name="sevensuperior" format="1">
  <advance width="348"/>
  <unicode hex="2077"/>
  <outline>
    <contour>
      <point x="118" y="290" type="line"/>
      <point x="89" y="299" type="line"/>
      <point x="88" y="311" type="line"/>
      <point x="294" y="828" type="line"/>
      <point x="296" y="802" type="line"/>
      <point x="32" y="802" type="line"/>
      <point x="28" y="835" type="line"/>
      <point x="30" y="839" type="line"/>
      <point x="308" y="839" type="line"/>
      <point x="320" y="822" type="line"/>
      <point x="320" y="791" type="line"/>
      <point x="129" y="297" type="line"/>
    </contour>
  </outline>
</glyph>
<glyph name="eightsuperior" format="1">
  <advance width="448"/>
  <unicode hex="2078"/>
  <outline>
    <contour>
      <point x="224" y="297" type="curve" smooth="yes"/>
      <point x="328" y="297"/>
      <point x="399" y="348"/>
      <point x="399" y="440" type="curve" smooth="yes"/>
      <point x="399" y="513"/>
      <point x="356" y="550"/>
      <point x="297" y="574" type="curve"/>
      <point x="337" y="596"/>
      <point x="379" y="639"/>
      <point x="379" y="714" type="curve" smooth="yes"/>
      <point x="379" y="809"/>
      <point x="315" y="854"/>
      <point x="224" y="854" type="curve" smooth="yes"/>
      <point x="131" y="854"/>
      <point x="66" y="808"/>
      <point x="66" y="714" type="curve" smooth="yes"/>
      <point x="66" y="651"/>
      <point x="97" y="614"/>
      <point x="142" y="590" type="curve"/>
      <point x="97" y="568"/>
      <point x="50" y="524"/>
      <point x="50" y="442" type="curve" smooth="yes"/>
      <point x="50" y="345"/>
      <point x="119" y="297"/>
    </contour>
    <contour>
      <point x="224" y="334" type="curve" smooth="yes"/>
      <point x="142" y="334"/>
      <point x="89" y="370"/>
      <point x="89" y="443" type="curve" smooth="yes"/>
      <point x="89" y="526"/>
      <point x="152" y="558"/>
      <point x="187" y="572" type="curve"/>
      <point x="198" y="567"/>
      <point x="216" y="562"/>
      <point x="227" y="558" type="curve" smooth="yes"/>
      <point x="301" y="537"/>
      <point x="360" y="514"/>
      <point x="360" y="440" type="curve" smooth="yes"/>
      <point x="360" y="372"/>
      <point x="304" y="334"/>
    </contour>
    <contour>
      <point x="250" y="590" type="curve"/>
      <point x="247" y="591"/>
      <point x="240" y="593"/>
      <point x="236" y="594" type="curve" smooth="yes"/>
      <point x="166" y="616"/>
      <point x="105" y="640"/>
      <point x="105" y="714" type="curve" smooth="yes"/>
      <point x="105" y="783"/>
      <point x="154" y="817"/>
      <point x="224" y="817" type="curve" smooth="yes"/>
      <point x="292" y="817"/>
      <point x="341" y="784"/>
      <point x="341" y="714" type="curve" smooth="yes"/>
      <point x="341" y="638"/>
      <point x="283" y="603"/>
    </contour>
  </outline>
</glyph>
<glyph name="ninesuperior" format="1">
  <advance width="449"/>
  <unicode hex="2079"/>
  <outline>
    <contour>
      <point x="167" y="292" type="curve" smooth="yes"/>
      <point x="312" y="292"/>
      <point x="397" y="408"/>
      <point x="397" y="607" type="curve" smooth="yes"/>
      <point x="397" y="771"/>
      <point x="335" y="855"/>
      <point x="213" y="855" type="curve" smooth="yes"/>
      <point x="110" y="855"/>
      <point x="41" y="782"/>
      <point x="41" y="672" type="curve" smooth="yes"/>
      <point x="41" y="574"/>
      <point x="107" y="513"/>
      <point x="212" y="513" type="curve" smooth="yes"/>
      <point x="257" y="513"/>
      <point x="311" y="533"/>
      <point x="358" y="568" type="curve"/>
      <point x="347" y="418"/>
      <point x="277" y="330"/>
      <point x="166" y="330" type="curve" smooth="yes"/>
      <point x="138" y="330"/>
      <point x="113" y="333"/>
      <point x="77" y="344" type="curve"/>
      <point x="76" y="304" type="line"/>
      <point x="112" y="296"/>
      <point x="140" y="292"/>
    </contour>
    <contour>
      <point x="214" y="550" type="curve" smooth="yes"/>
      <point x="130" y="550"/>
      <point x="81" y="596"/>
      <point x="81" y="673" type="curve" smooth="yes"/>
      <point x="81" y="760"/>
      <point x="133" y="818"/>
      <point x="213" y="818" type="curve" smooth="yes"/>
      <point x="309" y="818"/>
      <point x="358" y="750"/>
      <point x="359" y="611" type="curve"/>
      <point x="315" y="574"/>
      <point x="259" y="550"/>
    </contour>
  </outline>
</glyph>
<glyph name="zeroinferior" format="1">
  <advance width="482"/>
  <unicode hex="2080"/>
  <outline>
    <contour>
      <point x="241" y="-108" type="curve"/>
      <point x="365" y="-108"/>
      <point x="431" y="-12"/>
      <point x="431" y="173" type="curve" smooth="yes"/>
      <point x="431" y="357"/>
      <point x="365" y="454"/>
      <point x="241" y="454" type="curve" smooth="yes"/>
      <point x="117" y="454"/>
      <point x="52" y="357"/>
      <point x="52" y="173" type="curve" smooth="yes"/>
      <point x="52" y="-12"/>
      <point x="117" y="-108"/>
    </contour>
    <contour>
      <point x="241" y="-70" type="curve" smooth="yes"/>
      <point x="142" y="-70"/>
      <point x="91" y="13"/>
      <point x="91" y="173" type="curve" smooth="yes"/>
      <point x="91" y="331"/>
      <point x="142" y="416"/>
      <point x="241" y="416" type="curve" smooth="yes"/>
      <point x="339" y="416"/>
      <point x="392" y="331"/>
      <point x="392" y="173" type="curve" smooth="yes"/>
      <point x="392" y="14"/>
      <point x="340" y="-70"/>
    </contour>
  </outline>
</glyph>
<glyph name="oneinferior" format="1">
  <advance width="294"/>
  <unicode hex="2081"/>
  <outline>
    <contour>
      <point x="170" y="-100" type="line"/>
      <point x="209" y="-100" type="line"/>
      <point x="209" y="446" type="line"/>
      <point x="181" y="446" type="line"/>
      <point x="27" y="351" type="line"/>
      <point x="27" y="344" type="line"/>
      <point x="35" y="322" type="line"/>
      <point x="44" y="322" type="line"/>
      <point x="170" y="395" type="line"/>
    </contour>
  </outline>
</glyph>
<glyph name="twoinferior" format="1">
  <advance width="398"/>
  <unicode hex="2082"/>
  <outline>
    <contour>
      <point x="45" y="-98" type="line"/>
      <point x="349" y="-98" type="line"/>
      <point x="349" y="-61" type="line"/>
      <point x="86" y="-61" type="line"/>
      <point x="86" y="-25" type="line" smooth="yes"/>
      <point x="86" y="45"/>
      <point x="120" y="89"/>
      <point x="216" y="146" type="curve" smooth="yes"/>
      <point x="314" y="204"/>
      <point x="346" y="246"/>
      <point x="346" y="314" type="curve" smooth="yes"/>
      <point x="346" y="405"/>
      <point x="296" y="452"/>
      <point x="197" y="452" type="curve" smooth="yes"/>
      <point x="156" y="452"/>
      <point x="112" y="446"/>
      <point x="60" y="431" type="curve"/>
      <point x="68" y="395" type="line"/>
      <point x="121" y="408"/>
      <point x="161" y="414"/>
      <point x="196" y="414" type="curve" smooth="yes"/>
      <point x="270" y="414"/>
      <point x="308" y="380"/>
      <point x="308" y="313" type="curve" smooth="yes"/>
      <point x="308" y="262"/>
      <point x="278" y="227"/>
      <point x="194" y="178" type="curve" smooth="yes"/>
      <point x="86" y="114"/>
      <point x="45" y="58"/>
      <point x="45" y="-27" type="curve" smooth="yes"/>
    </contour>
  </outline>
</glyph>
<glyph name="threeinferior" format="1">
  <advance width="380"/>
  <unicode hex="2083"/>
  <outline>
    <contour>
      <point x="149" y="-107" type="curve" smooth="yes"/>
      <point x="265" y="-107"/>
      <point x="330" y="-51"/>
      <point x="330" y="48" type="curve" smooth="yes"/>
      <point x="330" y="117"/>
      <point x="297" y="164"/>
      <point x="236" y="181" type="curve"/>
      <point x="287" y="200"/>
      <point x="316" y="244"/>
      <point x="316" y="305" type="curve" smooth="yes"/>
      <point x="316" y="399"/>
      <point x="256" y="454"/>
      <point x="153" y="454" type="curve" smooth="yes"/>
      <point x="118" y="454"/>
      <point x="83" y="450"/>
      <point x="49" y="442" type="curve"/>
      <point x="51" y="406" type="line"/>
      <point x="60" y="406" type="line"/>
      <point x="98" y="412"/>
      <point x="131" y="416"/>
      <point x="152" y="416" type="curve" smooth="yes"/>
      <point x="234" y="416"/>
      <point x="276" y="378"/>
      <point x="276" y="306" type="curve" smooth="yes"/>
      <point x="276" y="236"/>
      <point x="233" y="197"/>
      <point x="157" y="197" type="curve" smooth="yes"/>
      <point x="106" y="197" type="line"/>
      <point x="106" y="160" type="line"/>
      <point x="157" y="160" type="line" smooth="yes"/>
      <point x="244" y="160"/>
      <point x="291" y="122"/>
      <point x="291" y="51" type="curve" smooth="yes"/>
      <point x="291" y="-25"/>
      <point x="239" y="-69"/>
      <point x="148" y="-69" type="curve" smooth="yes"/>
      <point x="122" y="-69"/>
      <point x="82" y="-65"/>
      <point x="59" y="-60" type="curve"/>
      <point x="50" y="-60" type="line"/>
      <point x="50" y="-96" type="line"/>
      <point x="85" y="-103"/>
      <point x="120" y="-107"/>
    </contour>
  </outline>
</glyph>
<glyph name="fourinferior" format="1">
  <advance width="434"/>
  <unicode hex="2084"/>
  <outline>
    <contour>
      <point x="284" y="-100" type="line"/>
      <point x="323" y="-100" type="line"/>
      <point x="323" y="38" type="line"/>
      <point x="404" y="38" type="line"/>
      <point x="404" y="75" type="line"/>
      <point x="323" y="75" type="line"/>
      <point x="323" y="277" type="line"/>
      <point x="295" y="277" type="line"/>
      <point x="286" y="75" type="line"/>
      <point x="73" y="75" type="line"/>
      <point x="241" y="437" type="line"/>
      <point x="240" y="445" type="line"/>
      <point x="216" y="454" type="line"/>
      <point x="209" y="454" type="line"/>
      <point x="25" y="63" type="line"/>
      <point x="41" y="38" type="line"/>
      <point x="284" y="38" type="line"/>
    </contour>
  </outline>
</glyph>
<glyph name="fiveinferior" format="1">
  <advance width="386"/>
  <unicode hex="2085"/>
  <outline>
    <contour>
      <point x="153" y="-108" type="curve" smooth="yes"/>
      <point x="276" y="-108"/>
      <point x="342" y="-56"/>
      <point x="342" y="59" type="curve" smooth="yes"/>
      <point x="342" y="172"/>
      <point x="272" y="213"/>
      <point x="102" y="216" type="curve"/>
      <point x="116" y="408" type="line"/>
      <point x="322" y="408" type="line"/>
      <point x="322" y="446" type="line"/>
      <point x="82" y="446" type="line"/>
      <point x="62" y="186" type="line"/>
      <point x="68" y="181" type="line"/>
      <point x="125" y="179" type="line" smooth="yes"/>
      <point x="247" y="177"/>
      <point x="303" y="144"/>
      <point x="303" y="59" type="curve" smooth="yes"/>
      <point x="303" y="-32"/>
      <point x="252" y="-70"/>
      <point x="151" y="-70" type="curve" smooth="yes"/>
      <point x="122" y="-70"/>
      <point x="91" y="-66"/>
      <point x="57" y="-59" type="curve"/>
      <point x="47" y="-59" type="line"/>
      <point x="47" y="-96" type="line"/>
      <point x="84" y="-103"/>
      <point x="121" y="-108"/>
    </contour>
  </outline>
</glyph>
<glyph name="sixinferior" format="1">
  <advance width="449"/>
  <unicode hex="2086"/>
  <outline>
    <contour>
      <point x="236" y="-108" type="curve" smooth="yes"/>
      <point x="339" y="-108"/>
      <point x="408" y="-35"/>
      <point x="408" y="74" type="curve" smooth="yes"/>
      <point x="408" y="173"/>
      <point x="343" y="233"/>
      <point x="237" y="233" type="curve" smooth="yes"/>
      <point x="191" y="233"/>
      <point x="137" y="213"/>
      <point x="91" y="179" type="curve"/>
      <point x="102" y="329"/>
      <point x="171" y="417"/>
      <point x="282" y="417" type="curve" smooth="yes"/>
      <point x="311" y="417"/>
      <point x="336" y="413"/>
      <point x="373" y="403" type="curve"/>
      <point x="373" y="442" type="line"/>
      <point x="339" y="451"/>
      <point x="311" y="455"/>
      <point x="282" y="455" type="curve" smooth="yes"/>
      <point x="136" y="455"/>
      <point x="51" y="338"/>
      <point x="51" y="140" type="curve" smooth="yes"/>
      <point x="51" y="-25"/>
      <point x="114" y="-108"/>
    </contour>
    <contour>
      <point x="236" y="-71" type="curve" smooth="yes"/>
      <point x="139" y="-71"/>
      <point x="92" y="-3"/>
      <point x="90" y="136" type="curve"/>
      <point x="133" y="173"/>
      <point x="190" y="196"/>
      <point x="236" y="196" type="curve" smooth="yes"/>
      <point x="319" y="196"/>
      <point x="369" y="151"/>
      <point x="369" y="73" type="curve" smooth="yes"/>
      <point x="369" y="-13"/>
      <point x="317" y="-71"/>
    </contour>
  </outline>
</glyph>
<glyph name="seveninferior" format="1">
  <advance width="348"/>
  <unicode hex="2087"/>
  <outline>
    <contour>
      <point x="118" y="-110" type="line"/>
      <point x="89" y="-101" type="line"/>
      <point x="88" y="-89" type="line"/>
      <point x="294" y="428" type="line"/>
      <point x="296" y="402" type="line"/>
      <point x="32" y="402" type="line"/>
      <point x="28" y="435" type="line"/>
      <point x="30" y="439" type="line"/>
      <point x="308" y="439" type="line"/>
      <point x="320" y="422" type="line"/>
      <point x="320" y="391" type="line"/>
      <point x="129" y="-103" type="line"/>
    </contour>
  </outline>
</glyph>
<glyph name="eightinferior" format="1">
  <advance width="448"/>
  <unicode hex="2088"/>
  <outline>
    <contour>
      <point x="224" y="-103" type="curve" smooth="yes"/>
      <point x="328" y="-103"/>
      <point x="399" y="-52"/>
      <point x="399" y="40" type="curve" smooth="yes"/>
      <point x="399" y="113"/>
      <point x="356" y="150"/>
      <point x="297" y="174" type="curve"/>
      <point x="337" y="196"/>
      <point x="379" y="239"/>
      <point x="379" y="314" type="curve" smooth="yes"/>
      <point x="379" y="409"/>
      <point x="315" y="454"/>
      <point x="224" y="454" type="curve" smooth="yes"/>
      <point x="131" y="454"/>
      <point x="66" y="408"/>
      <point x="66" y="314" type="curve" smooth="yes"/>
      <point x="66" y="251"/>
      <point x="97" y="214"/>
      <point x="142" y="190" type="curve"/>
      <point x="97" y="168"/>
      <point x="50" y="124"/>
      <point x="50" y="42" type="curve" smooth="yes"/>
      <point x="50" y="-55"/>
      <point x="119" y="-103"/>
    </contour>
    <contour>
      <point x="224" y="-66" type="curve" smooth="yes"/>
      <point x="142" y="-66"/>
      <point x="89" y="-30"/>
      <point x="89" y="43" type="curve" smooth="yes"/>
      <point x="89" y="126"/>
      <point x="152" y="158"/>
      <point x="187" y="172" type="curve"/>
      <point x="198" y="167"/>
      <point x="216" y="162"/>
      <point x="227" y="158" type="curve" smooth="yes"/>
      <point x="301" y="137"/>
      <point x="360" y="114"/>
      <point x="360" y="40" type="curve" smooth="yes"/>
      <point x="360" y="-28"/>
      <point x="304" y="-66"/>
    </contour>
    <contour>
      <point x="250" y="190" type="curve"/>
      <point x="247" y="191"/>
      <point x="240" y="193"/>
      <point x="236" y="194" type="curve" smooth="yes"/>
      <point x="166" y="216"/>
      <point x="105" y="240"/>
      <point x="105" y="314" type="curve" smooth="yes"/>
      <point x="105" y="383"/>
      <point x="154" y="417"/>
      <point x="224" y="417" type="curve" smooth="yes"/>
      <point x="292" y="417"/>
      <point x="341" y="384"/>
      <point x="341" y="314" type="curve" smooth="yes"/>
      <point x="341" y="238"/>
      <point x="283" y="203"/>
    </contour>
  </outline>
</glyph>
